<?xml version="1.0" encoding="utf-8"?>
<!-- Generator: Adobe Illustrator 26.0.1, SVG Export Plug-In . SVG Version: 6.00 Build 0)  -->
<svg version="1.1" id="Шар_1" xmlns="http://www.w3.org/2000/svg" xmlns:xlink="http://www.w3.org/1999/xlink" x="0px" y="0px"
	 viewBox="0 0 1280 1280" style="enable-background:new 0 0 1280 1280;" xml:space="preserve">
<style type="text/css">
	.st0{fill:#777777;}
</style>
<g transform="translate(0.000000,1280.000000) scale(0.100000,-0.100000)">
	<path class="st0" d="M6354.6,12646.6c-5-131-10-170-27-207c-106-240-472-413-872-413c-262,0-488,72-608,195c-39,40-44,53-84,201
		c-24,90-48,160-56,162c-9,3-11-1-7-12c9-24,48-175,53-206c2-14,7-50,10-81c29-262-329-585-772-696c-95-24-128-27-264-27
		c-143,0-161,2-233,27c-129,45-147,61-239,223c-45,79-85,141-90,138s6-31,23-62c128-223,145-288,115-424c-33-150-122-293-274-440
		c-232-225-503-351-752-350c-152,0-171,9-312,149c-65,65-120,114-124,110c-4-3,41-57,100-119c130-138,147-175,153-323
		c4-83,0-116-20-196c-110-424-546-839-887-843l-75-1l-141,83c-78,45-144,82-148,82c-21,0,3-21,62-55c221-129,271-185,313-355
		c18-76,16-266-5-365c-78-365-305-694-558-810c-93-43-126-42-294,4c-163,45-164,45-164,32c0-4,28-16,63-26c223-61,254-74,310-131
		c67-66,129-182,160-296c19-72,22-108,22-278c-1-178-3-204-27-302c-57-223-136-379-252-493c-110-108-130-115-330-115
		c-91,0-166-4-166-8c0-5,73-12,161-15c140-6,168-10,213-30c304-141,483-705,370-1165c-34-138-127-298-198-340c-17-11-97-37-178-58
		c-82-21-148-44-148-50c0-8,31-3,87,13c102,29,151,36,249,37c64,1,79-3,157-42c307-152,552-627,534-1037c-3-83-11-129-31-188
		c-44-130-56-144-220-238c-79-46-142-87-139-92c2-4,35,9,71,30c209,116,209,116,312,116c78,1,109-4,169-26c113-40,223-111,335-218
		c246-234,392-534,389-799c-2-142-13-164-150-302c-65-65-114-120-110-124c3-4,57,41,119,100c134,126,174,146,314,153
		c411,24,959-410,1040-823c23-117,16-145-76-303c-44-76-80-141-80-145c0-22,24,4,56,61c107,191,165,250,289,294
		c384,135,1042-142,1226-516c58-118,59-144,10-325c-36-135-43-175-26-158c2,2,24,71,47,153c42,147,43,150,100,211
		c69,73,170,129,298,165c75,21,106,24,270,24c205,0,267-9,426-60c215-70,367-173,456-309l38-59v-174c0-95,4-173,8-173
		c5,0,12,73,15,162c6,154,8,166,37,224c95,193,367,343,696,385c133,16,345,7,454-21c120-31,238-90,305-153l56-52l43-159
		c24-92,48-162,56-164c9-3,11,1,7,12c-9,24-48,175-53,206c-17,103-16,140,4,206c29,94,86,177,190,275c142,135,326,232,552,292
		c105,28,130,30,275,31c150,1,165-1,238-27c131-46,144-58,238-221c46-79,87-142,92-139c4,2-9,35-30,71c-126,226-139,277-109,414
		c48,217,221,435,480,606c187,124,369,185,546,185c152,0,171-10,312-150c65-65,120-114,124-110c4,3-41,57-100,119
		c-130,138-147,175-153,323c-4,83,0,116,21,198c109,423,546,837,886,841l75,1l142-83c78-45,144-82,147-82c21,0-2,23-51,50
		c-106,60-218,138-239,167c-70,95-98,198-97,363c0,100,5,147,26,231c86,353,300,657,540,769c101,48,131,48,306,1
		c135-36,177-43,160-26c-3,2-61,21-129,41c-69,20-139,40-155,45c-83,24-205,200-246,356c-26,99-36,331-20,455
		c34,257,135,485,275,623c110,108,130,115,330,115c96,0,166,4,166,9c0,6-74,11-172,13c-159,3-177,5-222,27c-56,28-165,126-207,187
		c-129,188-196,449-186,729c8,250,69,426,187,546l55,56l146,38c81,21,153,41,160,46c30,18-2,17-72-2c-41-12-92-23-114-25
		s-67-6-100-10c-158-16-363,124-509,348c-211,324-276,746-153,996c35,73,49,85,214,178c67,38,118,73,114,77c-5,5-47-15-94-42
		c-47-28-91-51-97-51s-28-11-49-24c-146-93-426,1-650,218c-239,231-383,525-384,781c-1,156,6,170,146,312c66,68,118,126,114,129
		c-3,4-57-41-119-100c-130-123-174-145-304-153c-218-15-477,93-710,294c-213,185-368,468-351,645c3,35,23,79,85,187
		c45,77,82,142,82,145c0,24-26-7-70-81c-107-182-130-208-223-251c-92-44-158-56-287-55c-306,2-634,143-856,367
		c-73,74-99,108-134,178c-60,121-61,150-11,332c37,134,43,171,25,154c-5-6-54-170-77-257c-16-63-107-158-195-204
		c-37-20-108-48-157-63c-84-26-103-28-280-28c-210-1-270,7-431,59c-215,70-367,173-456,309l-38,59v174c0,95-4,173-8,173
		C6364.6,12806.6,6357.6,12734.6,6354.6,12646.6z M6322.6,11541.6c-65-112-196-218-341-276c-132-53-247-71-409-66
		c-226,7-368,59-485,177l-65,65l-99,375c-54,206-101,382-104,390c-2,8,8,3,24-11c78-71,214-136,351-167c110-24,414-24,531,2
		c285,61,510,196,600,361c16,28,17,7,20-389l2-419L6322.6,11541.6z M6470.6,12298.6c58-60,191-147,289-189c182-76,369-108,588-100
		c226,8,388,62,504,167l55,51l-25-93c-149-561-186-697-197-718c-18-35-117-112-192-149c-101-49-210-71-353-71c-183,0-320,33-477,114
		c-97,50-220,165-259,243l-26,52v407v407l26-39C6417.6,12359.6,6448.6,12322.6,6470.6,12298.6z M4899.6,11807.6
		c119-446,116-424,58-546c-125-260-470-456-805-457c-157,0-310,47-374,116c-22,23-411,688-406,694c1,1,27-9,58-23
		c165-76,429-72,674,10c205,69,366,165,499,299c71,72,99,109,132,175c23,46,42,94,42,107s3,24,8,24
		C4789.6,12206.6,4840.6,12026.6,4899.6,11807.6z M7999.6,12047.6c44-74,196-225,287-285c225-150,472-229,706-229
		c134,0,212,16,306,64l58,29l-86-148c-47-81-141-244-210-364l-125-216l-58-31c-389-208-1037,75-1146,499c-15,58-14,63,10,152
		c13,51,59,221,101,378s79,292,81,300c3,9,13-8,25-39C7958.6,12127.6,7981.6,12077.6,7999.6,12047.6z M3565.6,11219.6
		c189-327,192-333,192-390c-1-260-211-541-513-688c-129-62-246-88-367-82c-161,8-141-5-462,315c-158,157-286,287-285,289
		c2,1,34-3,72-8c252-40,623,124,875,387c155,161,243,329,257,489l6,75l17-27C3366.6,11563.6,3460.6,11402.6,3565.6,11219.6z
		 M9417.6,11390.6c63-190,265-425,488-569c221-142,487-209,645-161c26,8,47,11,47,7c0-3-132-138-292-298c-324-322-306-309-454-320
		c-216-15-465,96-656,295c-152,157-223,309-223,477v90l200,344l200,344l12-73C9391.6,11487.6,9406.6,11425.6,9417.6,11390.6z
		 M6513.6,11387.6c105-93,264-165,430-196c111-21,338-16,429,9c91,26,174,66,242,118l61,47l-23-87c-207-767-196-734-283-792
		c-98-65-140-74-327-74c-157,0-177,2-260,28c-177,54-311,137-373,231l-32,48v415v414l43-58
		C6444.6,11457.6,6486.6,11411.6,6513.6,11387.6z M6331.6,10692.6c-37-111-181-211-369-257c-123-31-334-31-447-1
		c-118,32-228,97-258,152c-10,18-210,762-210,780c0,7,21-7,47-30c56-49,180-111,273-137c95-26,386-26,485,1c205,55,384,168,462,291
		l28,45l3-397C6347.6,10790.6,6345.6,10736.6,6331.6,10692.6z M7741.6,11276.6c103-256,458-480,787-497c125-7,217,7,312,47
		c37,15,67,27,67,26c0-2-88-155-195-342c-129-223-208-350-232-371c-116-105-348-102-578,6c-177,83-315,204-377,328
		c-37,76-36,122,11,288c17,61,61,224,98,363c42,157,70,246,74,235C7712.6,11349.6,7727.6,11312.6,7741.6,11276.6z M5122.6,10974.6
		c71-265,100-388,99-424c-6-231-363-463-719-467c-81-1-126,3-169,16c-112,35-108,31-328,412c-111,193-203,353-205,357s16-4,39-16
		c182-99,474-90,723,23c176,80,334,221,404,362c23,45,41,88,41,95C5007.6,11386.6,5035.6,11299.6,5122.6,10974.6z M8973.6,10661.6
		c44-132,124-254,240-365c121-115,254-195,404-241c59-19,99-24,185-24c61,0,126,3,145,8c31,6,2-25-245-273c-333-334-334-334-482-328
		c-85,3-109,9-178,39c-107,46-184,99-278,188c-141,134-229,296-231,421l-1,65l205,353l205,352l7-72
		C8954.6,10744.6,8964.6,10689.6,8973.6,10661.6z M3983.6,10496.6c103-179,194-347,202-373c63-216-203-524-555-643
		c-89-30-223-38-283-17c-24,9-123,101-325,304c-253,253-285,290-255,282c19-4,87-8,150-8c91,1,131,5,190,24c177,54,361,174,483,316
		c104,121,187,306,187,419c0,25,4,36,9,31C3791.6,10825.6,3880.6,10675.6,3983.6,10496.6z M6409.6,10637.6c59-83,226-180,385-222
		c99-27,316-37,405-19c83,16,157,50,207,95c22,21,41,34,41,30c0-7-28-114-136-510c-24-88-52-171-62-185c-34-46-102-90-175-112
		c-91-29-258-30-357-4c-149,40-272,123-321,218c-23,42-23,49-24,395c0,194,2,353,5,353S6394.6,10658.6,6409.6,10637.6z
		 M6326.6,9920.6c-24-52-104-126-170-160c-68-34-177-62-273-70c-154-12-322,40-398,124c-40,44-36,33-138,417c-39,149-74,278-76,288
		c-4,12,11,6,52-23c175-122,515-142,762-44c116,46,214,123,245,192c10,21,13-48,15-328C6347.6,9975.6,6347.6,9961.6,6326.6,9920.6z
		 M2696.6,10027.6c7-20,15-77,18-126c14-223-93-463-291-653c-130-125-255-195-397-223c-129-25-137-23-517,197l-343,199l53,8
		c359,55,718,393,860,810c28,82,32,105,32,212c1,66-3,138-7,160c-8,38,6,25,286-254C2608.6,10140.6,2687.6,10054.6,2696.6,10027.6z
		 M10606.6,10561.6c-37-235,105-580,341-828c103-109,174-165,283-222c93-49,162-71,259-82l68-8l-163-93c-89-51-252-144-362-208
		l-200-116l-80,6c-255,16-520,221-660,509c-63,130-88,245-83,372c7,160,6,157,326,471c152,150,278,271,279,270
		S10611.6,10599.6,10606.6,10561.6z M7532.6,10415.6c42-66,151-169,237-223c238-148,499-192,661-110l49,24l-20-33
		c-11-17-88-151-172-297s-161-275-172-287c-58-63-221-90-363-58c-235,52-455,250-455,408c0,18,22,113,49,212c26,99,65,243,86,320
		s40,144,43,149s11-6,18-26C7499.6,10475.6,7517.6,10439.6,7532.6,10415.6z M5336.6,10174.6c86-318,91-340,81-385
		c-16-69-50-121-125-191c-119-111-288-177-455-176c-109,1-187,25-236,73c-22,22-345,568-362,612c-2,5,16,0,40-11
		c63-28,180-43,266-36c179,17,398,100,525,201c70,56,140,148,158,209c7,25,14,44,15,43S5286.6,10359.6,5336.6,10174.6z
		 M8566.6,9889.6c97-192,313-380,516-448c70-24,92-27,178-23l98,4l-238-239c-131-131-250-245-265-253c-148-78-391,4-565,189
		c-107,115-166,275-135,366c6,17,86,161,179,321l168,291l17-75C8529.6,9980.6,8550.6,9921.6,8566.6,9889.6z M4570.6,9416.6
		c0-84-28-155-93-242c-156-207-455-323-617-239c-21,11-146,128-278,261l-240,241l70-6c270-25,664,223,772,485c12,30,25,81,29,113
		l7,57l175-302l176-303L4570.6,9416.6z M9998.6,9989.6c-18-62-13-211,8-295c94-367,400-665,726-706l59-7l-319-185
		c-363-209-375-215-432-225c-51-8-146,15-214,52c-256,139-468,528-419,768l12,60l291,292c160,161,293,291,295,289
		S10004.6,10011.6,9998.6,9989.6z M3302.6,9421.6c34-70,39-127,21-215c-61-295-399-621-646-623l-65-1l-351,205l-352,204l63,7
		c307,32,612,300,726,638c29,84,32,108,33,210c1,63-2,131-7,150c-6,31,25,2,273-245C3208.6,9541.6,3284.6,9459.6,3302.6,9421.6z
		 M6554.6,9753.6c220-115,502-111,660,9c18,14,33,21,33,16s-15-64-34-133c-18-68-57-212-85-319c-51-189-53-196-92-232
		c-79-73-216-102-348-74c-141,30-259,104-300,189c-20,41-21,59-21,377v333l60-65C6466.6,9810.6,6509.6,9777.6,6554.6,9753.6z
		 M6347.6,9562.6v-344l-32-48c-68-99-196-155-354-156c-99,0-172,17-238,56c-78,46-79,49-171,391c-47,176-85,323-85,327
		c0,5,20-7,45-26c74-57,206-96,326-96c90,0,220,30,305,69c83,39,178,115,189,152c4,10,8,19,11,19
		C6345.6,9906.6,6347.6,9751.6,6347.6,9562.6z M7417.6,9583.6c182-169,491-238,659-147c18,9-86-180-284-515c-54-92-97-117-211-123
		c-94-5-166,12-259,61c-108,58-211,183-216,264c-2,25,31,162,90,373c10,36,31,110,45,165c15,55,29,106,32,114c2,7,20-19,40-57
		C7338.6,9666.6,7367.6,9629.6,7417.6,9583.6z M5476.6,9651.6c18-66,57-212,88-325l55-204l-16-53c-53-167-301-295-507-262
		c-121,19-124,22-309,344c-91,158-166,291-168,296c-2,4,14,0,35-10c156-75,404-34,595,97c65,45,136,126,165,188c14,30,26,54,28,52
		S5459.6,9717.6,5476.6,9651.6z M8143.6,9326.6c45-159,212-332,392-405c84-34,180-49,236-37c25,5,46,7,46,3c0-3-107-113-237-243
		c-265-264-269-266-388-254c-132,13-304,137-368,265c-37,74-54,155-40,192c6,15,85,156,175,311c138,240,163,278,166,253
		C8127.6,9395.6,8135.6,9356.6,8143.6,9326.6z M4780.6,9116.6l159-275l-5-66c-5-84-42-154-119-230c-126-124-321-182-433-130
		c-25,12-125,104-270,250l-230,231l67-7c90-8,175,10,275,58c192,92,347,273,368,431c6,44,9,48,18,32
		C4616.6,9400.6,4692.6,9267.6,4780.6,9116.6z M9381.6,9353.6c-8-75,14-197,52-292c56-139,178-305,287-391c86-68,155-101,241-116
		l69-13l-303-174l-303-175l-63,1c-229,2-504,317-504,576c0,119,0,119,274,395c137,138,252,252,253,252
		C9386.6,9416.6,9385.6,9387.6,9381.6,9353.6z M1527.6,9181.6c179-103,330-192,337-198c6-7,26-41,43-75c132-268,35-692-217-949
		c-101-104-242-181-336-184c-32-1-594,141-781,198c-15,4-4,11,42,29c223,84,445,352,553,671c45,133,62,236,63,368
		c0,135-16,213-65,308l-30,59l33-20C1187.6,9377.6,1348.6,9284.6,1527.6,9181.6z M3843.6,8887.6c40-93,23-217-48-355
		c-59-114-183-238-292-291c-70-35-86-39-155-40h-76l-302,175l-302,175l70,16c136,32,269,117,393,250c164,177,246,391,213,554
		c-8,38,2,30,238-205C3726.6,9023.6,3834.6,8907.6,3843.6,8887.6z M11543.6,9335.6c-148-322,11-902,327-1196c79-73,138-110,227-140
		c38-13,59-24,50-27c-8-3-190-53-404-110l-389-104l-51,15c-185,54-340,199-447,418c-81,167-115,343-98,502c12,117,47,213,101,282
		c16,21,698,423,706,416C11566.6,9390.6,11556.6,9365.6,11543.6,9335.6z M6507.6,9064.6c160-93,383-98,509-12c19,13,37,22,39,19
		c2-2-10-55-27-117s-40-147-51-188c-111-412-96-381-200-421c-44-17-71-20-136-17c-100,5-172,37-233,103l-41,45v355v356l48-48
		C6441.6,9112.6,6482.6,9079.6,6507.6,9064.6z M6347.6,8816.6v-350l-36-40c-70-77-202-119-312-99c-113,21-162,62-185,154
		c-9,33-47,178-86,323s-71,268-71,273s18-2,39-16c72-45,157-67,256-67c153,0,262,38,343,122c26,27,48,49,50,49
		C6346.6,9166.6,6347.6,9009.6,6347.6,8816.6z M7156.6,8971.6c49-65,155-138,246-170c84-29,207-34,275-10c24,8,44,14,45,13
		c1-2-76-138-171-303c-190-328-182-319-286-331c-114-13-257,52-318,144c-52,79-56,45,51,442c21,80,48,181,60,225
		c31,117,29,114,45,75C7111.6,9037.6,7135.6,8999.6,7156.6,8971.6z M5722.6,8736.6c61-230,85-337,81-356c-18-69-99-150-191-189
		c-61-25-170-29-229-8l-48,18l-175,303c-96,167-173,305-171,307s24-3,48-12c56-19,178-21,250-4c136,33,288,143,320,234
		c8,20,17,37,20,37C5631.6,9066.6,5673.6,8918.6,5722.6,8736.6z M10795.6,8909.6c-87-179-83-416,12-660c86-224,272-423,454-484
		c30-11,45-20,36-23c-8-3-179-49-380-102c-259-69-380-97-418-96c-177,3-362,219-439,512c-35,131-37,308-6,393c12,31,31,70,41,84
		c12,17,158,108,369,229c191,112,351,203,354,203C10821.6,8966.6,10811.6,8940.6,10795.6,8909.6z M2240.6,8770.6
		c177-103,337-197,355-211c74-56,120-193,106-322c-26-256-204-552-394-655c-91-50-108-48-480,53c-184,49-357,95-383,102
		c-53,13-52,21,8,39c70,21,173,89,244,159c260,260,365,691,236,969c-13,28-22,52-19,52C1915.6,8956.6,2063.6,8872.6,2240.6,8770.6z
		 M8839.6,8799.6c-11-198,119-429,312-554c51-34,88-49,195-78c19-6-26-35-269-175l-291-168l-58,4c-153,11-310,160-365,347
		c-18,62-21,157-6,198c6,15,118,135,248,266c130,130,237,237,238,237C8843.6,8876.6,8842.6,8841.6,8839.6,8799.6z M4367.6,8356.6
		c56-201-138-476-366-519c-28-6-62-7-75-4s-154,81-312,172l-288,166l49,7c195,29,396,211,480,436c20,53,25,86,26,160l1,92l237-237
		C4299.6,8449.6,4360.6,8382.6,4367.6,8356.6z M7766.6,8750.6c1-35,67-156,116-211c94-107,245-179,360-171c30,1,55,1,55-2
		s-109-114-242-247c-275-274-268-270-389-239c-134,35-235,137-259,264l-8,47l176,306C7748.6,8795.6,7764.6,8817.6,7766.6,8750.6z
		 M5146.6,8482.6l173-299l-12-45c-26-105-97-190-198-238c-45-22-72-28-129-28l-73-1l-250,250c-137,137-250,252-250,255s35,5,78,5
		c94,0,171,23,254,77c121,78,204,192,216,294c2,25,8,42,12,37C4971.6,8785.6,5052.6,8646.6,5146.6,8482.6z M2982.6,8342.6
		c167-97,282-169,301-191c80-91,86-293,12-468c-55-131-159-254-258-303c-82-41-130-38-360,25c-107,29-244,67-305,83
		c-60,16-116,31-124,34c-7,2,18,20,55,39c90,45,154,101,226,199c177,238,243,541,155,717l-23,48l25-14
		C2700.6,8504.6,2834.6,8428.6,2982.6,8342.6z M10046.6,8482.6c-118-267,64-791,320-921c19-9,49-22,68-29c34-12,34-12-69-39
		c-57-15-210-56-341-91l-238-65l-55,15c-71,18-118,49-185,121c-169,183-227,486-125,654c30,50,41,58,331,225c165,96,303,174,307,174
		S10057.6,8506.6,10046.6,8482.6z M6468.6,8353.6c90-55,252-62,347-14c28,14,52,23,52,18c0-4-7-30-14-57c-8-27-25-85-36-129
		c-179-668-163-625-245-665c-55-27-84-25-130,6c-80,54-74,18-75,499v429l38-35C6425.6,8385.6,6454.6,8362.6,6468.6,8353.6z
		 M6317.6,7563.6c-39-53-77-77-123-77c-37,0-109,30-122,50c-6,10-36,112-75,260c-12,47-30,114-40,150s-28,103-40,150s-30,114-40,150
		s-21,77-24,92l-6,27l47-24c130-68,298-47,410,50l38,33l3-410l2-410L6317.6,7563.6z M5862.6,8211.6c20-77,45-169,55-205
		s41-152,70-257l51-193l-21-47c-42-96-93-124-184-100l-48,12l-214,370c-117,203-212,371-210,372c1,1,20-2,42-8c59-17,162-6,227,24
		c78,35,122,71,159,128c17,27,32,48,33,46C5824.6,8352.6,5841.6,8288.6,5862.6,8211.6z M6911.6,8329.6c62-121,258-208,392-174
		c25,7,48,11,49,9c3-4-379-665-405-699c-19-27-94-59-137-59c-40,0-83,29-112,76c-24,36-27,50-21,77c4,17,45,169,90,337
		c120,446,120,444,120,453C6887.6,8363.6,6897.6,8355.6,6911.6,8329.6z M8351.6,8139.6c53-158,196-296,341-328l50-11l-25-16
		c-14-9-147-86-296-172c-302-174-307-175-401-132c-68,32-132,97-169,172c-24,49-29,72-29,131v73l250,250l250,250l5-82
		C8330.6,8228.6,8341.6,8168.6,8351.6,8139.6z M4647.6,8101.6l245-245l-1-74c0-59-6-84-28-129c-56-114-178-203-269-195
		c-33,2-107,41-334,173c-161,93-293,173-293,177c0,5,15,8,34,8c18,0,66,16,107,37c101,50,194,144,245,248c36,73,39,86,39,162
		c0,46,2,83,5,83S4512.6,8236.6,4647.6,8101.6z M7430.6,8028.6c64-97,173-166,285-179l63-8l-293-291l-293-292l-56-6
		c-58-7-100,3-132,32c-22,20-46,74-49,111c-2,22,161,314,420,756c3,5,11-12,18-39C7400.6,8086.6,7416.6,8048.6,7430.6,8028.6z
		 M3675.6,7941.6c225-129,244-143,263-181c69-144,19-361-115-499c-57-57-141-105-188-105c-15,0-111,23-215,51c-103,27-228,61-278,74
		c-129,35-183,53-161,54c40,2,139,66,196,127c67,72,119,159,157,265c23,65,27,90,27,199c1,109-2,131-21,173l-22,48l57-33
		C3407.6,8096.6,3542.6,8018.6,3675.6,7941.6z M5546.6,7790.6c203-355,204-355,198-404c-12-99-51-139-144-147l-58-5l-303,305
		l-304,304l62,6c114,12,217,75,280,170c22,32,42,74,46,93c3,19,9,34,13,34C5339.6,8145.6,5434.6,7985.6,5546.6,7790.6z
		 M9386.6,8109.6c-92-187-7-512,180-686c28-27,77-60,108-74l57-26l-89-24c-50-13-198-53-330-88c-191-52-246-63-270-56
		c-58,16-111,49-157,99c-86,92-132,214-131,354c0,75,3,94,29,145l29,58l290,167c160,92,293,168,296,168
		C9402.6,8146.6,9396.6,8129.6,9386.6,8109.6z M857.6,7871.6c157-43,332-90,390-105c102-28,106-30,157-85c58-64,114-169,140-265
		c26-95,26-365-1-470c-24-93-64-194-108-268c-46-78-161-192-227-225l-55-27h-404h-405l44,31c163,116,284,329,346,611
		c28,127,25,443-5,553c-30,111-83,214-145,281c-34,37-45,55-32,51C563.6,7950.6,700.6,7913.6,857.6,7871.6z M12119.6,7889.6
		c-115-139-172-334-172-585c0-261,68-509,190-688c44-64,141-159,190-186c35-19,33-19-378-22l-412-2l-48,24c-137,70-254,232-318,442
		c-25,82-28,103-28,269c-1,145,3,192,17,245c31,110,83,206,150,276l62,65l385,104c212,57,389,104,393,104
		C12155.6,7936.6,12141.6,7915.6,12119.6,7889.6z M5508.6,7211.6c16-58,6-123-24-152c-14-14-49-33-78-43l-54-18l-40,24
		c-22,13-190,110-373,216l-333,192l56,17c132,41,239,177,252,320l6,61l289-289C5450.6,7299.6,5499.6,7244.6,5508.6,7211.6z
		 M7831.6,7651.6c47-102,119-170,218-204l52-18l-69-40c-39-22-200-116-360-208l-289-167l-51,7c-97,12-145,64-145,157
		c0,43,0,43,303,346l302,302l7-60C7803.6,7732.6,7817.6,7681.6,7831.6,7651.6z M8753.6,7738.6c-38-108-25-254,35-380
		c38-79,135-182,192-202c20-8,37-16,37-20c0-3-151-45-336-94l-337-90l-54,29c-61,32-112,88-145,161c-18,39-23,67-23,139
		c0,138-11,127,340,329c165,95,301,172,303,171C8766.6,7780.6,8761.6,7761.6,8753.6,7738.6z M4317.6,7570.6c239-138,245-143,262-185
		c34-89,15-209-49-306c-33-51-106-108-149-119c-19-5-165,31-474,116c-36,10-102,28-148,40l-83,23l31,14c96,40,207,164,250,280
		c41,111,43,237,5,327C3952.6,7782.6,3927.6,7795.6,4317.6,7570.6z M1507.6,7697.6c74-21,231-63,505-136c77-20,159-48,183-62
		c105-60,162-200,163-398c0-60-7-144-15-185c-36-188-130-364-234-443l-55-42l-426-2l-426-2l40,21c91,48,202,187,267,333
		c58,131,73,214,73,405c0,156-3,183-23,250c-31,96-70,173-122,239c-30,37-37,51-24,48C1424.6,7720.6,1466.6,7708.6,1507.6,7697.6z
		 M11285.6,7668.6c-50-52-87-114-118-202c-41-112-53-208-47-367c6-156,28-252,83-371c58-127,113-194,244-302l25-20l-410,2l-410,3
		l-54,30c-103,57-180,177-223,350c-30,124-30,334,0,448c38,141,118,256,189,273c16,4,190,51,388,104s362,95,364,93
		C11319.6,7707.6,11305.6,7689.6,11285.6,7668.6z M6345.6,6771.6l-3-267l-129,483c-71,266-131,492-133,501c-5,15-1,15,33-3
		c77-39,151-21,209,51l20,25l3-262C6346.6,7155.6,6346.6,6917.6,6345.6,6771.6z M6407.6,7511.6c47-51,131-57,191-15
		c16,12,33,20,36,17s-15-82-40-174s-80-296-122-453s-83-305-90-330c-12-39-14,22-14,468c-1,281,3,512,7,512
		C6380.6,7536.6,6394.6,7525.6,6407.6,7511.6z M6152.6,7131.6c54-203,111-417,127-475c44-163,43-161,20-124c-31,48-482,832-488,848
		c-5,12,2,13,38,4c29-6,55-6,80,1c40,12,94,68,104,107c4,14,10,22,14,17C6051.6,7505.6,6098.6,7335.6,6152.6,7131.6z M2405.6,7456.6
		c81-22,181-49,222-60c293-78,293-78,337-121c129-127,148-404,43-635c-32-71-95-144-159-186l-45-28h-360h-360l41,30
		c57,42,116,122,162,221c133,283,125,635-17,787c-17,18-26,32-21,32C2254.6,7496.6,2324.6,7478.6,2405.6,7456.6z M6691.6,7455.6
		c43-64,109-83,189-55c20,8,37,12,37,9c0-7-513-893-516-891c-2,3,5,32,49,198c14,52,57,212,96,355c38,143,79,295,90,337
		c12,43,21,80,21,83C6657.6,7503.6,6666.6,7494.6,6691.6,7455.6z M10448.6,7449.6c-128-161-156-504-62-761c44-121,100-199,191-265
		c24-17,13-18-333-13c-407,7-397,5-472,88c-84,93-132,224-142,383c-9,159,34,299,120,383l43,42l330,89c181,49,335,90,342,90
		C10472.6,7486.6,10465.6,7469.6,10448.6,7449.6z M4964.6,7196.6l351-202l21-48c38-89,22-151-54-199l-44-28l-238,64
		c-131,35-287,77-348,93c-60,17-140,38-177,47c-61,15-90,33-54,33c30,0,125,101,158,168c29,58,33,76,33,147c0,44-4,93-8,108
		c-4,16-4,27,0,24C4608.6,7401.6,4770.6,7308.6,4964.6,7196.6z M8110.6,7384.6c-4-13-8-61-8-108c0-71,5-95,27-142
		c37-80,72-123,130-160c27-18,46-34,41-35c-166-48-776-205-795-205c-34,1-97,33-128,67c-20,22-25,37-24,78c1,93-4,90,389,317
		c198,115,364,209,368,209C8115.6,7406.6,8115.6,7396.6,8110.6,7384.6z M6017.6,6971.6c133-231,251-436,263-455
		c11-19-145,129-347,330l-366,365l43,6c90,14,138,59,151,141c4,22,8,39,10,37S5884.6,7202.6,6017.6,6971.6z M7010.6,7252.6
		c21-15,44-21,88-21c32,0,59-1,59-2c0-3-734-732-736-730c0,1,93,164,208,362s229,396,255,439l45,79l27-53
		C6970.6,7296.6,6995.6,7263.6,7010.6,7252.6z M3246.6,7230.6c135-36,277-74,315-84c82-22,123-57,160-139c70-156,23-394-101-519
		c-72-72-67-71-434-65l-327,6l59,55c44,40,70,76,99,136c57,116,74,190,74,326c1,137-24,232-79,304c-19,25-30,46-23,46
		C2995.6,7296.6,3111.6,7266.6,3246.6,7230.6z M9714.6,7258.6c-40-42-85-149-98-232c-32-205,30-429,153-553c32-32,58-59,58-60
		s-156,0-347,3c-339,5-349,6-379,27c-142,101-193,364-108,554c49,108,51,109,410,205c175,47,321,87,323,90c2,2,7,2,9-1
		C9738.6,7288.6,9729.6,7273.6,9714.6,7258.6z M5907.6,6840.6c207-209,359-368,339-357s-221,128-448,258l-412,238l53,26
		c73,37,93,67,93,147c0,35,0,64,0,64S5701.6,7047.6,5907.6,6840.6z M7172.6,7134.6c9-67,43-103,115-125l58-18l-391-225
		c-215-124-418-240-452-259c-54-30-25,2,300,328c198,199,361,358,362,354C7165.6,7184.6,7168.6,7160.6,7172.6,7134.6z
		 M4112.6,6997.6c39-10,108-29,155-41c47-13,91-28,99-34s27-38,43-71c23-50,28-73,28-137c0-109-27-178-96-245l-54-53h-355h-355
		l52,53c88,87,147,238,148,372c0,70-25,161-60,218c-17,27-30,50-30,51c0,2,80-19,178-45C3962.6,7038.6,4074.6,7008.6,4112.6,6997.6z
		 M9008.6,7065.6c-50-68-75-160-75-269c0-149,40-258,126-341l40-39h-350h-351l-34,29c-46,41-83,114-98,193c-10,57-10,76,4,135
		c10,37,29,86,45,107l27,39l340,92c187,51,343,93,348,94C9034.6,7105.6,9024.6,7088.6,9008.6,7065.6z M6019.6,6587.6
		c130-75,235-137,234-138s-94,23-206,53c-113,30-290,77-395,105c-104,28-219,59-255,69s-77,21-92,24c-36,8-35,17,3,40
		c64,38,84,110,55,194l-15,40l217-125C5684.6,6780.6,5889.6,6663.6,6019.6,6587.6z M7335.6,6926.6c-21-80,17-155,96-191l39-17
		l-39-11c-157-42-595-159-766-205c-114-31-210-56-215-56s883,517,893,520C7344.6,6966.6,7340.6,6948.6,7335.6,6926.6z
		 M4604.6,6865.6c254-68,348-93,476-128c117-31,145-50,178-113c26-50,24-88-7-133c-54-80-18-74-498-75h-429l42,45
		c68,74,85,122,86,245c0,93-3,111-26,158c-14,28-22,52-18,52S4500.6,6893.6,4604.6,6865.6z M8273.6,6845.6c-26-52-30-72-30-142
		c-1-98,21-164,76-237l38-50h-413h-413l-41,30c-55,40-79,98-62,149c10,29,28,66,46,90c4,5,792,218,814,220
		C8300.6,6906.6,8298.6,6894.6,8273.6,6845.6z M5402.6,6651.6c77-21,203-55,280-75c77-21,228-61,335-90c107-28,204-55,215-60
		c12-5-193-9-492-9c-282-1-513,3-513,7c0,5,9,17,21,28c58,52,64,126,18,198c-16,27-24,46-17,44
		C5256.6,6691.6,5325.6,6672.6,5402.6,6651.6z M7432.6,6659.6c-32-74-36-99-26-134c6-19,27-52,48-72l36-37l-514,1
		c-283,1-507,3-499,6c116,33,939,252,949,252C7435.6,6676.6,7437.6,6670.6,7432.6,6659.6z M1246.6,6355.6c133-89,246-263,293-454
		c30-121,32-363,4-470c-37-140-107-263-186-325c-33-26-93-45-424-133c-212-57-386-101-386-99s18,25,41,50c188,214,223,701,77,1072
		c-61,156-175,308-275,367c-24,14-43,27-43,29s188,4,419,4h419L1246.6,6355.6z M2069.6,6380.6c122-41,225-198,264-402
		c18-96,18-298-1-386c-25-120-90-238-154-278c-14-9-172-55-351-103c-414-111-430-115-435-115c-3,0,15,26,39,58
		c57,73,102,163,128,260c18,64,22,104,22,242c0,148-3,175-27,264c-50,187-142,335-265,429l-63,47h399
		C1959.6,6396.6,2031.6,6393.6,2069.6,6380.6z M2844.6,6375.6c131-63,225-266,226-484c0-121-20-208-67-285c-60-97-64-99-436-198
		c-184-49-336-88-338-87c-2,2,12,24,31,49c71,92,108,237,108,420c0,153-26,278-80,390c-47,97-89,149-150,187l-45,29h354
		C2785.6,6396.6,2803.6,6395.6,2844.6,6375.6z M3589.6,6367.6c51-32,101-98,132-175c17-42,20-73,21-182v-130l-38-77
		c-21-42-50-85-65-96c-16-11-161-55-332-101c-168-45-313-84-323-87c-14-4-11,7,17,46c95,139,118,346,60,542c-34,113-110,229-178,270
		c-31,19-27,19,315,19h345L3589.6,6367.6z M4337.6,6360.6c114-103,136-331,42-443c-26-32-42-37-362-122c-184-49-339-89-343-89
		c-5,0,3,13,16,30c46,54,70,135,75,251c6,159-34,277-125,365l-45,44h351h351L4337.6,6360.6z M5197.6,6370.6c73-49,97-116,66-187
		c-28-65-23-63-451-177c-225-60-411-108-412-106c-2,2,9,25,24,52c26,45,28,58,28,154c0,92-3,112-26,160c-14,31-41,73-59,93l-32,37
		h411h411L5197.6,6370.6z M6246.6,6392.6c-2-3-218-61-479-131c-261-69-483-129-493-131c-17-5-17-3,2,35c40,77,23,150-50,210l-24,20
		l524,1C6014.6,6396.6,6248.6,6394.6,6246.6,6392.6z M7465.6,6359.6c-59-64-64-124-17-197c22-36,26-47,13-42s-377,104-669,181
		c-138,37-281,76-290,80c-5,2,215,4,489,4l500,1L7465.6,6359.6z M8342.6,6345.6c-64-71-80-119-80-239c0-93,3-111,26-158
		c31-63,43-61-111-19c-52,14-138,37-190,51c-520,140-490,128-531,208c-32,63-23,110,31,166l32,32h430h430L8342.6,6345.6z
		 M9077.6,6336.6c-82-84-139-235-140-365c0-70,25-161,60-218l30-49l-32,7c-18,4-62,15-98,25c-55,15-239,65-475,127
		c-76,20-82,26-117,98c-23,50-28,73-28,137c0,104,28,178,90,241l47,47h356h356L9077.6,6336.6z M9797.6,6330.6c-45-42-70-77-100-138
		c-58-117-74-190-75-326c0-137,25-232,80-304c19-25,30-46,25-46c-6,0-45,9-88,21c-42,11-185,49-316,85c-272,72-283,78-331,186
		c-76,170-12,433,134,544l44,34h344h344L9797.6,6330.6z M10590.6,6356.6c-162-120-284-468-253-726c15-128,42-200,102-276
		c16-21,26-38,22-38s-37,9-73,19c-36,11-154,42-261,71c-325,86-331,88-374,128c-168,160-145,582,43,767c90,88,68,84,475,85h360
		L10590.6,6356.6z M11497.6,6383.6c0-2-22-18-49-35c-138-90-256-288-302-507c-27-127-27-323,0-428c28-106,66-190,124-265
		c30-41,41-61,30-58c-29,9-364,100-562,152c-205,54-251,77-301,149c-179,260-51,841,215,979c26,14,88,16,438,16
		C11314.6,6386.6,11497.6,6385.6,11497.6,6383.6z M12321.6,6352.6c-173-117-314-396-355-702c-17-127-7-359,20-459
		c28-105,80-211,136-273c25-27,45-52,45-54c0-3-156,37-347,89c-192,51-370,98-398,104c-95,21-205,170-252,339c-26,95-26,365,1,470
		c24,93,64,194,108,268c46,78,161,192,227,225l55,27h405h406L12321.6,6352.6z M6252.6,6357.6c-16-14-866-501-875-501c-5,0-4,16,2,36
		c20,75-15,143-93,182l-41,21l53,15c30,8,225,61,434,117s409,110,445,119C6254.6,6368.6,6264.6,6369.6,6252.6,6357.6z
		 M6687.6,6306.6c107-29,224-60,260-70s153-41,260-70c275-73,251-62,206-90c-69-42-92-111-65-189c6-18,9-34,7-36
		c-3-4-318,176-878,501C6446.6,6370.6,6436.6,6372.6,6687.6,6306.6z M5917.6,5981.6l-365-365l-8,52c-11,75-44,113-117,135l-58,18
		l451,261c249,144,454,262,457,263S6118.6,6182.6,5917.6,5981.6z M6890.6,6086.6l439-253l-53-26c-73-36-94-68-94-142c0-32-2-59-5-59
		s-172,167-375,371c-204,204-365,369-360,367C6448.6,6341.6,6649.6,6225.6,6890.6,6086.6z M7102.6,5594.6c-86-12-129-55-152-146
		c-8-32-17-17-243,374c-129,225-248,431-264,458c-22,41,47-23,338-314l366-365L7102.6,5594.6z M6065.6,5919.6
		c-126-219-241-418-255-442l-25-44l-27,54c-36,73-66,93-141,94c-33,0-60,2-60,5c0,8,724,730,732,730
		C6292.6,6316.6,6192.6,6137.6,6065.6,5919.6z M6507.6,5802.6c71-268,130-489,130-491s-17,6-37,16c-75,38-154,20-209-48l-23-28v530
		c0,292,2,526,5,520C6375.6,6296.6,6435.6,6071.6,6507.6,5802.6z M6665.6,5850.6c127-220,234-408,237-416c6-14,1-15-36-7
		c-23,6-55,7-71,4c-40-9-88-52-109-99c-11-26-20-35-23-26c-3,8-53,195-111,415c-59,220-116,434-127,475c-32,117-32,118-10,85
		C6426.6,6265.6,6539.6,6071.6,6665.6,5850.6z M6287.6,6186.6c-15-58-52-193-80-300c-71-263-149-553-153-564c-1-4-15,11-31,34
		c-43,65-108,84-188,56c-21-8-38-11-38-8c0,8,513,893,516,890C6314.6,6292.6,6303.6,6244.6,6287.6,6186.6z M6342.6,5278.6
		c-3-3-18,6-33,21c-64,61-124,62-213,3l-27-17l29,108c69,253,90,333,165,613l79,295l3-509
		C6346.6,5512.6,6345.6,5281.6,6342.6,5278.6z M7707.6,6032.6c52-14,209-56,348-93c138-37,252-71,252-75s-6-8-14-8
		c-30,0-125-101-157-166c-36-73-49-172-30-238c6-22,9-41,8-42c-1-2-163,90-359,203l-357,206l-20,48c-40,91-23,149,56,199l43,27
		l67-18C7582.6,6065.6,7655.6,6046.6,7707.6,6032.6z M5277.6,6056.6c62-32,85-65,84-123c0-29-7-65-15-80c-11-22-99-77-378-237
		c-201-115-366-208-368-207c-1,2,2,21,8,43c17,59,6,162-24,227c-35,78-71,122-129,159l-49,32l43,12c24,7,156,42,293,79
		c138,37,295,79,350,94C5196.6,6085.6,5219.6,6085.6,5277.6,6056.6z M4451.6,5817.6c55-38,101-103,128-179c25-71,21-183-8-231
		c-14-24-90-72-321-205c-167-96-303-173-303-171c0,1,7,22,16,46c20,55,23,186,5,259c-33,137-143,288-234,320c-20,8-37,16-37,20
		c0,12,636,179,672,175C4389.6,5850.6,4426.6,5834.6,4451.6,5817.6z M8436.6,5837.6c36-10,145-40,241-66c96-25,216-58,267-72l92-25
		l-51-26c-103-51-205-184-244-317c-21-74-22-185-1-245c9-24,15-45,14-46c-1-2-137,75-302,171c-295,170-300,174-317,216
		c-47,121,12,310,120,382C8337.6,5864.6,8341.6,5864.6,8436.6,5837.6z M7755.6,5586.6l353-204l-56-17c-132-41-236-172-253-319l-7-61
		l-292,293c-283,285-292,294-298,340c-11,73,1,114,40,145c45,36,113,55,140,39C7393.6,5795.6,7561.6,5698.6,7755.6,5586.6z
		 M5462.6,5768.6c39-23,65-75,65-132v-45l-304-304l-303-303l-6,60c-6,67-42,156-83,205c-42,50-117,103-168,117c-26,7-43,17-39,21
		c5,5,164,99,353,209l345,200l55-5C5407.6,5788.6,5445.6,5777.6,5462.6,5768.6z M3737.6,5631.6c56-28,130-106,163-172
		c73-143,81-327,19-428c-14-22-95-74-310-198c-160-92-293-167-295-167c-3,0,4,17,14,38c90,180,4,510-176,681c-30,28-81,64-112,79
		c-32,14-51,28-43,30s155,41,325,87c211,57,320,82,340,78C3679.6,5656.6,3712.6,5643.6,3737.6,5631.6z M9180.6,5637.6
		c39-11,158-43,262-71c105-28,214-58,244-65c58-16,75-25,47-25c-10,0-45-14-78-32c-127-68-252-248-293-425c-23-98-17-239,13-306
		l22-49l-38,22c-20,12-143,83-272,157c-129,75-250,147-269,161c-38,28-59,72-71,146c-27,172,97,409,252,481
		C9063.6,5661.6,9086.6,5662.6,9180.6,5637.6z M7476.6,5272.6l303-303l-60-6c-66-5-151-40-207-83c-44-33-112-135-121-180
		c-3-19-9-34-13-34c-3,1-98,161-210,356l-204,355l6,51c12,96,66,148,157,148h45L7476.6,5272.6z M5696.6,5538.6c30-22,60-78,62-119
		c2-20-56-128-211-396l-213-369l-18,56c-40,131-171,235-317,253l-62,8l289,289c249,249,294,290,327,297
		C5608.6,5568.6,5666.6,5561.6,5696.6,5538.6z M3040.6,5438.6c42-18,76-44,123-95c173-187,233-489,131-658c-31-50-41-57-327-222
		c-162-93-301-171-307-174c-8-3-6,11,7,40c85,192,16,544-153,773c-65,88-140,145-235,178c-33,12-20,16,304,103c219,59,350,89,369,86
		C2969.6,5466.6,3008.6,5452.6,3040.6,5438.6z M9867.6,5452.6c30-8,141-38,245-66c105-28,224-60,265-71s81-22,89-24c7-3-20-22-60-42
		c-204-102-385-399-414-678c-8-76,8-176,38-237c18-36,20-45,7-38c-184,99-582,338-606,365c-127,143-62,486,129,683
		c60,61,101,89,160,108C9775.6,5469.6,9802.6,5469.6,9867.6,5452.6z M6886.6,5403.6l44-12l213-370c117-203,212-371,210-372
		c-1-1-20,2-42,8c-59,17-162,6-227-24c-78-35-122-71-159-128c-17-27-32-48-33-46c-2,1-19,65-40,142c-20,77-45,169-55,205
		s-27,101-39,145s-35,130-52,192l-30,112l21,48C6742.6,5405.6,6787.6,5429.6,6886.6,5403.6z M5957.6,5391.6c37-19,80-81,80-116
		c0-14-13-75-30-135c-53-195-67-246-120-444c-73-275-62-250-88-208c-34,54-107,117-169,144c-66,29-160,40-223,25c-24-5-45-9-46-8
		c-5,4,397,693,414,709c21,21,87,46,125,47C5915.6,5406.6,5941.6,5399.6,5957.6,5391.6z M4694.6,5331.6c66-30,134-99,170-173
		c23-46,28-70,28-129v-73l-250-250l-250-250l-6,87c-16,222-174,419-367,458l-52,11l297,172
		C4596.6,5375.6,4598.6,5376.6,4694.6,5331.6z M8451.6,5184.6c163-94,296-175,296-180c0-4-15-8-34-8c-18,0-66-16-107-37
		c-101-50-193-144-245-249c-36-72-39-85-39-161c0-46-2-83-5-83s-115,110-250,245l-245,245l1,74c0,59,6,84,28,129
		c35,73,103,142,169,172C8117.6,5377.6,8120.6,5376.6,8451.6,5184.6z M6250.6,5315.6c12-6,39-27,60-47l37-36v-430v-430l-37,36
		c-21,20-63,49-93,65c-50,25-65,28-160,28c-93,0-111-3-157-26c-29-14-53-24-53-22s36,140,81,306s89,334,100,374
		c28,105,34,118,71,147C6158.6,5325.6,6208.6,5336.6,6250.6,5315.6z M6597.6,5306.6c21-11,41-24,45-30c6-10,36-112,75-260
		c12-47,30-114,40-150s28-103,40-150s30-114,40-150s21-77,24-92l6-27l-47,24c-132,68-297,47-412-51l-41-36v412v411l30,45
		c17,24,43,50,58,58C6493.6,5331.6,6551.6,5329.6,6597.6,5306.6z M2249.6,5265.6c71-15,114-38,176-94c148-133,255-395,256-630
		c1-121-23-214-67-267c-12-15-179-117-371-228c-192-110-350-200-351-200s11,26,27,58c43,89,59,165,59,287c1,259-100,513-276,689
		c-85,86-157,134-246,165c-32,12-48,22-39,25c27,9,664,179,720,192c30,7,56,13,57,13C2195.6,5276.6,2220.6,5271.6,2249.6,5265.6z
		 M10935.6,5164.6c210-56,379-105,375-109c-5-3-31-14-59-23c-228-74-450-372-510-684c-29-154-10-341,46-451c11-23,18-41,16-41
		c-9,0-652,373-684,397c-74,56-120,193-106,322c33,323,300,685,509,691C10539.6,5266.6,10724.6,5221.6,10935.6,5164.6z
		 M1408.6,5040.6c132-39,256-128,351-253c61-80,140-240,169-341c29-104,37-318,15-413c-18-77-64-173-98-206c-21-20-698-415-698-407
		c0,2,11,28,25,59c97,211,63,550-84,852c-124,254-309,440-483,486c-27,7-48,16-48,19s179,53,398,112c218,58,397,107,398,107
		C1353.6,5056.6,1378.6,5049.6,1408.6,5040.6z M11637.6,4976.6c118-32,269-72,335-90c66-17,135-36,154-42l34-11l-61-23
		c-91-34-168-87-257-178c-218-222-357-552-358-856c-1-140,14-216,63-311l29-57l-257,148c-525,303-471,266-509,341
		c-88,174-82,424,13,653c106,251,322,456,511,485C11391.6,5043.6,11370.6,5048.6,11637.6,4976.6z M4108.6,4950.6
		c142-77,259-266,259-418c0-100-3-104-260-361l-240-240l7,67c13,148-54,319-179,453c-107,115-199,169-322,190c-38,6-36,7,255,176
		l294,170l66-4C4036.6,4980.6,4069.6,4971.6,4108.6,4950.6z M9101.6,4807.6l289-166l-51-7c-195-28-395-210-480-436
		c-20-53-25-86-26-160l-1-92l-237,237c-180,180-241,247-248,273c-35,127,28,292,156,409c86,78,204,127,279,114
		C8799.6,4976.6,8942.6,4899.6,9101.6,4807.6z M5052.6,4931.6c101-26,189-98,231-189c45-96,44-100-148-430c-165-286-187-316-188-250
		c0,35-66,155-115,211c-94,107-245,179-360,171c-30-1-55-1-55,2c0,13,487,489,505,493C4961.6,4948.6,4993.6,4946.6,5052.6,4931.6z
		 M8059.6,4689.6c136-136,248-250,248-253s-39-5-88-6c-70-1-99-6-150-27c-168-69-291-207-311-346l-6-45l-178,309l-178,309l11,45
		c26,104,93,186,188,232c64,31,99,39,161,34l55-4L8059.6,4689.6z M5630.6,4608.6c71-34,128-85,158-144c23-45,22-64-11-178
		c-10-36-41-153-70-260c-28-107-59-219-67-249l-15-54l-15,33c-43,104-169,210-302,255c-86,29-204,34-271,10c-24-8-44-14-46-13
		c-1,2,76,138,171,303l173,300l49,18C5453.6,4654.6,5550.6,4646.6,5630.6,4608.6z M7331.6,4628.6l49-17l174-303
		c96-167,173-305,171-307s-24,3-48,12c-56,19-177,21-250,4c-134-32-255-117-312-218c-17-30-32-53-33-51c-2,2-42,149-90,328
		c-56,212-85,335-81,353c9,42,61,113,110,146C7120.6,4644.6,7232.6,4663.6,7331.6,4628.6z M3462.6,4598.6c147-57,294-215,362-389
		c36-93,39-237,6-298c-12-22-129-147-260-277l-238-238l-1,103c0,90-4,114-36,205c-59,171-173,335-305,441c-80,64-152,98-238,113
		l-69,13l293,169c161,93,307,172,324,177C3340.6,4626.6,3410.6,4618.6,3462.6,4598.6z M9744.6,4436.6l302-175l-68-16
		c-141-33-266-111-393-249c-168-180-248-389-215-555c8-38-3-29-247,215l-254,255l-12,60c-19,88-2,177,56,294c39,79,62,110,133,181
		c123,123,223,172,341,167C9439.6,4610.6,9463.6,4598.6,9744.6,4436.6z M6712.6,4485.6c68-12,121-37,151-71c16-16,46-115,109-351
		c48-180,85-330,83-332c-2-3-20,6-40,20c-102,69-295,90-428,45c-81-27-150-70-189-118l-30-37l-1,352v353l36,40c42,46,122,88,191,100
		c26,4,51,8,54,9C6651.6,4495.6,6680.6,4491.6,6712.6,4485.6z M6165.6,4471.6c59-18,127-66,159-114c23-34,23-37,23-383v-349l-47,48
		c-98,100-222,148-378,146c-108-1-161-14-229-59l-39-26l5,23c7,34,136,511,159,591c21,71,45,94,128,124
		C5995.6,4490.6,6103.6,4489.6,6165.6,4471.6z M4657.6,4380.6c83-42,179-129,223-204c33-57,61-163,52-198c-3-15-81-157-173-316
		l-167-289l-7,51c-29,199-219,404-448,483c-48,17-88,23-153,23h-88l237,237c263,263,260,261,379,254
		C4567.6,4418.6,4598.6,4409.6,4657.6,4380.6z M8317.6,4405.6c29-9,91-65,276-250l238-238l-75,6c-266,19-578-217-632-477l-12-58
		l-167,291c-162,281-168,292-168,346C7777.6,4244.6,8098.6,4470.6,8317.6,4405.6z M2782.6,4231.6c206-54,424-296,506-565
		c32-102,32-236,1-296c-24-47-587-603-577-570c16,50,17,222,2,292c-79,371-398,690-732,732l-60,7l341,197
		C2655.6,4255.6,2668.6,4260.6,2782.6,4231.6z M10455.6,4024.6l352-203l-65-7c-169-17-317-91-463-232c-128-124-210-249-263-406
		c-29-84-32-108-33-210c-1-63,2-131,7-150c6-31-25-2-273,245c-320,319-335,339-334,460c0,43,8,97,22,140c90,292,436,591,658,570
		C10094.6,4228.6,10190.6,4177.6,10455.6,4024.6z M5278.6,4000.6c132-39,258-136,304-236c31-66,31-88,1-201c-94-351-128-476-137-504
		l-10-33l-35,70c-68,135-235,255-423,301c-109,27-242,24-314-9l-48-21l19,32c11,17,79,136,152,262c178,310,172,302,233,331
		C5083.6,4021.6,5194.6,4025.6,5278.6,4000.6z M7617.6,4005.6c122-19,125-22,310-344c91-158,167-291,169-297c2-5-14-1-35,10
		c-60,31-150,45-232,38c-85-7-233-54-310-98c-86-49-177-141-213-214c-18-36-33-63-34-62c-2,3-124,456-162,600c-13,52-13,62,2,108
		c32,96,153,200,279,240c32,10,93,22,151,29C7548.6,4015.6,7581.6,4011.6,7617.6,4005.6z M4063.6,3905.6c32-5,102-31,154-57
		c128-62,247-178,305-296c35-70,39-86,40-155v-76l-175-302l-175-302l-20,82c-31,127-90,222-215,347c-192,192-407,282-585,247
		c-38-8-30,1,200,233c132,133,252,248,267,256C3919.6,3913.6,3979.6,3920.6,4063.6,3905.6z M8853.6,3878.6c21-11,147-129,279-262
		l240-241l-70,6c-185,17-447-98-623-273c-105-105-163-211-180-330l-7-47l-174,300l-175,300l1,65c0,84,28,155,94,243
		c86,114,233,214,369,252C8681.6,3911.6,8801.6,3905.6,8853.6,3878.6z M2117.6,3772.6c199-69,391-250,500-471c67-136,94-249,87-375
		c-8-161,5-141-315-462c-157-158-287-286-289-285c-1,2,3,34,8,72c37,235-105,581-340,827c-176,185-350,283-543,305l-67,8l357,208
		l357,207l86-4C2015.6,3799.6,2070.6,3789.6,2117.6,3772.6z M6089.6,3776.6c84-26,184-92,223-148l30-44v-343v-342l-57,62
		c-158,173-490,235-708,134c-36-17-75-40-87-51c-34-31-41-68,77,372c79,294,82,300,175,346c28,13,71,29,95,34
		C5900.6,3809.6,6011.6,3800.6,6089.6,3776.6z M6901.6,3780.6c57-16,122-52,153-86c17-18,45-107,108-343c47-176,85-323,85-327
		c0-5-20,7-45,26c-74,57-206,96-326,96c-192,0-420-100-491-215c-18-29-18-24-18,314v344l25,43
		C6472.6,3768.6,6705.6,3836.6,6901.6,3780.6z M11206.6,3590.6l343-199l-53-8c-360-55-719-392-861-810c-28-82-32-105-32-212
		c-1-66,3-138,7-160c8-38-6-25-286,254c-218,217-297,303-306,330c-21,61-25,217-8,297c35,162,126,323,261,462
		c165,170,345,256,516,249l75-4L11206.6,3590.6z M4981.6,3376.6c121-31,229-92,317-179c79-79,119-153,119-221c0-15-32-147-71-292
		s-77-290-86-323c-20-78-27-84-43-36c-19,58-106,168-180,228c-189,152-462,244-637,213c-37-6-89-22-115-34s-46-20-44-17
		c97,172,343,591,354,605C4659.6,3391.6,4828.6,3416.6,4981.6,3376.6z M8028.6,3366.6c30-11,66-31,80-43c21-17,369-604,369-622
		c0-2-20,5-44,16c-24,10-78,24-120,31c-234,36-590-92-745-268c-42-48-91-139-91-170c0-10-2-15-4-13c-3,2-46,157-96,343
		c-87,322-91,342-80,385c50,201,344,381,601,366C7941.6,3389.6,7998.6,3378.6,8028.6,3366.6z M3592.6,3364.6c122-31,278-131,393-253
		c126-134,194-268,196-385v-65l-204-352l-205-352l-7,72c-18,173-108,338-264,487c-122,116-254,195-404,241c-59,19-99,24-185,24
		c-60,0-126-3-145-8c-31-6-3,25,240,268c151,152,294,288,317,301C3393.6,3383.6,3486.6,3391.6,3592.6,3364.6z M9383.6,3342.6
		c28-11,118-96,319-301c154-158,271-283,260-280c-52,17-224,17-296,1c-180-40-361-144-499-285c-130-134-214-295-227-439
		c-3-35-9-59-13-55c-27,28-386,667-398,706c-40,138,56,326,242,473c119,94,266,166,397,194
		C9227.6,3368.6,9335.6,3361.6,9383.6,3342.6z M6000.6,3100.6c95-24,186-72,245-128c95-90,92-73,92-483v-357l-30,41
		c-64,87-227,182-387,224c-111,30-325,37-424,15c-77-17-154-55-201-99c-16-15-28-24-28-21c0,2,40,156,90,341c87,327,91,338,127,375
		C5587.6,3113.6,5801.6,3151.6,6000.6,3100.6z M7048.6,3102.6c101-31,195-98,218-154c6-15,47-164,91-332c45-168,84-313,86-323
		c4-12-11-6-52,23c-106,74-308,119-474,106c-249-21-440-106-521-235l-29-45v354c0,405-1,399,89,483c73,68,172,112,309,137
		C6828.6,3128.6,6991.6,3120.6,7048.6,3102.6z M3035.6,2750.6c172-35,341-133,483-281c95-99,157-195,197-305c21-59,26-91,26-168
		l1-95l-200-343l-200-344l-8,54c-15,97-59,219-111,304c-165,271-460,494-753,570c-84,22-113,25-203,21c-58-3-116-9-130-12
		c-16-5,83,101,269,288c305,306,297,300,396,321C2849.6,2769.6,2964.6,2765.6,3035.6,2750.6z M4657.6,2725.6c96-25,257-103,341-167
		c127-96,219-230,219-316c0-23-22-122-49-221c-26-99-72-268-100-375c-29-107-54-199-55-205c-1-5-11,16-21,48
		c-38,122-129,241-258,338c-265,201-634,266-874,154c-29-13-53-22-53-20c0,11,394,683,411,701c32,34,112,73,170,83
		C4457.6,2757.6,4561.6,2749.6,4657.6,2725.6z M9972.6,2736.6c32-9,95-66,327-298c158-157,286-287,285-289c-2-1-34,3-72,8
		c-140,22-329-21-516-118c-139-72-255-160-370-281c-150-159-229-311-246-474l-8-77l-207,359l-208,359v63c0,308,318,655,686,748
		C9731.6,2758.6,9899.6,2758.6,9972.6,2736.6z M8386.6,2710.6c106-31,107-34,328-415c112-194,203-354,203-355c0-2-15,5-33,16
		c-272,161-773,48-1033-233c-59-64-144-207-144-243c0-54-28,33-115,359c-111,412-114,438-72,530
		C7632.6,2614.6,8097.6,2798.6,8386.6,2710.6z M5930.6,2372.6c178-53,307-133,371-228l36-53v-413v-414l-43,58
		c-102,138-247,228-458,286c-72,20-108,23-254,23c-132,0-184-4-234-18c-96-26-178-66-250-120c-37-28-61-41-57-31s49,178,101,373
		c52,196,100,367,106,380c21,50,70,99,127,129c100,53,149,62,317,58C5818.6,2399.6,5856.6,2394.6,5930.6,2372.6z M7200.6,2377.6
		c116-30,227-95,257-151c5-9,54-187,110-396c55-208,103-385,105-392c3-8-17,6-44,30c-63,57-166,111-266,140c-70,20-102,23-255,23
		c-151,0-187-3-260-23c-185-49-364-165-446-286l-34-51v401c0,469-1,465,89,555c87,86,223,145,394,169
		C6939.6,2409.6,7112.6,2399.6,7200.6,2377.6z M4295.6,2001.6c159-30,315-101,441-201c96-76,161-154,207-249c64-133,65-125-37-505
		c-50-184-97-359-106-389l-15-54l-19,53c-31,89-79,159-174,255c-134,136-303,238-501,304c-146,49-227,63-364,64
		c-141,1-213-14-309-63l-60-30l146,253c80,138,174,303,210,365c63,109,67,114,125,143C3970.6,2013.6,4131.6,2032.6,4295.6,2001.6z
		 M8735.6,1990.6c76-17,168-62,203-101c23-25,413-693,405-693c-2,0-28,11-59,25c-259,119-710,37-1034-187c-109-75-223-201-272-299
		c-23-45-41-90-41-100c0-66-28,19-120,364c-58,216-104,407-102,425c6,86,90,230,188,323c78,73,136,112,247,164
		C8348.6,2005.6,8547.6,2032.6,8735.6,1990.6z M5832.6,1589.6c92-26,182-63,253-104c77-45,193-162,226-226l26-52v-407v-407l-26,39
		c-120,180-399,323-711,365c-126,17-357,7-457-20c-111-29-215-82-282-143c-47-43-55-48-49-28c4,14,54,198,111,408
		c113,426,105,407,216,483c71,49,131,75,228,100C5469.6,1622.6,5726.6,1618.6,5832.6,1589.6z M7347.6,1591.6c113-30,208-82,280-155
		l65-65l99-375c54-206,101-381,104-389s-17,4-44,26c-151,125-359,180-638,170c-218-8-380-47-546-133c-128-66-213-143-287-260
		c-9-15-12,72-12,402l-1,421l38,59c99,151,268,256,492,305C7006.6,1621.6,7247.6,1618.6,7347.6,1591.6z"/>
</g>
</svg>
