<?xml version="1.0" encoding="utf-8"?>
<!-- Generator: Adobe Illustrator 26.0.1, SVG Export Plug-In . SVG Version: 6.00 Build 0)  -->
<svg version="1.1" id="Шар_1" xmlns="http://www.w3.org/2000/svg" xmlns:xlink="http://www.w3.org/1999/xlink" x="0px" y="0px"
	 viewBox="0 0 50 50" style="enable-background:new 0 0 50 50;" xml:space="preserve">
<style type="text/css">
	.st0{fill:#FFFFFF;}
</style>
<rect x="10.54" y="4.1" transform="matrix(0.9967 -0.0814 0.0814 0.9967 -0.2979 1.8896)" class="st0" width="25" height="1"/>
<rect x="10.78" y="7.09" transform="matrix(0.9967 -0.0814 0.0814 0.9967 -0.5404 1.9194)" class="st0" width="25" height="1"/>
<rect x="11.03" y="10.08" transform="matrix(0.9967 -0.0814 0.0814 0.9967 -0.7829 1.9491)" class="st0" width="25" height="1"/>
<rect x="12.98" y="34" transform="matrix(0.9967 -0.0814 0.0814 0.9967 -2.7226 2.1873)" class="st0" width="25" height="1"/>
<rect x="13.22" y="36.99" transform="matrix(0.9967 -0.0814 0.0814 0.9967 -2.9651 2.2171)" class="st0" width="25" height="1"/>
<rect x="13.47" y="39.98" transform="matrix(0.9967 -0.0814 0.0814 0.9967 -3.2075 2.2469)" class="st0" width="25" height="1"/>
<rect x="13.71" y="42.97" transform="matrix(0.9967 -0.0814 0.0814 0.9967 -3.45 2.2766)" class="st0" width="25" height="1"/>
<rect x="10.29" y="1.11" transform="matrix(0.9967 -0.0814 0.0814 0.9967 -0.0554 1.8598)" class="st0" width="25" height="1"/>
<rect x="0.27" y="13.03" transform="matrix(0.9967 -0.0814 0.0814 0.9967 -1.0204 2.0193)" class="st0" width="48" height="1"/>
<rect x="0.51" y="16.02" transform="matrix(0.9967 -0.0814 0.0814 0.9967 -1.2628 2.0491)" class="st0" width="48" height="1"/>
<rect x="0.76" y="19.01" transform="matrix(0.9967 -0.0814 0.0814 0.9967 -1.5053 2.0789)" class="st0" width="48" height="1"/>
<rect x="1" y="22" transform="matrix(0.9967 -0.0814 0.0814 0.9967 -1.7478 2.1086)" class="st0" width="48" height="1"/>
<rect x="1.24" y="24.99" transform="matrix(0.9967 -0.0814 0.0814 0.9967 -1.9902 2.1384)" class="st0" width="48" height="1"/>
<rect x="1.49" y="27.98" transform="matrix(0.9967 -0.0814 0.0814 0.9967 -2.2327 2.1682)" class="st0" width="48" height="1"/>
<rect x="1.73" y="30.97" transform="matrix(0.9967 -0.0814 0.0814 0.9967 -2.4752 2.198)" class="st0" width="48" height="1"/>
</svg>
