<?xml version="1.0" encoding="utf-8"?>
<!-- Generator: Adobe Illustrator 26.0.1, SVG Export Plug-In . SVG Version: 6.00 Build 0)  -->
<svg version="1.1" id="Шар_1" xmlns="http://www.w3.org/2000/svg" xmlns:xlink="http://www.w3.org/1999/xlink" x="0px" y="0px"
	 viewBox="0 0 400 100" style="enable-background:new 0 0 400 100;" xml:space="preserve">
<style type="text/css">
	.st0{fill:#FFFFFF;}
</style>
<g>
	<ellipse class="st0" cx="17.5" cy="10.52" rx="4.94" ry="5.32"/>
</g>
<g>
	<ellipse class="st0" cx="51.68" cy="10.52" rx="4.94" ry="5.32"/>
</g>
<g>
	<ellipse class="st0" cx="85.86" cy="10.52" rx="4.94" ry="5.32"/>
</g>
<g>
	<ellipse class="st0" cx="113.21" cy="10.52" rx="4.94" ry="5.32"/>
</g>
<g>
	<ellipse class="st0" cx="140.56" cy="10.52" rx="4.94" ry="5.32"/>
</g>
<g>
	<ellipse class="st0" cx="17.5" cy="30.98" rx="4.94" ry="5.32"/>
</g>
<g>
	<ellipse class="st0" cx="51.68" cy="30.98" rx="4.94" ry="5.32"/>
</g>
<g>
	<ellipse class="st0" cx="85.86" cy="30.98" rx="4.94" ry="5.32"/>
</g>
<g>
	<ellipse class="st0" cx="113.21" cy="30.98" rx="4.94" ry="5.32"/>
</g>
<g>
	<ellipse class="st0" cx="85.86" cy="89.89" rx="4.94" ry="5.32"/>
</g>
<g>
	<ellipse class="st0" cx="113.21" cy="89.89" rx="4.94" ry="5.32"/>
</g>
<g>
	<ellipse class="st0" cx="140.56" cy="30.98" rx="4.94" ry="5.32"/>
</g>
<g>
	<ellipse class="st0" cx="172.46" cy="30.98" rx="4.94" ry="5.32"/>
</g>
<g>
	<ellipse class="st0" cx="206.64" cy="30.98" rx="4.94" ry="5.32"/>
</g>
<g>
	<ellipse class="st0" cx="240.83" cy="30.98" rx="4.94" ry="5.32"/>
</g>
<g>
	<ellipse class="st0" cx="268.17" cy="30.98" rx="4.94" ry="5.32"/>
</g>
<g>
	<ellipse class="st0" cx="295.52" cy="30.98" rx="4.94" ry="5.32"/>
</g>
<g>
	<ellipse class="st0" cx="323.62" cy="30.98" rx="4.94" ry="5.32"/>
</g>
<g>
	<ellipse class="st0" cx="140.56" cy="51.43" rx="4.94" ry="5.32"/>
</g>
<g>
	<ellipse class="st0" cx="172.46" cy="51.43" rx="4.94" ry="5.32"/>
</g>
<g>
	<ellipse class="st0" cx="206.64" cy="51.43" rx="4.94" ry="5.32"/>
</g>
<g>
	<ellipse class="st0" cx="240.83" cy="51.43" rx="4.94" ry="5.32"/>
</g>
<g>
	<ellipse class="st0" cx="268.17" cy="51.43" rx="4.94" ry="5.32"/>
</g>
<g>
	<ellipse class="st0" cx="295.52" cy="51.43" rx="4.94" ry="5.32"/>
</g>
<g>
	<ellipse class="st0" cx="323.62" cy="51.43" rx="4.94" ry="5.32"/>
</g>
<g>
	<ellipse class="st0" cx="140.56" cy="71.89" rx="4.94" ry="5.32"/>
</g>
<g>
	<ellipse class="st0" cx="172.46" cy="71.89" rx="4.94" ry="5.32"/>
</g>
<g>
	<ellipse class="st0" cx="206.64" cy="71.89" rx="4.94" ry="5.32"/>
</g>
<g>
	<ellipse class="st0" cx="240.83" cy="71.89" rx="4.94" ry="5.32"/>
</g>
<g>
	<ellipse class="st0" cx="268.17" cy="71.89" rx="4.94" ry="5.32"/>
</g>
<g>
	<ellipse class="st0" cx="140.56" cy="89.89" rx="4.94" ry="5.32"/>
</g>
<g>
	<ellipse class="st0" cx="172.46" cy="89.89" rx="4.94" ry="5.32"/>
</g>
<g>
	<ellipse class="st0" cx="206.64" cy="89.89" rx="4.94" ry="5.32"/>
</g>
<g>
	<ellipse class="st0" cx="240.83" cy="89.89" rx="4.94" ry="5.32"/>
</g>
<g>
	<ellipse class="st0" cx="268.17" cy="89.89" rx="4.94" ry="5.32"/>
</g>
</svg>
