<?xml version="1.0" encoding="utf-8"?>
<!-- Generator: Adobe Illustrator 26.0.1, SVG Export Plug-In . SVG Version: 6.00 Build 0)  -->
<svg version="1.1" id="Шар_1" xmlns="http://www.w3.org/2000/svg" xmlns:xlink="http://www.w3.org/1999/xlink" x="0px" y="0px"
	 viewBox="0 0 1000 100" style="enable-background:new 0 0 1000 100;" xml:space="preserve">
<style type="text/css">
	.st0{fill:#FFFFFF;}
</style>
<g>
	<rect x="9.4" y="47.9" transform="matrix(0.5766 -0.8171 0.8171 0.5766 -20.7382 61.4301)" class="st0" width="79" height="5.7"/>
</g>
<g>
	<rect x="37.4" y="47.9" transform="matrix(0.5766 -0.8171 0.8171 0.5766 -8.8805 84.3077)" class="st0" width="79" height="5.7"/>
</g>
<g>
	<rect x="65.4" y="47.9" transform="matrix(0.5766 -0.8171 0.8171 0.5766 2.9772 107.1853)" class="st0" width="79" height="5.7"/>
</g>
<g>
	<rect x="92.4" y="47.9" transform="matrix(0.5766 -0.8171 0.8171 0.5766 14.4114 129.2458)" class="st0" width="79" height="5.7"/>
</g>
<g>
	
		<rect x="121.4" y="47.9" transform="matrix(0.5766 -0.8171 0.8171 0.5766 26.6925 152.9405)" class="st0" width="79" height="5.7"/>
</g>
<g>
	
		<rect x="156.4" y="47.9" transform="matrix(0.5766 -0.8171 0.8171 0.5766 41.5147 181.5376)" class="st0" width="79" height="5.7"/>
</g>
<g>
	
		<rect x="190.4" y="47.9" transform="matrix(0.5766 -0.8171 0.8171 0.5766 55.9133 209.3176)" class="st0" width="79" height="5.7"/>
</g>
<g>
	
		<rect x="221.4" y="47.9" transform="matrix(0.5766 -0.8171 0.8171 0.5766 69.0414 234.6463)" class="st0" width="79" height="5.7"/>
</g>
<g>
	
		<rect x="255.4" y="47.9" transform="matrix(0.5766 -0.8171 0.8171 0.5766 83.4401 262.4263)" class="st0" width="79" height="5.7"/>
</g>
<g>
	
		<rect x="287.4" y="46.9" transform="matrix(0.5766 -0.8171 0.8171 0.5766 97.8089 288.1487)" class="st0" width="79" height="5.7"/>
</g>
<g>
	
		<rect x="322.4" y="47.9" transform="matrix(0.5766 -0.8171 0.8171 0.5766 111.8139 317.1693)" class="st0" width="79" height="5.7"/>
</g>
<g>
	<rect x="361.4" y="47.9" transform="matrix(0.5766 -0.8171 0.8171 0.5766 128.33 349.0345)" class="st0" width="79" height="5.7"/>
</g>
<g>
	
		<rect x="404.4" y="47.9" transform="matrix(0.5766 -0.8171 0.8171 0.5766 146.5401 384.168)" class="st0" width="79" height="5.7"/>
</g>
<g>
	
		<rect x="442.4" y="47.9" transform="matrix(0.5766 -0.8171 0.8171 0.5766 162.6327 415.2162)" class="st0" width="79" height="5.7"/>
</g>
<g>
	
		<rect x="479.4" y="49.9" transform="matrix(0.5766 -0.8171 0.8171 0.5766 176.6419 446.2909)" class="st0" width="79" height="5.7"/>
</g>
<g>
	
		<rect x="507.4" y="49.9" transform="matrix(0.5766 -0.8171 0.8171 0.5766 188.4996 469.1685)" class="st0" width="79" height="5.7"/>
</g>
<g>
	
		<rect x="535.4" y="49.9" transform="matrix(0.5766 -0.8171 0.8171 0.5766 200.3573 492.0461)" class="st0" width="79" height="5.7"/>
</g>
<g>
	
		<rect x="562.4" y="49.9" transform="matrix(0.5766 -0.8171 0.8171 0.5766 211.7915 514.1067)" class="st0" width="79" height="5.7"/>
</g>
<g>
	
		<rect x="591.4" y="49.9" transform="matrix(0.5766 -0.8171 0.8171 0.5766 224.0727 537.8014)" class="st0" width="79" height="5.7"/>
</g>
<g>
	
		<rect x="626.4" y="49.9" transform="matrix(0.5766 -0.8171 0.8171 0.5766 238.8949 566.3984)" class="st0" width="79" height="5.7"/>
</g>
<g>
	
		<rect x="660.4" y="49.9" transform="matrix(0.5766 -0.8171 0.8171 0.5766 253.2935 594.1784)" class="st0" width="79" height="5.7"/>
</g>
<g>
	
		<rect x="691.4" y="49.9" transform="matrix(0.5766 -0.8171 0.8171 0.5766 266.4216 619.5072)" class="st0" width="79" height="5.7"/>
</g>
<g>
	
		<rect x="725.4" y="49.9" transform="matrix(0.5766 -0.8171 0.8171 0.5766 280.8203 647.2872)" class="st0" width="79" height="5.7"/>
</g>
<g>
	
		<rect x="757.4" y="48.9" transform="matrix(0.5766 -0.8171 0.8171 0.5766 295.189 673.0096)" class="st0" width="79" height="5.7"/>
</g>
<g>
	
		<rect x="792.4" y="49.9" transform="matrix(0.5766 -0.8171 0.8171 0.5766 309.1941 702.0301)" class="st0" width="79" height="5.7"/>
</g>
<g>
	
		<rect x="831.4" y="49.9" transform="matrix(0.5766 -0.8171 0.8171 0.5766 325.7101 733.8953)" class="st0" width="79" height="5.7"/>
</g>
<g>
	
		<rect x="874.4" y="49.9" transform="matrix(0.5766 -0.8171 0.8171 0.5766 343.9202 769.0288)" class="st0" width="79" height="5.7"/>
</g>
<g>
	
		<rect x="912.4" y="49.9" transform="matrix(0.5766 -0.8171 0.8171 0.5766 360.0128 800.077)" class="st0" width="79" height="5.7"/>
</g>
</svg>
