<svg width="39" height="40" viewBox="0 0 39 40" fill="none" xmlns="http://www.w3.org/2000/svg">
<path d="M18.5649 0H20.8531C21.7248 0 22.5965 0.218801 23.4682 0.328201C31.9671 2.18801 38.1778 9.29904 38.9406 17.9417C39.7033 28.0065 33.0567 36.7586 22.9234 38.8372C13.4438 40.9158 3.74629 35.0082 0.804353 25.5997C-0.503174 21.5519 0.15059 16.4101 0.25955 16.0819C1.56708 9.51784 5.27174 4.70422 11.2646 1.85981C12.4631 1.31281 13.7707 0.875204 15.0782 0.547002C16.0588 0.218801 17.3664 0 18.5649 0ZM30.4416 12.7999C28.9162 13.3469 27.7176 13.1281 26.3011 12.3623C23.3592 10.94 19.9814 12.9093 19.6545 16.1913C19.6545 16.6289 19.5456 17.0665 19.5456 17.5041C15.623 17.3947 12.79 15.4255 10.175 12.7999C9.08536 15.2067 9.63016 16.9571 11.2646 18.8169C10.6108 18.7075 10.175 18.5981 9.63016 18.5981C9.5212 20.8955 11.0466 21.9895 12.6811 23.0835C12.1363 23.1929 11.8094 23.1929 11.2646 23.3023C11.9183 25.1621 13.3348 26.0373 15.0782 26.4749C15.0782 26.6937 15.0782 26.6937 15.0782 26.9125L9.19432 28.6629C9.41224 28.7723 9.63016 28.9911 9.95704 29.2099C17.6932 33.0389 27.1728 28.2253 28.6983 19.6921C29.0252 17.8323 29.1341 15.9725 30.8775 14.6597C30.8775 14.6597 30.8775 14.4409 30.8775 14.3315C30.4416 14.4409 29.8968 14.4409 29.352 14.5503C29.7879 13.8939 30.1148 13.3469 30.4416 12.7999Z" fill="#333333"/>
</svg>
