<svg width="39" height="40" viewBox="0 0 39 40" fill="none" xmlns="http://www.w3.org/2000/svg">
<path d="M14.0495 38.5882C5.62654 36.0962 0.227208 28.945 0.0112344 20.1686C-0.420712 7.27494 11.6738 -2.4766 24.0922 0.55721C33.1631 2.72422 39.2104 11.609 38.9944 19.5185C38.7784 26.453 36.2947 31.8705 30.7874 35.6628C28.5197 37.288 23.0124 40.6469 14.0495 38.5882ZM15.1294 27.5365C15.6693 27.4281 16.3172 27.3198 16.7492 26.9947C17.721 26.453 18.5849 25.8029 19.4488 25.1528C20.8526 26.2363 22.1485 27.2114 23.5523 28.2949C24.8482 29.2701 25.6041 29.0534 26.036 27.4281C27.2239 22.0106 28.3037 16.5931 29.3836 11.1756C29.5996 10.0921 29.2756 9.44195 27.9798 9.87535C21.3926 12.4758 14.9134 14.9678 8.3262 17.5682C8.00224 17.6766 7.67828 18.11 7.46231 18.435C7.78627 18.7601 8.11023 19.1935 8.54218 19.4102C10.054 19.9519 11.5658 20.4937 13.0776 20.9271C13.7255 23.2025 14.3735 25.3695 15.1294 27.5365Z" fill="url(#paint0_linear)"/>
<path d="M12.9696 21.1438C16.9651 18.6517 20.9606 16.1597 24.9561 13.6676C25.0641 13.776 25.1721 13.8843 25.2801 13.9927C24.7401 14.6428 24.0922 15.1845 23.5523 15.8346C21.3926 17.7849 19.1248 19.7352 16.9651 21.7939C16.6411 22.0106 16.6411 22.5523 16.4252 22.9857C16.2092 23.5275 15.8852 24.0693 15.7773 24.611C15.5613 25.5862 15.3453 26.6697 15.1293 27.6448C14.3734 25.3695 13.7255 23.2024 12.9696 21.1438Z" fill="url(#paint1_linear)"/>
<path d="M15.1294 27.5365C15.3454 26.5614 15.5613 25.4779 15.7773 24.5027C15.8853 23.9609 16.2093 23.4192 16.4252 22.8774C17.3971 23.6359 18.477 24.5027 19.4489 25.2612C18.585 25.9113 17.7211 26.5614 16.7492 27.1031C16.3172 27.3198 15.6693 27.4282 15.1294 27.5365Z" fill="url(#paint2_linear)"/>
<defs>
<linearGradient id="paint0_linear" x1="19.4897" y1="-0.386414" x2="19.4897" y2="39.2543" gradientUnits="userSpaceOnUse">
<stop offset="0.00446911" stop-color="#FFD600"/>
<stop offset="1" stop-color="#ED6B1D"/>
</linearGradient>
<linearGradient id="paint1_linear" x1="19.128" y1="-0.386432" x2="19.128" y2="39.2542" gradientUnits="userSpaceOnUse">
<stop offset="0.00446911" stop-color="#FFD600"/>
<stop offset="1" stop-color="#E8F6FE"/>
</linearGradient>
<linearGradient id="paint2_linear" x1="17.2859" y1="-0.386374" x2="17.2859" y2="39.2543" gradientUnits="userSpaceOnUse">
<stop offset="0.00446911" stop-color="#FFD600"/>
<stop offset="1" stop-color="#BBC8CC"/>
</linearGradient>
</defs>
</svg>
