<svg width="39" height="40" viewBox="0 0 39 40" fill="none" xmlns="http://www.w3.org/2000/svg">
<path d="M22.0227 0.201745C11.9142 -1.32509 2.13177 5.98191 0.283985 16.4516C-0.259482 20.2687 -0.259482 23.6496 2.45785 28.8844C6.26212 36.3005 14.8489 40.5538 22.8922 39.027C31.479 37.3911 38.0006 30.5203 38.8701 22.1227C40.0658 11.1077 32.892 1.83764 22.0227 0.201745ZM31.2616 24.8492C30.9355 28.8844 27.6747 31.8291 23.6531 31.9381C21.0444 32.0472 18.5445 32.0472 15.9358 31.9381C11.0446 31.8291 7.89252 28.5573 7.78383 23.6496C7.78383 22.2318 7.78383 20.814 7.78383 19.5053C7.78383 19.5053 7.67514 15.4701 8.10991 13.507C8.87076 9.799 11.8055 7.6178 15.5011 7.50874C18.001 7.39968 20.3923 7.39968 22.8922 7.39968C27.8921 7.39968 31.0442 10.2352 31.3703 15.1429C31.5877 18.4147 31.479 21.6865 31.2616 24.8492Z" fill="#333333"/>
<path d="M24.0878 9.47188C21.0443 9.25376 18.1096 9.25376 15.0662 9.47188C11.8054 9.69 9.74023 12.1984 9.74023 15.4702C9.74023 16.8879 9.74023 18.3057 9.74023 19.6144C9.74023 20.9231 9.74023 22.2319 9.74023 23.4315C9.74023 27.1395 12.0228 29.6479 15.7184 29.757C18.4357 29.866 21.153 29.866 23.8704 29.6479C27.1312 29.4298 29.4137 27.0305 29.4137 23.8678C29.5224 20.9231 29.5224 18.0876 29.4137 15.143C29.4137 12.0893 27.2399 9.69 24.0878 9.47188ZM19.5226 25.7218C16.1531 25.7218 13.4358 22.8862 13.4358 19.6144C13.4358 16.3426 16.2618 13.5071 19.5226 13.5071C23.0008 13.5071 25.7182 16.2336 25.6095 19.7235C25.6095 23.1043 22.8921 25.7218 19.5226 25.7218ZM25.7182 14.8158C25.2834 14.3796 24.6312 13.8343 24.5225 13.289C24.5225 12.7437 25.1747 12.3074 25.8269 11.3259C26.479 12.1984 27.2399 12.8527 27.1312 13.289C26.9138 13.9433 26.1529 14.2705 25.7182 14.8158Z" fill="#333333"/>
<path d="M19.6314 15.5792C17.2402 15.5792 15.5011 17.3241 15.5011 19.6144C15.5011 21.9046 17.3489 23.7586 19.6314 23.7586C21.914 23.7586 23.7618 21.9046 23.8705 19.6144C23.7618 17.3241 21.914 15.5792 19.6314 15.5792Z" fill="#333333"/>
</svg>
