<?xml version="1.0" encoding="utf-8"?>
<!-- Generator: Adobe Illustrator 26.0.1, SVG Export Plug-In . SVG Version: 6.00 Build 0)  -->
<svg version="1.1" id="Шар_1" xmlns="http://www.w3.org/2000/svg" xmlns:xlink="http://www.w3.org/1999/xlink" x="0px" y="0px"
	 viewBox="0 0 181 31" style="enable-background:new 0 0 181 31;" xml:space="preserve">
<style type="text/css">
	.st0{fill:#FFFFFF;}
</style>
<path class="st0" d="M26.6,18.5c-0.5,0.3-1.2,0.4-1.7,0.1c-0.6-0.4-1-1.2-1-2.3V13c0-1.6-0.6-2.8-1.7-3.1c-1.8-0.5-3.2,1.7-3.7,2.6
	l-3.2,5.2v-6.4c0-1.5-0.5-2.3-1.4-2.6c-0.6-0.2-1.5-0.1-2.4,1.2L4.2,21.4c-1-1.8-1.5-3.9-1.5-5.9c0-7,5.6-12.7,12.5-12.7
	c6.9,0,12.5,5.7,12.5,12.7v0v0C27.8,16.9,27.4,18,26.6,18.5z M30.5,15.5L30.5,15.5L30.5,15.5C30.5,6.9,23.6,0,15.3,0
	C6.8,0,0,6.9,0,15.5C0,24,6.8,31,15.3,31c3.9,0,7.5-1.5,10.4-4.1c0.6-0.5,0.6-1.4,0.1-2c-0.5-0.6-1.4-0.6-2-0.1c0,0,0,0,0,0
	c-2.3,2.2-5.3,3.4-8.5,3.4c-3.7,0-7-1.6-9.3-4.2l6.5-10.5v4.8c0,2.3,0.9,3.1,1.7,3.3c0.8,0.2,1.9,0.1,3.1-1.9l3.6-5.8
	c0.1-0.2,0.2-0.4,0.3-0.5v2.9c0,2.2,0.9,3.9,2.4,4.7c1.4,0.8,3.1,0.7,4.5-0.2C29.7,19.9,30.6,17.9,30.5,15.5z M51.8,10.2
	c0.4,0.2,0.7,0.7,0.7,1.2c0,0.7-0.6,1.3-1.3,1.3c-0.2,0-0.3-0.1-0.5-0.1c-0.8-0.6-1.8-1-2.9-1c-2.6,0-4.3,2.1-4.3,4.7
	s1.8,4.6,4.3,4.6c1.3,0,2.4-0.5,3.2-1.3c0.2-0.2,0.5-0.2,0.8-0.2c0.7,0,1.2,0.5,1.2,1.2c0,0.5-0.3,0.8-0.6,1.1
	c-1.2,1.1-2.9,1.7-4.6,1.7c-3.9,0-7.1-3.2-7.1-7.2S43.9,9,47.8,9C49.3,9,50.6,9.4,51.8,10.2z M58.9,13.2c2.7,0,4.9,2.3,4.9,5
	c0,2.8-2.3,5.1-4.9,5.1c-2.8,0-5.1-2.3-5.1-5.1S56.1,13.2,58.9,13.2z M58.9,20.9c1.2,0,2.2-1.1,2.2-2.6s-1-2.5-2.2-2.5
	c-1.3,0-2.3,0.9-2.3,2.5C56.6,19.8,57.6,20.9,58.9,20.9z M65.5,21.8v-7.1c0-0.8,0.6-1.4,1.4-1.4c0.8,0,1.4,0.6,1.4,1.4v7.1
	c0,0.8-0.6,1.4-1.4,1.4S65.5,22.6,65.5,21.8z M65.3,10.7C65.3,9.7,66,9,66.9,9c0.9,0,1.6,0.8,1.6,1.7c0,0.9-0.7,1.6-1.6,1.6
	C66,12.3,65.3,11.5,65.3,10.7z M73.6,18v3.8c0,0.8-0.6,1.4-1.4,1.4c-0.8,0-1.4-0.6-1.4-1.4v-7.4c0-0.6,0.5-1.1,1.1-1.1
	c0.6,0,1.1,0.5,1.1,1.1c1.1-1.1,2.1-1.2,3-1.2c2.8,0,4,2.1,4,4.4v4.2c0,0.8-0.6,1.4-1.4,1.4c-0.8,0-1.4-0.6-1.4-1.4V18
	c0-1.2-0.2-2.2-1.9-2.2C74.1,15.8,73.6,16.8,73.6,18z M88.9,19.5c-0.3,0-0.5-0.2-0.7-0.4L85,15.6v6.2c0,0.8-0.6,1.4-1.4,1.4
	c-0.8,0-1.4-0.6-1.4-1.4V9.5c0.1-0.2,0.3-0.4,0.5-0.4c0.2,0,0.5,0.2,0.6,0.4l5.1,5.8c0.2,0.2,0.3,0.3,0.5,0.3c0.1,0,0.3-0.1,0.5-0.3
	l5.1-5.8c0.2-0.2,0.3-0.4,0.6-0.4c0.2,0,0.5,0.2,0.5,0.4v12.3c0,0.8-0.6,1.4-1.4,1.4c-0.8,0-1.4-0.6-1.4-1.4v-6.2l-3.2,3.5
	C89.4,19.3,89.2,19.5,88.9,19.5z M102.2,20.9c1.2,0,2.3-1.1,2.3-2.6s-1.1-2.5-2.3-2.5c-1.2,0-2.2,1-2.2,2.5
	C100,19.7,101,20.9,102.2,20.9z M105.1,22.2l-0.1-0.3c-0.5,1.1-2.3,1.5-3.3,1.5c-2.6,0-4.5-2.3-4.5-5.1c0-2.8,2-5,4.7-5
	c0.5,0,2,0.1,3.2,1.5l0.1-0.3c0-0.6,0.4-1.1,1.1-1.1c0.6,0,1.1,0.5,1.1,1.1v7.7c0,0.6-0.5,1.1-1.1,1.1
	C105.6,23.2,105.1,22.7,105.1,22.2z M114.9,15.8h-0.3c-1.7,0.1-2.1,1.1-2.1,2.2v3.8c0,0.8-0.6,1.4-1.4,1.4s-1.4-0.6-1.4-1.4v-7.4
	c0-0.6,0.5-1.1,1.1-1.1c0.6,0,1.1,0.5,1.1,1.1c1-1,1.9-1.2,2.7-1.2h0.3c0.7,0,1.3,0.6,1.3,1.3C116.2,15.2,115.6,15.8,114.9,15.8z
	 M125.6,21.2c0.1,0.2,0.2,0.4,0.2,0.7c0,0.7-0.7,1.4-1.4,1.4c-0.5,0-0.9-0.4-1.2-0.8l-3.2-3.7v3.1c0,0.8-0.6,1.4-1.4,1.4
	s-1.4-0.6-1.4-1.4V10.5c0-0.8,0.6-1.4,1.4-1.4c0.8,0,1.4,0.6,1.4,1.4v7l3.2-3.5c0.3-0.4,0.7-0.8,1.2-0.8c0.7,0,1.3,0.6,1.3,1.4
	c0,0.2-0.1,0.5-0.2,0.6l-2.5,2.8L125.6,21.2z M131,15.8c-0.8,0-2,0.4-2,1.6h4C133,16.2,131.7,15.8,131,15.8z M134.6,19.1H129
	c0,1.7,1.6,1.9,2.3,1.9c0.5,0,1.2-0.1,1.8-0.4c0.2-0.1,0.4-0.2,0.7-0.2c0.6,0,1.1,0.5,1.1,1.1c0,0.4-0.3,0.8-0.6,1
	c-0.8,0.6-2,0.8-3,0.8c-2.8,0-5.1-1.5-5.1-5c0-2.8,1.4-5.2,4.7-5.2c2.7,0,4.7,1.7,4.7,4.8C135.7,18.6,135.2,19.1,134.6,19.1z
	 M142.3,23.4h-0.8c-2.1,0-3.3-0.9-3.3-4.2v-3.4h-0.7c-0.7,0-1.2-0.6-1.2-1.3c0-0.7,0.6-1.3,1.2-1.3h0.7v-2.6c0-0.8,0.6-1.4,1.4-1.4
	c0.8,0,1.4,0.6,1.4,1.4v2.6h1.1c0.7,0,1.2,0.6,1.2,1.3c0,0.7-0.6,1.3-1.2,1.3h-1.1v2.9c0,1.9,0.1,2.3,0.9,2.3h0.4
	c0.7,0,1.2,0.5,1.2,1.2C143.5,22.8,142.9,23.4,142.3,23.4z M155.6,10.2c0.4,0.2,0.7,0.7,0.7,1.2c0,0.7-0.6,1.3-1.3,1.3
	c-0.2,0-0.3-0.1-0.5-0.1c-0.8-0.6-1.8-1-2.9-1c-2.6,0-4.3,2.1-4.3,4.7s1.8,4.6,4.3,4.6c1.3,0,2.4-0.5,3.2-1.3
	c0.2-0.2,0.5-0.2,0.8-0.2c0.7,0,1.2,0.5,1.2,1.2c0,0.5-0.3,0.8-0.6,1.1c-1.2,1.1-2.9,1.7-4.6,1.7c-3.9,0-7.1-3.2-7.1-7.2
	s3.2-7.2,7.1-7.2C153.1,9,154.5,9.4,155.6,10.2z M162.6,20.9c1.2,0,2.3-1.1,2.3-2.6s-1.1-2.5-2.3-2.5c-1.2,0-2.2,1-2.2,2.5
	C160.4,19.7,161.4,20.9,162.6,20.9z M165.6,22.2l-0.1-0.3c-0.5,1.1-2.3,1.5-3.3,1.5c-2.6,0-4.5-2.3-4.5-5.1c0-2.8,2-5,4.7-5
	c0.5,0,2,0.1,3.2,1.5l0.1-0.3c0-0.6,0.4-1.1,1.1-1.1s1.1,0.5,1.1,1.1v7.7c0,0.6-0.5,1.1-1.1,1.1C166,23.2,165.6,22.7,165.6,22.2z
	 M175.3,20.9c1.2,0,2.2-1.2,2.2-2.6c0-1.5-1-2.5-2.2-2.5c-1.2,0-2.3,1-2.3,2.5S174,20.9,175.3,20.9z M173,22.6v3.5
	c0,0.8-0.6,1.4-1.4,1.4c-0.8,0-1.4-0.6-1.4-1.4V14.4c0-0.6,0.5-1.1,1.1-1.1s1.1,0.5,1.1,1.2c1-1.1,2.3-1.3,3.2-1.3
	c2.7,0,4.7,2.3,4.7,5c0,2.8-1.9,5.1-4.5,5.1C174.9,23.4,173.7,23.1,173,22.6z"/>
</svg>
