<?xml version="1.0" encoding="utf-8"?>
<!-- Generator: Adobe Illustrator 26.0.1, SVG Export Plug-In . SVG Version: 6.00 Build 0)  -->
<svg version="1.1" id="Шар_1" xmlns="http://www.w3.org/2000/svg" xmlns:xlink="http://www.w3.org/1999/xlink" x="0px" y="0px"
	 viewBox="0 0 140 37" style="enable-background:new 0 0 140 37;" xml:space="preserve">
<style type="text/css">
	.st0{clip-path:url(#SVGID_00000002361133048935717040000013185857193902323635_);}
	.st1{fill:#FFFFFF;}
	.st2{fill:#FFFDFD;}
	.st3{fill-rule:evenodd;clip-rule:evenodd;fill:#633001;}
	.st4{fill:#FEDC90;}
	.st5{fill-rule:evenodd;clip-rule:evenodd;fill:#D1884F;}
	.st6{fill:#633001;}
</style>
<g>
	<g>
		<defs>
			<rect id="SVGID_1_" x="-4" y="-40" width="148" height="120"/>
		</defs>
		<clipPath id="SVGID_00000143589517701924783120000006974684457960281988_">
			<use xlink:href="#SVGID_1_"  style="overflow:visible;"/>
		</clipPath>
		<g style="clip-path:url(#SVGID_00000143589517701924783120000006974684457960281988_);">
			<path class="st1" d="M29.1,25.1c-0.3,0-0.5-0.1-0.6-0.2c-0.1-0.2-0.1-0.4-0.1-0.7V12.8c0-0.3,0.1-0.6,0.1-0.7
				c0.1-0.2,0.3-0.3,0.6-0.3h3.7c1.4,0,2.5,0.4,3.2,1.2c0.6,0.8,1,2,1,3.5c0,1.6-0.3,2.6-1,3.5c-0.6,0.7-1.7,1.2-3.2,1.2h-1.4v3.2
				c0,0.3-0.1,0.6-0.1,0.7C31.2,25,31,25,30.6,25L29.1,25.1L29.1,25.1L29.1,25.1z M32.6,18.1c0.4,0,0.7-0.1,1-0.4
				c0.3-0.3,0.3-0.7,0.3-1.3c0-0.6-0.1-1-0.3-1.3c-0.3-0.3-0.6-0.4-1-0.4h-1.2v3.5H32.6z"/>
			<path class="st1" d="M40.6,25.4c-1,0-1.7-0.4-2.3-1.2c-0.6-0.8-0.9-2-0.9-3.4c0-1.2,0.1-2.1,0.6-2.9c0.5-0.8,1-1.4,1.7-2
				c0.7-0.4,1.6-0.7,2.5-0.7c0.8,0,1.4,0.1,2.1,0.3c0.6,0.2,1.1,0.5,1.7,0.9v7.8c0,0.2,0,0.4-0.1,0.5c-0.1,0.1-0.3,0.1-0.4,0.1h-1.6
				c-0.1,0-0.3,0-0.3-0.1c-0.1-0.1-0.1-0.1-0.1-0.2l-0.3-0.5c-0.3,0.4-0.6,0.7-1,0.9C41.7,25.3,41.2,25.4,40.6,25.4z M41.7,22.8
				c0.4,0,0.7-0.1,1-0.4c0.3-0.2,0.3-0.6,0.3-1v-3c-0.1-0.1-0.5-0.2-0.7-0.2c-0.6,0-1,0.2-1.3,0.7c-0.3,0.5-0.5,1.2-0.5,2.1
				C40.5,22.1,40.9,22.8,41.7,22.8z"/>
			<path class="st1" d="M48,25.1c-0.3,0-0.5-0.1-0.6-0.2c-0.1-0.2-0.1-0.4-0.1-0.7v-8c0-0.2,0-0.4,0.1-0.5s0.3-0.1,0.4-0.1h1.6
				c0.1,0,0.3,0,0.3,0.1c0.1,0,0.1,0.1,0.1,0.2l0.1,0.6c0.3-0.4,0.6-0.6,1.1-0.8c0.5-0.2,1-0.3,1.6-0.3c0.8,0,1.5,0.3,2,0.9
				c0.5,0.6,0.8,1.4,0.8,2.6V24c0,0.3-0.1,0.6-0.1,0.7c-0.1,0.2-0.3,0.2-0.6,0.2h-1.5c-0.3,0-0.5-0.1-0.6-0.2
				c-0.1-0.2-0.1-0.4-0.1-0.7v-4.8c0-0.4-0.1-0.7-0.3-0.8c-0.1-0.2-0.3-0.3-0.6-0.3s-0.6,0.1-0.7,0.3c-0.1,0.2-0.3,0.5-0.3,0.8v4.9
				c0,0.3-0.1,0.6-0.1,0.7C50.1,25,49.8,25,49.5,25L48,25.1L48,25.1L48,25.1z"/>
			<path class="st1" d="M60.6,25.4c-1.4,0-2.5-0.4-3.4-1.3c-0.8-0.8-1.2-2.1-1.2-3.7c0-1,0.1-1.8,0.6-2.6c0.3-0.7,0.9-1.3,1.5-1.7
				c0.7-0.4,1.5-0.6,2.4-0.6c0.7,0,1.3,0.1,1.7,0.3c0.5,0.2,1,0.4,1.3,0.8c0.1,0.1,0.1,0.2,0.1,0.3c0,0.1-0.1,0.2-0.1,0.4L63,18.8
				c-0.1,0.2-0.1,0.3-0.3,0.3s-0.1-0.1-0.3-0.2c-0.3-0.2-0.6-0.4-0.8-0.5c-0.3-0.1-0.6-0.2-0.9-0.2c-0.5,0-1,0.2-1.3,0.6
				c-0.3,0.4-0.5,1-0.5,1.7c0,0.7,0.1,1.3,0.5,1.7c0.3,0.4,0.7,0.6,1.3,0.6c0.3,0,0.6-0.1,0.9-0.2c0.3-0.1,0.6-0.3,0.8-0.5
				c0.1-0.1,0.3-0.2,0.3-0.2s0.1,0.1,0.3,0.3l0.7,1.6c0.1,0.1,0.1,0.2,0.1,0.3c0,0.1-0.1,0.2-0.1,0.3c-0.4,0.3-0.9,0.6-1.4,0.8
				C61.9,25.3,61.3,25.4,60.6,25.4z"/>
			<path class="st1" d="M67.9,25.4c-1,0-1.7-0.4-2.3-1.2c-0.6-0.8-0.9-2-0.9-3.4c0-1.2,0.1-2.1,0.6-2.9c0.4-0.8,1-1.4,1.7-2
				c0.7-0.4,1.6-0.7,2.5-0.7c0.8,0,1.4,0.1,2.1,0.3c0.6,0.2,1.1,0.5,1.7,0.9v7.8c0,0.2,0,0.4-0.1,0.5c-0.1,0.1-0.3,0.1-0.4,0.1H71
				c-0.1,0-0.3,0-0.3-0.1c-0.1-0.1-0.1-0.1-0.1-0.2L70.4,24c-0.3,0.4-0.6,0.7-1,0.9C69,25.3,68.4,25.4,67.9,25.4z M69,22.8
				c0.4,0,0.7-0.1,1-0.4c0.3-0.2,0.3-0.6,0.3-1v-3c-0.1-0.1-0.5-0.2-0.7-0.2c-0.6,0-1,0.2-1.3,0.7c-0.3,0.5-0.5,1.2-0.5,2.1
				C67.7,22.1,68.2,22.8,69,22.8z"/>
			<path class="st1" d="M82.8,24.4c0.1,0.1,0.1,0.2,0.1,0.3c0,0.1,0,0.2-0.1,0.3c-0.1,0.1-0.1,0.1-0.3,0.1h-2.4c-0.1,0-0.3,0-0.3,0
				c-0.1,0-0.1-0.1-0.3-0.2l-2.1-3.7v2.8c0,0.3-0.1,0.6-0.1,0.7C77.2,25,77,25,76.7,25h-1.5c-0.3,0-0.5-0.1-0.6-0.2
				c-0.1-0.2-0.1-0.4-0.1-0.7V12.8c0-0.3,0.1-0.6,0.1-0.7c0.1-0.2,0.3-0.3,0.6-0.3h1.5c0.3,0,0.5,0.1,0.6,0.3
				c0.1,0.2,0.1,0.4,0.1,0.7v6.5l2-3.4c0.1-0.1,0.1-0.2,0.3-0.2s0.1-0.1,0.3-0.1h2.4c0.1,0,0.1,0,0.3,0.1c0.1,0.1,0.1,0.2,0.1,0.3
				c0,0.1,0,0.2-0.1,0.3l-2.6,3.9L82.8,24.4z"/>
			<path class="st1" d="M87.7,25.4c-0.9,0-1.6-0.2-2.3-0.5c-0.6-0.4-1.2-0.9-1.6-1.6c-0.4-0.7-0.6-1.6-0.6-2.6c0-1.6,0.4-3,1.1-3.8
				c0.7-0.9,1.8-1.3,3.2-1.3c1.4,0,2.4,0.4,3,1.3c0.7,0.8,1,2.1,1,3.5c0,0.6-0.3,1-0.6,1h-4.8c0,0.6,0.1,1,0.5,1.3
				c0.3,0.3,0.9,0.4,1.5,0.4c0.4,0,0.8,0,1-0.1c0.3-0.1,0.6-0.3,0.9-0.4c0.1-0.1,0.3-0.1,0.3-0.1c0.1,0,0.1,0.1,0.3,0.2l0.6,1.2
				c0.1,0.1,0.1,0.2,0.1,0.3c0,0.1-0.1,0.2-0.1,0.3c-0.4,0.3-0.9,0.6-1.4,0.8C89,25.3,88.4,25.4,87.7,25.4z M88.9,19.3
				c0-0.5-0.1-0.9-0.3-1.2c-0.3-0.3-0.6-0.4-1-0.4c-0.5,0-0.8,0.1-1,0.4c-0.3,0.3-0.3,0.6-0.3,1.2H88.9z"/>
			<path class="st1" d="M97,25.4c-0.9,0-1.7-0.1-2.5-0.3c-0.8-0.2-1.4-0.6-1.8-1c-0.1-0.1-0.3-0.3-0.3-0.4c0-0.1,0-0.2,0.1-0.3
				l0.7-1.6c0.1-0.2,0.1-0.2,0.3-0.2s0.1,0,0.3,0.1c0.4,0.3,0.8,0.5,1.3,0.7c0.5,0.2,1,0.3,1.4,0.3s0.8-0.1,1-0.3
				c0.3-0.2,0.3-0.5,0.3-0.9s-0.1-0.7-0.4-0.9c-0.3-0.2-0.7-0.5-1.4-0.8c-1-0.5-1.8-1-2.4-1.6c-0.6-0.6-0.9-1.6-0.9-2.5
				c0-1.3,0.4-2.2,1.1-3c0.7-0.7,1.7-1,2.8-1c0.9,0,1.6,0.1,2.1,0.3c0.6,0.2,1.1,0.5,1.5,0.8c0.1,0.2,0.3,0.3,0.3,0.5
				c0,0.1,0,0.2-0.1,0.3l-0.7,1.6c-0.1,0.2-0.1,0.2-0.3,0.2c-0.1,0-0.1,0-0.3-0.1c-0.6-0.5-1.3-0.7-2.1-0.7c-0.5,0-0.8,0.1-1,0.3
				c-0.3,0.2-0.3,0.5-0.3,0.9c0,0.3,0.1,0.5,0.1,0.7c0.1,0.2,0.3,0.3,0.5,0.5c0.3,0.1,0.6,0.3,1,0.5l0.3,0.1
				c0.7,0.4,1.4,0.7,1.7,1.2c0.5,0.3,0.8,0.8,1,1.3c0.3,0.5,0.3,1.2,0.3,1.8c0,1.2-0.3,2.1-1,2.7C99.2,25,98.2,25.4,97,25.4z"/>
			<path class="st1" d="M104.1,25.1c-0.1,0-0.3,0-0.3-0.1c-0.1-0.1-0.1-0.2-0.1-0.4l-2-8.5c0-0.1,0-0.1,0-0.2c0-0.2,0.1-0.3,0.3-0.3
				h2c0.1,0,0.3,0,0.3,0.1c0.1,0.1,0.1,0.1,0.1,0.3l0.8,4.4l1-3.5c0.1-0.2,0.1-0.3,0.1-0.3c0.1-0.1,0.1-0.1,0.3-0.1h1
				c0.1,0,0.3,0,0.3,0.1c0.1,0.1,0.1,0.2,0.1,0.3l1,3.5l0.9-4.4c0-0.1,0.1-0.2,0.1-0.3c0.1-0.1,0.1-0.1,0.3-0.1h2.1
				c0.3,0,0.3,0.1,0.3,0.3c0,0,0,0.1,0,0.2l-2,8.5c-0.1,0.2-0.1,0.3-0.1,0.4c-0.1,0.1-0.1,0.1-0.3,0.1h-1.5c-0.1,0-0.3,0-0.3-0.1
				c-0.1-0.1-0.1-0.2-0.1-0.4l-1-3.5l-1,3.5c-0.1,0.2-0.1,0.3-0.1,0.4c-0.1,0.1-0.1,0.1-0.3,0.1H104.1z"/>
			<path class="st2" d="M116.5,25.4c-1,0-1.7-0.4-2.3-1.2c-0.6-0.8-0.9-2-0.9-3.4c0-1.2,0.1-2.1,0.6-2.9c0.4-0.8,1-1.4,1.7-2
				c0.7-0.4,1.6-0.7,2.5-0.7c0.8,0,1.4,0.1,2.1,0.3c0.6,0.2,1.1,0.5,1.7,0.9v7.8c0,0.2,0,0.4-0.1,0.5c-0.1,0.1-0.3,0.1-0.4,0.1h-1.6
				c-0.1,0-0.1,0-0.3-0.1c-0.1-0.1-0.1-0.1-0.1-0.2l-0.3-0.6c-0.3,0.4-0.6,0.7-1,0.9C117.6,25.3,117.2,25.4,116.5,25.4z M117.8,22.8
				c0.4,0,0.7-0.1,1-0.4c0.3-0.2,0.3-0.6,0.3-1v-3c-0.1-0.1-0.5-0.2-0.7-0.2c-0.6,0-1,0.2-1.3,0.7c-0.3,0.5-0.5,1.2-0.5,2.1
				C116.5,22.1,116.9,22.8,117.8,22.8z"/>
			<path class="st1" d="M123.9,29.1c-0.3,0-0.5-0.1-0.6-0.2c-0.1-0.2-0.1-0.4-0.1-0.7V17c0.5-0.4,1-0.8,1.7-1
				c0.7-0.3,1.4-0.4,2.1-0.4c3.1,0,4.6,1.6,4.6,5c0,1.6-0.3,2.7-1,3.7c-0.6,0.9-1.6,1.3-2.8,1.3c-0.3,0-0.6-0.1-1-0.2
				c-0.3-0.1-0.6-0.2-0.8-0.4v3.3c0,0.3-0.1,0.6-0.1,0.7c-0.1,0.2-0.3,0.2-0.6,0.2L123.9,29.1L123.9,29.1z M127.3,22.8
				c0.5,0,0.8-0.2,1-0.6c0.3-0.4,0.3-1,0.3-1.7c0-0.8-0.1-1.4-0.4-1.8c-0.3-0.3-0.6-0.5-1.2-0.5c-0.3,0-0.6,0.1-0.8,0.2v3
				c0,0.4,0.1,0.8,0.3,1C126.6,22.7,126.9,22.8,127.3,22.8z"/>
			<path class="st3" d="M8,9.6c-0.3-2.1,1-3.9,2.5-3.9c1.4,0,2.6,1.6,2.6,3.4v4.1c0.4,0,0.7,0,1.1,0c0.3,0,0.7,0,1,0V9
				c0-1.8,1.2-3.4,2.6-3.4c1.6,0,2.8,2,2.5,3.9l-0.7,4.8c2.4,1.3,4.2,3.7,4.2,6.6v1.7c0,2.5-1.3,4.4-3,5.8c-1.7,1.4-4.1,2.2-6.7,2.2
				s-5-0.8-6.7-2.2c-1.7-1.3-3-3.4-3-5.8v-1.7c0-3,1.8-5.3,4.2-6.6L8,9.6z M18.9,15.1l0.8-5.6c0.3-1.4-0.6-2.7-1.7-2.7
				c-1,0-1.8,1-1.8,2.3v5.2c-0.3,0-0.6-0.1-0.8-0.1c-0.3,0-0.7,0-1,0c-0.4,0-0.7,0-1.1,0.1c-0.3,0-0.6,0.1-0.8,0.1V9.2
				c0-1.3-0.8-2.3-1.8-2.3c-1.1,0-2,1.3-1.7,2.7l0.8,5.7c-2.5,1.2-4.3,3.5-4.3,6V23c0,3.9,3.9,7,8.9,7c4.9,0,8.9-3.1,8.9-7v-1.7
				C23.2,18.5,21.5,16.3,18.9,15.1z"/>
			<path class="st4" d="M23.2,22.8c0,3.9-3.9,7-8.9,7c-4.9,0-8.9-3.1-8.9-7v-1.7h17.9L23.2,22.8L23.2,22.8z"/>
			<path class="st5" d="M8.8,9.3c-0.3-1.4,0.6-2.7,1.7-2.7c1,0,1.8,1,1.8,2.3v5.3c0.6-0.1,1.3-0.2,1.9-0.2c0.6,0,1.3,0.1,1.8,0.1V9
				c0-1.3,0.8-2.3,1.8-2.3c1.1,0,2,1.3,1.7,2.7L18.8,15c2.6,1.2,4.4,3.5,4.4,6c0,3.9-3.9,7-8.9,7c-4.9,0-8.9-3.1-8.9-7
				c0-2.5,1.7-4.8,4.3-6L8.8,9.3z"/>
			<path class="st6" d="M11.8,20.6c0,1-0.5,2-1,2s-1-0.8-1-2c0-1,0.5-2,1-2S11.8,19.4,11.8,20.6z"/>
			<path class="st6" d="M18.7,20.6c0,1-0.5,2-1,2c-0.6,0-1-0.8-1-2c0-1,0.5-2,1-2C18.2,18.6,18.7,19.4,18.7,20.6z"/>
		</g>
	</g>
</g>
</svg>
