<svg width="136" height="42" viewBox="0 0 136 42" fill="none" xmlns="http://www.w3.org/2000/svg">
<path d="M94.4428 14.5826C94.4428 16.6435 94.3645 18.7043 94.4689 20.7652C94.5211 21.9391 93.999 22.1217 93.0071 22.0956C92.0413 22.0956 91.5192 22.0174 91.5453 20.7913C91.6236 17.5043 91.5453 14.1913 91.5975 10.8783C91.5975 10.3043 91.1538 9.36521 92.0413 9.20869C92.9288 9.07825 93.9729 8.76521 94.7299 9.80869C96.244 11.8956 97.8363 13.9304 99.4025 15.9913C99.5591 16.2 99.7418 16.3826 100.186 16.8783C100.186 14.5826 100.264 12.6261 100.16 10.6956C100.107 9.52173 100.368 9.10434 101.674 9.07825C103.135 9.05217 103.109 9.75651 103.083 10.8C103.057 13.9826 103.109 17.1913 103.057 20.3739C103.057 20.9217 103.553 21.8609 102.535 21.9913C101.674 22.0956 100.734 22.3043 100.029 21.313C98.3584 18.9913 96.5833 16.7478 94.8344 14.4783C94.7038 14.5304 94.5733 14.5565 94.4428 14.5826Z" fill="#EFB90C"/>
<path d="M71.0018 16.9565C71.0018 14.4782 71.0801 12.4434 70.9757 10.4347C70.9234 9.18257 71.576 9.20865 72.4897 9.15648C73.4555 9.13039 73.8209 9.36517 73.8209 10.4347C73.7426 13.8 73.821 17.1391 73.7687 20.5043C73.7687 21.026 74.1603 21.8869 73.3511 22.0434C72.5158 22.2 71.5499 22.4347 70.819 21.4434C69.2528 19.2521 67.5822 17.1391 65.9377 15C65.781 14.7913 65.5983 14.6087 65.1806 14.0608C65.1806 16.5913 65.1023 18.7565 65.2068 20.9217C65.259 22.0434 64.7369 22.2 63.8233 22.1217C63.014 22.0695 62.1787 22.3565 62.2309 20.9478C62.3354 17.6087 62.2309 14.2434 62.2831 10.8782C62.2831 10.3304 61.7872 9.36517 62.8052 9.26083C63.6927 9.18257 64.7369 8.81735 65.4939 9.88691C67.0079 12 68.6002 14.0087 70.1664 16.0695C70.3231 16.2521 70.5058 16.4347 71.0018 16.9565Z" fill="#EFB80B"/>
<path d="M13.1038 20.3217C12.8689 20.1391 12.66 19.9826 12.4773 19.7739C11.8247 19.1217 11.1982 18.4174 10.4934 17.7913C9.78864 17.1913 9.97137 16.7739 10.5456 16.2261C13.0516 13.7739 15.5575 11.2956 18.0113 8.76519C18.6117 8.13911 18.9771 8.16519 19.5775 8.76519C22.0835 11.3217 24.6155 13.8261 27.1476 16.3304C27.6174 16.8 27.7219 17.0608 27.2259 17.6348C24.6938 20.6087 24.7199 20.6087 22.0313 17.9217C20.9871 16.8782 19.943 15.1565 18.8205 15.0782C17.6458 14.9739 16.7061 16.9043 15.6359 17.8956C14.9833 18.4956 14.3829 19.1478 13.7564 19.7478C13.5737 19.9304 13.3387 20.113 13.1038 20.3217Z" fill="#EFB80B"/>
<path d="M12.9994 25.0695C13.3909 25.4087 13.6781 25.6435 13.9391 25.9043C15.2182 27.1826 16.5756 28.3826 17.7763 29.7652C18.6378 30.7826 19.1598 30.5739 19.9429 29.713C21.1176 28.4087 22.4489 27.2348 23.6497 25.9565C24.25 25.3304 24.6416 25.2 25.3725 25.8782C28.009 28.3304 28.0351 28.2782 25.5291 30.7826C23.5713 32.713 21.6136 34.6435 19.708 36.6261C19.0554 37.3043 18.69 37.3304 18.0113 36.6261C15.6097 34.1478 13.156 31.6956 10.65 29.2956C9.89303 28.5652 9.94524 28.1217 10.6761 27.4696C11.4854 26.7652 12.1902 25.9304 12.9994 25.0695Z" fill="#EFB80B"/>
<path d="M120.025 15.5478C120.025 13.8 120.077 12.0261 119.998 10.2782C119.972 9.41735 120.259 9.15648 121.121 9.15648C123.653 9.20866 126.185 9.20866 128.717 9.15648C129.709 9.1304 129.761 9.65214 129.735 10.3826C129.709 11.113 129.813 11.8174 128.691 11.7652C127.151 11.6869 125.611 11.8174 124.071 11.7391C123.053 11.6869 122.896 12.1565 122.922 13.0174C122.948 13.8261 122.974 14.4261 124.045 14.3478C125.35 14.2695 126.681 14.3739 128.012 14.3217C129.03 14.2695 128.978 14.9217 128.978 15.6C129.004 16.3304 128.952 16.8782 127.96 16.8261C126.655 16.7478 125.324 16.8782 123.992 16.8C122.87 16.7478 122.948 17.4261 122.922 18.1826C122.896 18.9652 122.948 19.5652 124.018 19.513C125.559 19.4347 127.099 19.5391 128.639 19.4869C129.683 19.4347 129.944 19.8782 129.944 20.8434C129.944 21.7304 129.735 22.1217 128.743 22.0956C126.211 22.0434 123.679 22.0434 121.147 22.0956C120.286 22.1217 119.998 21.8608 120.025 20.9739C120.051 19.1739 120.025 17.3739 120.025 15.5478Z" fill="#EFB80C"/>
<path d="M105.798 15.4695C105.928 12.9652 106.999 10.9043 109.4 9.70431C111.828 8.50431 114.282 8.63475 116.605 10.0956C117.022 10.3565 117.988 10.6434 117.257 11.3739C116.683 11.9217 116.5 13.3826 115.012 12.4174C113.107 11.1652 111.515 11.2956 110.157 12.4956C108.826 13.6695 108.434 15.6 109.139 17.3217C110.105 19.6434 112.768 20.5043 114.882 18.913C116.396 17.7652 116.814 19.0174 117.414 19.7217C117.936 20.3478 117.075 20.6608 116.709 20.9217C114.412 22.5913 111.906 22.8261 109.4 21.6C106.973 20.4 105.85 18.2869 105.798 15.4695Z" fill="#EFB90C"/>
<path d="M53.669 30.1043C54.4521 28.8782 55.1569 27.8869 55.7573 26.8435C56.1488 26.1652 56.6709 25.9304 57.4018 26.0869C58.2632 26.2435 57.8978 26.9478 57.8978 27.4174C57.95 29.4522 57.9239 31.4869 57.8978 33.4956C57.8978 33.9913 58.1327 34.6435 57.193 34.6695C56.2271 34.6956 56.3577 34.0435 56.3577 33.4435C56.3577 32.0348 56.3577 30.6261 56.3577 28.7217C55.6529 29.7391 55.2091 30.3391 54.7914 30.9391C53.6429 32.6348 53.6429 32.6348 52.5204 30.9913C52.1028 30.3652 51.6851 29.7391 50.9281 29.1652C50.9281 30.6522 50.9281 32.1652 50.9281 33.6522C50.9281 34.1217 51.0325 34.6435 50.2494 34.6695C49.4663 34.6956 49.3619 34.2522 49.3619 33.6261C49.388 31.4869 49.3619 29.3478 49.388 27.2087C49.388 26.8174 49.2053 26.2435 49.8056 26.113C50.3799 25.9826 51.0064 25.9304 51.398 26.6087C52.0767 27.7043 52.8076 28.7739 53.669 30.1043Z" fill="#EFB90F"/>
<path d="M58.5242 15.6261C58.5242 17.4522 58.472 19.2522 58.5504 21.0783C58.6026 22.2522 57.8717 22.1217 57.1669 22.0696C56.4621 22.0435 55.6006 22.3826 55.6006 21.0522C55.6529 17.4261 55.6529 13.8 55.6006 10.1478C55.5745 8.7913 56.4882 9.20869 57.1669 9.15652C57.8717 9.10434 58.6026 8.99999 58.5504 10.1739C58.472 12 58.5242 13.8261 58.5242 15.6261Z" fill="#EFB90E"/>
<path d="M123.783 29.0608C123.783 30.5478 123.783 32.0087 123.783 33.4695C123.783 33.9652 123.966 34.6174 123.079 34.6434C122.165 34.6695 122.348 34.0174 122.348 33.5217C122.322 31.4348 122.322 29.3478 122.348 27.2608C122.348 26.8434 122.035 26.2174 122.818 26.0869C123.418 25.9826 123.862 26.2174 124.227 26.713C125.35 28.2 126.498 29.6608 127.621 31.1478C127.751 31.3043 127.751 31.5652 127.83 31.7739C127.986 31.6695 128.143 31.5913 128.299 31.4869C128.299 30.0782 128.299 28.6956 128.299 27.2869C128.299 26.713 128.117 26.0087 129.135 26.0608C130.022 26.0869 129.84 26.7391 129.84 27.2348C129.866 29.3217 129.866 31.4087 129.84 33.4956C129.84 33.913 130.022 34.4608 129.448 34.6174C128.874 34.7739 128.404 34.5913 128.012 34.0695C126.968 32.6608 125.872 31.2782 124.802 29.8956C124.593 29.6087 124.436 29.2174 123.783 29.0608Z" fill="#EFB90E"/>
<path d="M106.477 30.3391C106.477 31.4348 106.477 32.5304 106.477 33.6261C106.477 34.0956 106.581 34.6174 105.798 34.6435C104.963 34.6696 104.937 34.1478 104.963 33.5739C104.963 33.4174 104.937 33.2348 104.963 33.0783C105.224 31.4869 104.702 30.8087 102.953 30.9652C100.943 31.1478 100.943 31.0174 100.864 33.313C100.838 33.8087 101.23 34.6174 100.186 34.6435C99.1937 34.6696 99.3503 33.9913 99.3503 33.4174C99.3503 31.3304 99.3503 29.2435 99.3503 27.1565C99.3503 26.6087 99.3242 26.0348 100.16 26.0609C101.073 26.0609 100.812 26.713 100.89 27.2087C100.995 27.9913 100.473 29.2174 101.178 29.5043C102.117 29.8956 103.344 29.6348 104.441 29.6348C104.884 29.6348 104.963 29.3217 104.963 28.9565C104.963 28.513 104.91 28.0696 104.989 27.6522C105.093 27.0522 104.571 26.0609 105.798 26.0869C106.973 26.113 106.424 27.0261 106.477 27.5739C106.555 28.4609 106.477 29.4 106.477 30.3391Z" fill="#EFBA10"/>
<path d="M44.4806 25.9826C45.2115 25.9565 45.9163 26.087 46.5428 26.4783C46.8822 26.687 47.4826 26.7913 47.1432 27.4174C46.8822 27.887 46.595 28.2 45.9686 27.8087C45.3682 27.4174 44.6634 27.2348 43.9325 27.3652C43.4626 27.4435 43.0711 27.6261 42.9666 28.1478C42.8361 28.7217 43.1233 29.113 43.6453 29.3217C44.3501 29.5826 45.1071 29.7652 45.838 30C46.9866 30.3913 47.7436 31.0696 47.6653 32.4C47.587 33.7565 46.7517 34.4348 45.4987 34.7217C44.1152 35.0348 42.8883 34.6696 41.7398 33.9913C41.3743 33.7826 40.9306 33.5739 41.3743 33C41.6876 32.6087 41.9747 32.3739 42.4446 32.7391C43.1233 33.2609 43.9325 33.4696 44.7678 33.4174C45.3943 33.3652 46.0208 33.2609 46.073 32.4522C46.1252 31.7739 45.6814 31.487 45.1071 31.3043C44.6373 31.1739 44.1413 31.0696 43.6714 30.9391C41.8703 30.4174 41.1655 29.5043 41.4004 28.0435C41.5831 26.713 42.7317 25.9565 44.4806 25.9826Z" fill="#EFB90E"/>
<path d="M91.5454 30.3652C91.5454 32.7913 93.7381 34.1217 95.9047 32.9739C96.5051 32.6608 97.0794 32.1391 97.471 33.0521C97.8103 33.8347 96.975 34.0434 96.5051 34.3043C94.6518 35.3217 92.2763 34.9043 90.9711 33.3391C89.5877 31.7217 89.5616 29.2434 90.8928 27.5739C92.1719 25.9565 94.7301 25.4348 96.5573 26.4521C97.0011 26.6869 97.8625 26.8434 97.3665 27.7304C96.9228 28.4869 96.4529 28.1217 95.9047 27.8348C93.6859 26.6608 91.5454 27.9391 91.5454 30.3652Z" fill="#EFB90E"/>
<path d="M26.7039 23.0608C27.0432 22.4869 29.8624 19.5913 30.1234 19.6174C30.7238 19.6695 30.9849 20.2174 31.3503 20.6087C33.5169 22.7478 33.4386 22.6956 31.4808 24.8347C30.4628 25.9565 29.8102 25.9826 28.8444 24.8087C28.2701 24.1304 27.4348 23.6347 26.7039 23.0608Z" fill="#EFB90E"/>
<path d="M85.0195 26.7652C85.0717 27.6522 84.4452 27.6261 83.897 27.5478C82.5135 27.3391 82.2264 27.9913 82.3047 29.2174C82.4091 30.7043 82.3308 32.1913 82.3308 33.6782C82.3308 34.2 82.3308 34.6435 81.5999 34.6695C80.7907 34.6956 80.7124 34.2522 80.7385 33.6261C80.7646 32.0869 80.6862 30.5478 80.7646 29.0087C80.8429 27.8608 80.4513 27.4174 79.3028 27.5478C78.7546 27.6 78.0237 27.7565 78.0759 26.7391C78.102 25.8 78.7807 26.0869 79.2767 26.0609C80.869 26.0348 82.4613 26.0609 84.0536 26.0609C84.5235 26.0348 85.0717 26.0087 85.0195 26.7652Z" fill="#F0BA13"/>
<path d="M11.3289 22.6956C10.2064 23.5826 9.39721 24.026 8.87513 24.6782C7.83099 26.0087 7.10009 25.9043 6.00373 24.6782C4.17648 22.6434 4.09817 22.7217 5.92542 20.8695C7.43943 19.3565 7.41333 19.3826 8.97955 20.8695C9.55383 21.4695 10.2586 21.913 11.3289 22.6956Z" fill="#EFB90C"/>
<path d="M21.9009 22.7739C21.6399 23.4 21.0395 23.7913 20.5436 24.2869C18.7946 26.0869 18.7946 26.0609 17.0457 24.3391C15.4533 22.7478 15.4533 22.7478 17.0196 21.1826C17.4111 20.7913 17.7766 20.4 18.1942 20.0348C18.377 19.8522 18.5858 19.6696 18.8207 19.5913C19.0818 19.513 21.9009 22.4348 21.9009 22.7739Z" fill="#EFB90C"/>
<path d="M120.024 30.3913C120.024 31.4869 120.024 32.5826 120.024 33.6782C120.024 34.2 120.024 34.6434 119.267 34.6434C118.615 34.6434 118.406 34.3565 118.406 33.7565C118.432 31.513 118.406 29.2434 118.406 27C118.406 26.4521 118.458 26.0608 119.189 26.0348C120.024 26.0087 120.024 26.5304 119.998 27.1043C120.024 28.2 120.024 29.2956 120.024 30.3913Z" fill="#F0BC16"/>
<path d="M50.3799 15.2608C51.6851 14.1652 52.2072 12.9391 51.6329 11.3739C51.0325 9.80866 49.7012 9.28692 48.2133 9.20866C46.36 9.10431 44.4805 9.20866 42.601 9.15649C41.7657 9.1304 41.583 9.46953 41.583 10.2261C41.6091 13.8 41.6091 17.3739 41.583 20.9478C41.583 21.8087 41.844 22.1217 42.7055 22.0956C44.6371 22.0434 46.5688 22.1217 48.4744 22.0434C50.641 21.9652 51.9984 21 52.4421 19.4347C52.8859 17.8434 52.3377 16.6956 50.3799 15.2608ZM44.3239 12.4956C44.3761 11.9739 44.5327 11.6869 45.0809 11.6869C45.8379 11.713 46.621 11.6869 47.378 11.713C48.2133 11.7391 48.9181 12 48.9442 12.9913C48.9703 14.0087 48.1611 14.2174 47.4041 14.3478C46.9865 14.4261 46.5427 14.3739 46.0989 14.3739C44.2717 14.4261 44.1412 14.2434 44.3239 12.4956ZM48.5788 19.4869C47.378 19.7739 46.1511 19.7217 44.9765 19.6174C43.854 19.513 44.4805 18.4956 44.3761 17.8956C44.2978 17.3739 44.2195 16.7478 45.107 16.8C45.603 16.8261 46.0989 16.8 46.5949 16.8V16.7739C47.2475 16.8 47.9262 16.7739 48.5527 16.9043C49.2575 17.0347 49.7273 17.4782 49.6751 18.2869C49.6229 18.9652 49.2314 19.3304 48.5788 19.4869Z" fill="#EFB80B"/>
<path d="M89.1177 21.1304C87.5515 17.3739 85.9331 13.6434 84.3669 9.913C84.0797 9.18257 83.5838 9.07822 82.9312 9.1304C82.2786 9.20866 81.4694 8.81735 81.0778 9.7304C79.4594 13.5652 77.8148 17.4 76.1964 21.2608C76.0659 21.5478 75.9354 21.8608 76.4052 22.0695C77.3711 22.4869 78.9373 21.9652 79.1983 20.9478C79.5899 19.4087 80.4774 18.9391 81.9653 19.1478C82.4613 19.226 82.9573 19.226 83.4532 19.1478C84.8628 18.913 85.7765 19.3826 86.0636 20.8695C86.2724 21.9391 86.9511 22.3304 88.2302 21.9913C88.4129 21.8608 89.7442 22.6174 89.1177 21.1304ZM80.9734 16.6174C81.4955 15.2869 81.9653 14.1391 82.5135 12.7826C83.4532 13.9826 83.6621 15.313 84.393 16.6174C83.1661 16.6174 82.1742 16.6174 80.9734 16.6174Z" fill="#EFB80B"/>
<path d="M75.3352 32.1652C74.9697 31.6956 74.8914 31.4087 75.544 31.0695C76.8492 30.4174 76.9797 29.1913 76.6926 27.9391C76.4054 26.6869 75.3874 26.1913 74.2388 26.0869C73.038 25.9565 71.8373 26.0608 70.6104 26.0348C69.9578 26.0087 69.749 26.3217 69.7751 26.9217C69.8012 29.2174 69.8012 31.5391 69.7751 33.8347C69.7751 34.3565 69.9056 34.6434 70.506 34.6434C71.0281 34.6434 71.3413 34.4608 71.3152 33.8869C71.3152 33.5478 71.2891 33.2347 71.3413 32.8956C71.3935 32.4521 71.0803 31.8 71.8112 31.6956C72.3855 31.6174 73.038 31.4608 73.4557 32.0869C73.8212 32.6347 74.291 33.1304 74.6043 33.7043C75.1263 34.6434 75.8311 34.8521 76.9275 34.4608C76.4054 33.6782 75.8833 32.8956 75.3352 32.1652ZM72.7509 30.313C71.6024 30.5739 71.2891 30.0261 71.2891 28.8261C71.2891 27.5739 71.7851 27.3391 72.8553 27.4174C73.9778 27.4956 75.3091 27.4174 75.2308 28.9565C75.2047 30.3652 73.9517 30.3652 72.7509 30.313Z" fill="#EFB90E"/>
<path d="M116.709 34.1217C116.657 33.9913 116.553 33.7826 116.474 33.6C115.482 31.3304 114.49 29.0869 113.525 26.8174C113.316 26.3217 113.055 26.0087 112.454 25.9826C111.723 25.9565 111.541 26.4261 111.332 26.9478C110.392 29.113 109.426 31.2521 108.513 33.4434C108.382 33.7826 107.677 34.3043 108.539 34.6174C109.061 34.8 109.583 34.6695 109.844 33.9913C110.027 33.5217 110.053 32.7652 110.705 32.713C111.854 32.6087 113.029 32.6087 114.151 32.713C114.856 32.7913 114.83 33.6261 115.065 34.1478C115.352 34.7478 115.822 34.6695 116.318 34.6434C116.579 34.6174 116.735 34.4869 116.709 34.1217ZM112.454 31.3043C111.201 31.3565 110.888 31.0174 111.489 29.8956C111.776 29.3739 111.984 28.8261 112.428 27.913C112.846 28.8521 113.055 29.4521 113.368 30C114.047 31.1478 113.525 31.2782 112.454 31.3043Z" fill="#EFB90D"/>
<path d="M64.8414 26.6087C64.6326 26.113 64.2932 26.0087 63.7972 25.9826C63.1708 25.9565 62.9619 26.3478 62.7531 26.8435C61.7873 29.113 60.7692 31.3565 59.8034 33.6261C59.6729 33.913 59.2291 34.3304 59.8034 34.5652C60.1688 34.7217 60.8736 34.7739 60.9781 34.3304C61.5262 32.0348 63.3013 32.713 64.7892 32.6087C65.5462 32.5565 66.0422 32.7913 66.251 33.5739C66.512 34.5652 67.0863 34.9304 68.2088 34.4348C67.0863 31.8261 65.9639 29.2174 64.8414 26.6087ZM63.8495 31.3304C62.4921 31.3826 62.3354 30.9391 62.9097 29.8695C63.1969 29.3478 63.4057 28.7739 63.7972 27.9391C64.2149 28.8261 64.4759 29.4261 64.7892 30C65.4157 31.0956 64.9719 31.2782 63.8495 31.3304Z" fill="#EFB90D"/>
</svg>
