<?xml version="1.0" encoding="utf-8"?>
<!-- Generator: Adobe Illustrator 26.0.1, SVG Export Plug-In . SVG Version: 6.00 Build 0)  -->
<svg version="1.1" id="Шар_1" xmlns="http://www.w3.org/2000/svg" xmlns:xlink="http://www.w3.org/1999/xlink" x="0px" y="0px"
	 viewBox="0 0 140 37" style="enable-background:new 0 0 140 37;" xml:space="preserve">
<style type="text/css">
	.st0{clip-path:url(#SVGID_00000134958965880093576680000013481134910842997141_);}
	.st1{fill:#FFFFFF;}
	.st2{fill:#8DC63F;}
	.st3{fill:#F9E988;}
	.st4{fill:#8BC53F;}
	.st5{fill:#009345;}
	.st6{fill:#58595B;}
</style>
<g>
	<g>
		<defs>
			<rect id="SVGID_1_" x="10.9" y="3.3" width="118.2" height="30.5"/>
		</defs>
		<clipPath id="SVGID_00000080194680459528773050000010780224579535293314_">
			<use xlink:href="#SVGID_1_"  style="overflow:visible;"/>
		</clipPath>
		<g style="clip-path:url(#SVGID_00000080194680459528773050000010780224579535293314_);">
			<path class="st1" d="M59.8,15.2c-0.3-1.2-1.2-2.1-2.7-2.1c-2.4,0-3.3,2-3.3,4s1,4,3.3,4c1.7,0,2.6-1.2,2.8-2.8h1.9
				c-0.2,2.6-2,4.3-4.6,4.3c-3.3,0-5.2-2.6-5.2-5.6s1.9-5.6,5.2-5.6c2.4,0,4.4,1.3,4.6,3.6L59.8,15.2z"/>
			<path class="st1" d="M62.8,18.6c0-2.4,1.4-4,4-4c2.5,0,4,1.7,4,4c0,2.4-1.4,4-4,4C64.2,22.7,62.8,21,62.8,18.6z M69,18.6
				c0-1.3-0.7-2.7-2.3-2.7c-1.5,0-2.3,1.4-2.3,2.7s0.7,2.7,2.3,2.7C68.4,21.4,69,20,69,18.6z"/>
			<path class="st1" d="M72.3,11.8H74v1.6h-1.8V11.8z M72.3,14.8H74v7.7h-1.8V14.8z"/>
			<path class="st1" d="M75.9,14.8h1.7v1.2l0,0c0.3-0.4,0.6-0.7,1-1c0.4-0.2,0.9-0.3,1.4-0.3c1.7,0,2.8,0.9,2.8,2.6v5.3H81v-4.9
				c0-1.2-0.5-1.7-1.5-1.7c-1.2,0-1.9,0.9-1.9,2.1v4.5h-1.7V14.8z"/>
			<path class="st1" d="M94.5,22.5h-1.2L93,21.2c-1,1.2-1.9,1.5-3.3,1.5c-3.3,0-5.2-2.6-5.2-5.6s1.9-5.6,5.2-5.6
				c2.4,0,4.4,1.2,4.6,3.6h-1.9c-0.2-1.4-1.4-2.1-2.8-2.1c-2.4,0-3.3,2-3.3,4s1,4,3.3,4c1.9,0,3-1.2,3-2.9h-2.9v-1.4h4.6V22.5z"/>
			<path class="st1" d="M97.7,19.1c0,1.2,0.7,2.3,2.1,2.3c1,0,1.6-0.4,1.9-1.3h1.7c-0.4,1.6-1.9,2.6-3.5,2.6c-2.4,0-3.9-1.6-3.9-4
				c0-2.2,1.4-4,3.8-4c2.5,0,4.1,2.2,3.7,4.5L97.7,19.1L97.7,19.1z M101.7,17.9c-0.1-1.1-0.8-2.1-2-2.1c-1.2,0-2,0.9-2.1,2.1H101.7z
				"/>
			<path class="st1" d="M110.1,17.3c-0.2-0.9-0.8-1.5-1.8-1.5c-0.9,0-2.2,0.5-2.2,2.8c0,1.3,0.6,2.6,2.1,2.6c1,0,1.7-0.7,1.9-1.7
				h1.8c-0.3,2-1.6,3.1-3.6,3.1c-2.4,0-3.8-1.7-3.8-4c0-2.3,1.3-4.1,3.9-4.1c1.9,0,3.4,0.9,3.5,2.8L110.1,17.3L110.1,17.3z"/>
			<path class="st1" d="M113.3,11.8h1.8v6l3.1-3.1h2.1l-3,2.8l3.3,4.9h-2.1l-2.4-3.7l-1,1v2.8h-1.8L113.3,11.8L113.3,11.8z"/>
			<path class="st1" d="M121.1,18.6c0-2.4,1.4-4,4-4c2.5,0,4,1.7,4,4c0,2.4-1.4,4-4,4C122.6,22.7,121.1,21,121.1,18.6z M127.3,18.6
				c0-1.3-0.7-2.7-2.3-2.7c-1.5,0-2.3,1.4-2.3,2.7s0.7,2.7,2.3,2.7C126.6,21.4,127.3,20,127.3,18.6z"/>
			<path class="st2" d="M42.1,18.4c0,3-0.9,5.9-2.6,8.5c-1.7,2.6-4.1,4.5-7,5.6c-2.9,1.2-6,1.5-9,0.9s-5.8-2-8-4.1s-3.7-4.9-4.3-7.7
				c-0.6-3-0.3-6,0.8-8.8s3.1-5.2,5.7-6.8c2.5-1.6,5.6-2.6,8.7-2.6c4.1,0,8.1,1.6,11.1,4.5C40.4,10.5,42.1,14.4,42.1,18.4z"/>
			<path class="st3" d="M40.9,18.4c0,2.8-0.8,5.5-2.4,7.8c-1.6,2.3-3.8,4.1-6.5,5.2c-2.6,1.1-5.6,1.4-8.4,0.8
				c-2.8-0.6-5.3-1.8-7.3-3.7s-3.4-4.5-4-7.2s-0.3-5.6,0.8-8.2s3-4.8,5.3-6.3s5.2-2.4,8-2.4c3.8,0,7.5,1.5,10.2,4.1
				C39.4,11.1,40.9,14.7,40.9,18.4z"/>
			<path class="st1" d="M26.7,5.3c0.9-0.2,1.9-0.2,2.8,0c0.9,0.2,1.9,0.4,2.6,0.9c0.8,0.4,1.5,1.1,2.3,1.6c0.7,0.6,1.4,1.2,2.1,1.7
				c0.7,0.7,1.3,1.3,1.8,2.1c0.5,0.7,0.9,1.6,1.3,2.5c0.6,1.7,0.8,3.6,0.5,5.4H40c-0.3-1.7-0.7-3.5-1.4-5c-0.3-0.8-0.7-1.6-1.1-2.3
				c-0.4-0.7-0.9-1.5-1.4-2.2c-0.5-0.7-1.2-1.3-1.9-1.9c-0.8-0.5-1.6-0.8-2.4-1.2c-0.8-0.3-1.6-0.7-2.4-0.9S27.7,5.5,26.7,5.3
				L26.7,5.3z"/>
			<path class="st4" d="M33.8,13.5c-1-0.3-2.1-0.7-3.2-1.2c-0.1-0.2-0.3-0.6-0.8-1c-0.8-0.7-2.1-0.7-3.2-0.3
				c-1.3-0.3-2.5-0.4-3.8-0.1c-10,2.6-4.3,9.2-8,15.7c0.5,1.1,6.2,7.4,14.3,5.7c0,0-2.8-6.5,3.5-9.6C37.6,20.1,41.3,15.5,33.8,13.5z
				"/>
			<path class="st1" d="M35,17.8c0,0.1,0,0.2-0.1,0.3s-0.2,0.2-0.3,0.2c-0.1,0.1-0.3,0.1-0.3,0c-0.1,0-0.3-0.1-0.3-0.2
				s-0.2-0.2-0.2-0.3c0-0.1,0-0.2,0-0.3c0.1-0.1,0.1-0.2,0.3-0.2c0.1-0.1,0.3-0.1,0.3-0.1c0.2,0,0.3,0.1,0.4,0.2
				C35,17.4,35,17.6,35,17.8z"/>
			<path class="st5" d="M26.6,11c0.8,0.1,3.4,0.9,4.1,1.3C30,10.8,28.1,10.5,26.6,11z"/>
			<path class="st1" d="M27.2,15c0,0.6-0.2,1.1-0.5,1.5c-0.3,0.4-0.8,0.8-1.3,1c-0.5,0.2-1.1,0.2-1.6,0.2c-0.5-0.1-1-0.3-1.4-0.7
				c-0.4-0.4-0.7-0.9-0.8-1.4s-0.1-1.1,0.2-1.6s0.6-0.9,1-1.2s1-0.5,1.5-0.5c0.3,0,0.8,0.1,1.1,0.2c0.3,0.2,0.7,0.3,0.9,0.6
				c0.3,0.2,0.5,0.6,0.6,0.9C27.2,14.3,27.2,14.7,27.2,15z"/>
			<path class="st6" d="M26.4,15c0,0.4-0.1,0.7-0.3,1.1c-0.3,0.3-0.5,0.6-0.8,0.7c-0.3,0.2-0.8,0.2-1.1,0.1c-0.4-0.1-0.8-0.2-1-0.5
				c-0.3-0.2-0.4-0.6-0.5-1c-0.1-0.4,0-0.7,0.1-1.1c0.2-0.3,0.4-0.7,0.8-0.8c0.3-0.2,0.7-0.3,1.1-0.3c0.5,0,1,0.2,1.4,0.6
				C26.2,14,26.4,14.5,26.4,15z"/>
			<path class="st4" d="M37.3,18.9c-2.3,1.6-4.8,2.7-8.5,2.7c-1.7,0-2-1.7-3.2-0.9c-0.6,0.4-2.6,1.5-4.3,1.4c-1.6-0.1-4.3-1-5-4.4
				c-0.2,3.4-0.3,5.9-1.7,8.7c2.6,4,8.8,7.2,14.4,5.9c-0.6-4.1,3.1-8.2,5.2-10.2C35,21.4,36.5,20.1,37.3,18.9L37.3,18.9z"/>
			<path class="st6" d="M37.2,19.1c-0.7,0.7-1.5,1.1-2.4,1.5c-0.8,0.4-1.8,0.7-2.7,1c-0.9,0.2-1.9,0.4-2.9,0.3
				c-1-0.1-1.9-0.4-2.6-1.2l0,0c0.8,0.5,1.7,0.7,2.6,0.7c0.9,0,1.9-0.1,2.8-0.2s1.8-0.5,2.7-0.8C35.6,20,36.4,19.6,37.2,19.1
				L37.2,19.1z"/>
		</g>
	</g>
</g>
</svg>
