<?xml version="1.0" encoding="utf-8"?>
<!-- Generator: Adobe Illustrator 26.0.1, SVG Export Plug-In . SVG Version: 6.00 Build 0)  -->
<svg version="1.1" id="Шар_1" xmlns="http://www.w3.org/2000/svg" xmlns:xlink="http://www.w3.org/1999/xlink" x="0px" y="0px"
	 viewBox="0 0 500 500" style="enable-background:new 0 0 500 500;" xml:space="preserve">
<style type="text/css">
	.st0{fill:#B3B3B3;}
	.st1{fill:#666666;}
	.st2{fill:url(#SVGID_1_);}
	.st3{fill:#CCCCCC;}
	.st4{fill:#4D4D4D;}
	.st5{fill:#4D4D4D;stroke:#4ABFFF;stroke-width:0.2;stroke-miterlimit:10;}
	.st6{fill:#666666;stroke:#C1272D;stroke-width:0.25;stroke-miterlimit:10;}
	
		.st7{fill:none;stroke:#CCCCCC;stroke-width:6;stroke-linecap:round;stroke-linejoin:round;stroke-dasharray:11.6531,11.6531,11.6531,11.6531,11.6531,11.6531;}
</style>
<g>
	<path class="st0" d="M245.5,497c-64.77,0-125.67-25.22-171.47-71.03C28.22,380.17,3,319.27,3,254.5v-9
		c0-64.77,25.22-125.67,71.03-171.47S180.73,3,245.5,3s125.67,25.22,171.47,71.03c45.8,45.8,71.03,106.7,71.03,171.47v9
		c0,64.77-25.22,125.67-71.03,171.47C371.17,471.78,310.27,497,245.5,497z"/>
	<path class="st1" d="M245.5,6c32.33,0,63.7,6.33,93.22,18.82c28.52,12.06,54.13,29.33,76.13,51.33c22,22,39.27,47.61,51.33,76.13
		C478.67,181.8,485,213.16,485,245.5v9c0,32.33-6.33,63.7-18.82,93.22c-12.06,28.52-29.33,54.13-51.33,76.13
		c-22,22-47.61,39.27-76.13,51.33C309.2,487.67,277.83,494,245.5,494c-32.33,0-63.7-6.33-93.22-18.82
		c-28.52-12.06-54.13-29.33-76.13-51.33c-22-22-39.27-47.61-51.33-76.13C12.33,318.2,6,286.84,6,254.5v-9
		c0-32.33,6.33-63.7,18.82-93.22c12.06-28.52,29.33-54.13,51.33-76.13s47.61-39.27,76.13-51.33C181.8,12.33,213.17,6,245.5,6
		 M245.5,0L245.5,0C109.91,0,0,109.91,0,245.5v9C0,390.09,109.91,500,245.5,500h0C381.09,500,491,390.09,491,254.5v-9
		C491,109.91,381.09,0,245.5,0L245.5,0z"/>
</g>
<g>
	<linearGradient id="SVGID_1_" gradientUnits="userSpaceOnUse" x1="32.7578" y1="250.2649" x2="458.7695" y2="250.2649">
		<stop  offset="0" style="stop-color:#FFFFFF"/>
		<stop  offset="1" style="stop-color:#FFFFFF"/>
	</linearGradient>
	<path class="st2" d="M245.76,464.6c-117.45,0-213.01-95.55-213.01-213.01v-2.65c0-117.45,95.55-213.01,213.01-213.01
		s213.01,95.55,213.01,213.01v2.65C458.77,369.04,363.22,464.6,245.76,464.6z"/>
	<path class="st3" d="M245.76,38.93c28.35,0,55.86,5.55,81.74,16.5c25.01,10.58,47.47,25.72,66.75,45.01
		c19.29,19.29,34.43,41.75,45.01,66.75c10.95,25.89,16.5,53.39,16.5,81.74v2.65c0,28.35-5.55,55.86-16.5,81.74
		c-10.58,25.01-25.72,47.47-45.01,66.75c-19.29,19.29-41.75,34.43-66.75,45.01c-25.89,10.95-53.39,16.5-81.74,16.5
		c-28.35,0-55.86-5.55-81.74-16.5c-25.01-10.58-47.47-25.72-66.75-45.01c-19.29-19.29-34.43-41.75-45.01-66.75
		c-10.95-25.89-16.5-53.39-16.5-81.74v-2.65c0-28.35,5.55-55.86,16.5-81.74c10.58-25.01,25.72-47.47,45.01-66.75
		s41.75-34.43,66.75-45.01C189.91,44.49,217.41,38.93,245.76,38.93 M245.76,32.93L245.76,32.93c-119.3,0-216.01,96.71-216.01,216.01
		v2.65c0,119.3,96.71,216.01,216.01,216.01h0c119.3,0,216.01-96.71,216.01-216.01v-2.65C461.77,129.64,365.06,32.93,245.76,32.93
		L245.76,32.93z"/>
</g>
<path class="st4" d="M105.07,248.51"/>
<polygon class="st3" points="138.24,345.16 135.51,341.23 136.45,340.85 "/>
<polygon class="st3" points="121.22,141.22 121.41,140.44 121.53,140.27 122.13,140.72 "/>
<path class="st5" d="M199.64,86.16c-0.19,0.55-6.56,6.24-10.71,9.57c-4.73,3.77-10.9,8.23-20.1,14.4
	c-18.36,12.38-23.89,16.97-30.22,25.14c-0.13,0.14-1.77,2.13-1.86,3.12c-0.23,2.57-1.48,9.81-2.35,13.68
	c-3.73,16.43-10.71,30.86-21.06,43.65c-3.05,3.74-9.07,10.08-9.58,10.08c-0.23,0-5.43-1.23-11.61-2.74
	c-18.78-4.6-20.1-4.9-20.22-4.77c-0.06,0.07-0.23,0.58-0.32,1.17l-0.19,1.03l13.89,3.39c7.65,1.85,15.11,3.7,16.56,4.05l2.67,0.69
	l0.96,3.36c6.66,23.04,7.72,42.69,3.22,60.32c-0.96,3.77-2.86,9.6-3.7,11.35c-0.39,0.79-1.35,3.6-0.26,3.33
	c1.35-0.34,1.35-0.34,3.47,1.65c6.46,6.07,13.76,16.15,18.71,25.89c5.31,10.46,9.97,24.62,12.64,38.37l0.68,3.57l1.77,1.58
	l3.83,0.38c26.85,2.57,48.68,12.83,66.94,31.34c1.8,1.85,3.44,3.26,3.63,3.12c0.45-0.31,2.96-0.69,3.02-0.75
	c0.26-0.31,19.68-5.86,24.63-7.1c18.2-4.46,31.77-4.73,45.53-0.86l2.57,0.72l2.12,7.1c5.02,16.63,6.33,21.06,6.49,21.19
	c0.1,0.1,1.93-0.69,1.86-1.06c-0.06-0.31-1.83-6.34-3.92-13.34c-2.12-7.03-3.89-13.13-3.92-13.58c-0.1-0.69,0.23-0.86,2.64-1.71
	c10.9-3.84,20.45-9.94,30.58-19.61c2.06-1.95,7.72-7.65,12.57-12.65c4.86-5.01,9.94-10.05,11.25-11.21l2.41-2.13
	c0,0,2.64-0.65,2.41-0.86c-0.29-0.31-0.19-2.23,0.58-9.4c1.54-14.57,2.86-21.4,5.43-28.53c4.47-12.28,12.96-21.06,25.56-26.37
	l2.51-1.1c0,0,3.67-1.58,3.31-1.68c-0.51-0.21-0.77-0.99-1.38-4.12c-0.39-2.09-2.09-10.01-3.76-17.59
	c-6.24-28.46-8.42-42.86-8.13-53.87l0.1-3.74l16.88-6.52c9.29-3.57,16.91-6.55,16.98-6.58c0.13-0.1-0.64-2.23-0.8-2.23
	c-0.06,0-7.72,2.91-16.98,6.52c-9.23,3.57-16.94,6.52-17.14,6.52c-0.61,0-5.37-4.36-8.3-7.61c-6.43-7.1-9.97-13.07-20.55-34.57
	c-2.09-4.25-4.73-9.46-5.85-11.59l-2.06-3.91l1.77-2.09c0.96-1.17-0.87-2.78-1.64-1.89c-1.25,1.47-1.41,1.54-1.77,0.99
	c-0.23-0.34-2.89-1.68-5.88-2.95c-30.51-12.89-45.4-23.39-56.49-39.78l-1.19-1.75l2.22-11.45c1.19-6.31-1.09-6.48-2.09-1.2
	s-1.99,10.22-2.19,10.97l-0.39,1.37l-6.59,1.75c-10.35,2.78-19.48,4.42-29.52,5.32c-5.82,0.51-19.68,0.21-24.82-0.55
	c-4.37-0.62-10.35-1.82-11.38-2.23C202.5,86.91,199.71,85.99,199.64,86.16z M273.08,96.07l-1.86,9.74l-3.54,0.96
	c-15.21,4.12-29.71,5.93-41.22,5.11c-7.75-0.55-16.78-2.06-17.36-2.91c-0.13-0.21-0.61-1.54-1.03-2.95
	c-3.99-13.51-4.73-16.12-4.5-16.12c0.16,0,1.29,0.24,2.51,0.51c12.57,2.81,29.9,3.02,45.24,0.51c5.34-0.89,13.95-2.78,19.29-4.22
	c2.67-0.72,4.21-1.03,4.28-0.79C274.91,86.12,274.11,90.68,273.08,96.07z M282.37,93.19c4.31,5.25,10.35,10.73,17.01,15.4
	c8.49,5.97,17.33,10.63,33.21,17.49c3.86,1.65,7.14,3.26,7.3,3.57c0.19,0.41-0.87,1.89-4.69,6.38c-6.66,7.78-7.17,8.33-7.46,7.82
	c-0.13-0.24-3.44-1.82-7.3-3.5c-24.18-10.46-35.98-18.79-45.11-31.93l-1.8-2.54l1.54-8.09c0.84-4.42,1.67-8.81,1.86-9.7l0.32-1.65
	l1.25,1.78C279.19,89.18,280.93,91.44,282.37,93.19z M203.66,99.12l2.86,9.7l-1.06,1.61c-4.34,6.58-11.93,15.12-18.13,20.4
	c-4.08,3.46-9.94,7.72-15.27,11.04c-5.37,3.33-16.62,9.46-17.17,9.33c-0.42-0.1-14.4-13.48-14.6-13.96
	c-0.16-0.48,4.21-5.52,7.11-8.16c5.34-4.9,10.96-9.12,22.51-16.8c11.83-7.89,21.99-15.5,27.39-20.61c1.41-1.34,2.77-2.4,3.02-2.37
	C200.64,89.35,201.77,92.67,203.66,99.12z M270.64,109c-0.1,0.34-1.03,5.14-2.09,10.7c-1.09,5.56-2.09,10.25-2.22,10.39
	c-0.39,0.41-9.29,2.57-14.53,3.5c-11.86,2.13-22.92,2.02-33.25-0.27c-1.19-0.27-2.31-0.62-2.44-0.75
	c-0.26-0.31-6.11-19.68-6.11-20.27c0-0.21,0.9-0.14,2.06,0.1c4.02,0.89,8.49,1.51,14.12,1.92c11.67,0.82,28.04-1.2,41.86-5.18
	C270.89,108.31,270.83,108.31,270.64,109z M274.08,110.71c1.29,2.09,5.66,7.1,8.26,9.57c9.03,8.5,19.1,14.54,37.46,22.43
	c3.18,1.37,6.01,2.71,6.27,2.98c0.39,0.38,0.32,0.58-0.51,1.54c-1.13,1.3-11.77,13.75-11.9,13.96c-0.06,0.07-0.29-0.03-0.51-0.21
	c-0.23-0.21-3.15-1.54-6.53-3.02c-7.33-3.15-15.98-7.61-19.93-10.29c-6.53-4.36-12.28-9.88-16.01-15.23l-1.74-2.5l1.96-10.25
	c1.06-5.66,2.03-10.25,2.15-10.25C273.14,109.44,273.63,110.02,274.08,110.71z M210.45,122.13c1.54,5.18,2.93,9.84,3.05,10.32
	c0.26,0.79,0,1.3-2.15,4.29c-3.12,4.36-9.61,11.21-13.73,14.57c-6.04,4.9-12.8,9.26-21.9,14.13l-4.18,2.23l-7.2-7
	c-3.99-3.84-7.27-7.1-7.3-7.24c-0.03-0.14,2.6-1.75,5.92-3.53c10.58-5.76,18.62-11.14,26.24-17.56c4.28-3.63,12.25-12.24,15.5-16.8
	c1.41-1.99,2.67-3.43,2.77-3.22C207.58,112.53,208.94,116.95,210.45,122.13z M343.53,136.43c1.16,2.23,4.15,8.2,6.66,13.31
	c8.49,17.15,10.96,21.54,15.75,27.91c2.51,3.33,7.81,9.02,10.06,10.84l1.22,0.96l-8.26,3.22l-8.26,3.19l-1.8-1.41
	c-2.8-2.19-8.33-8.4-10.64-11.9c-3.12-4.73-5.27-8.64-10.64-19.51c-2.7-5.42-5.66-11.32-6.62-13.07l-1.7-3.22l1.19-1.47
	c1.19-1.44,10.84-12.79,10.9-12.83C341.4,132.42,342.37,134.23,343.53,136.43z M264.33,141.74c-0.93,4.77-1.77,8.78-1.9,8.95
	c-0.13,0.14-1.9,0.65-3.92,1.13c-9.84,2.37-18.71,3.26-25.82,2.57c-4.15-0.38-10.35-1.47-10.74-1.92
	c-0.19-0.21-5.14-16.77-5.05-16.91c0.03-0.03,1.06,0.14,2.28,0.41c5.18,1.13,8.42,1.41,16.69,1.37c6.94,0,9.13-0.14,13.02-0.79
	c5.02-0.82,11.03-2.09,14.63-3.09c1.25-0.34,2.28-0.58,2.35-0.51C265.94,133,265.23,136.94,264.33,141.74z M274.43,140.48
	c7.4,7.78,15.98,13.17,32.12,20.1c2.77,1.2,5.05,2.33,5.05,2.57c0,0.21-2.32,3.09-5.14,6.41l-5.14,6l-5.88-2.54
	c-12.35-5.38-19.29-9.81-24.82-15.71c-1.77-1.92-3.76-4.32-4.4-5.35l-1.16-1.89l1.25-6.52c0.68-3.6,1.41-7.34,1.61-8.37l0.35-1.89
	l1.16,1.54C270.03,135.67,272.28,138.21,274.43,140.48z M217.26,145.17l2.6,8.68l-1,1.51c-1.61,2.43-7.75,9.09-10.77,11.66
	c-3.18,2.71-7.46,5.76-11.12,7.99c-4.21,2.57-11.12,6.17-11.54,6c-0.19-0.1-2.99-2.74-6.24-5.86l-5.85-5.69l3.6-1.92
	c9.23-4.94,16.94-9.98,22.83-14.92c3.79-3.22,10.22-10.01,12.8-13.61c0.96-1.34,1.86-2.43,1.96-2.47
	C214.63,136.53,215.85,140.44,217.26,145.17z M146.43,146.58c4.89,4.8,6.66,6.72,6.66,7.27c0,1.51-1.25,8.61-2.25,12.65
	c-3.86,15.98-12.51,31.34-23.89,42.42l-2.19,2.13l-8.91-2.16c-4.89-1.2-8.94-2.19-9-2.23c-0.03-0.03,1.48-1.75,3.38-3.81
	c15.88-17.21,24.79-36.52,28.55-61.97c0.13-0.89,0.32-1.2,0.58-1.03C139.58,140,142.73,143.01,146.43,146.58z M329.22,151.52
	c0.87,1.68,3.57,7.03,6.01,11.93c6.78,13.68,8.55,16.84,12.19,21.95c2.35,3.33,6.3,7.75,8.71,9.81c0.96,0.82,1.64,1.58,1.51,1.71
	c-0.13,0.14-3.83,1.65-8.26,3.33c-4.4,1.71-8.26,3.19-8.55,3.33c-0.35,0.14-1.38-0.55-3.22-2.16c-5.76-5.04-9.26-10.32-16.04-24.07
	c-1.8-3.67-4.08-8.2-5.05-10.05c-0.96-1.85-1.7-3.5-1.64-3.67c0.06-0.24,12.48-14.95,12.7-15.05
	C327.61,148.53,328.35,149.87,329.22,151.52z M261.95,154.19c-0.13,0.48-1,5.08-1.99,10.18c-0.96,5.14-1.83,9.4-1.9,9.46
	c-0.42,0.45-10.13,2.16-13.47,2.4c-6.91,0.45-15.59-0.62-16.24-1.95c-0.45-0.89-5.56-18.59-5.43-18.72c0.06-0.07,1.7,0.17,3.63,0.51
	c4.95,0.93,12.22,1.23,17.52,0.72c5.56-0.55,14.24-2.19,17.97-3.43C262.12,153.34,262.05,153.71,261.95,154.19z M269.45,159.51
	c5.4,5.66,12.89,10.42,24.31,15.4c3.02,1.3,5.47,2.54,5.47,2.74c0,0.31-11.67,14.09-11.93,14.09c-0.35,0-9.81-4.32-11.77-5.35
	c-5.66-3.02-11.03-7.65-13.63-11.62l-1.19-1.89l1.51-7.99c0.84-4.36,1.67-8.71,1.86-9.64l0.32-1.65l0.96,1.3
	C265.91,155.67,267.74,157.72,269.45,159.51z M164.28,163.93c4.57,4.42,6.17,6.17,6.17,6.76c0,1.47-1.32,8.02-2.25,11.32
	c-3.47,12.04-8.55,21.02-16.94,30.04c-2.35,2.54-3.34,3.81-3.22,4.18c0.16,0.45,0.03,0.51-0.51,0.38c-0.39-0.1-4.82-1.17-9.87-2.4
	c-5.05-1.23-9.32-2.3-9.55-2.4c-0.23-0.07,1.06-1.71,2.93-3.74c12.44-13.44,20.48-29.9,23.5-48.04c0.26-1.71,0.58-3.43,0.68-3.87
	C155.4,155.22,154.28,154.23,164.28,163.93z M223.76,167.09l2.96,10.01l-1.29,1.61c-4.21,5.38-10.96,10.77-18.75,14.95
	c-2.8,1.51-4.44,2.57-4.53,2.98c-0.13,0.51-1.61-0.75-7.23-6.28c-3.92-3.81-7.11-7.06-7.11-7.2c0-0.17,2.35-1.58,5.24-3.15
	c6.49-3.6,10.29-6.1,15.02-9.91c3.47-2.78,10.45-9.94,11.7-12.07c0.32-0.51,0.68-0.93,0.8-0.93
	C220.7,157.11,222.12,161.6,223.76,167.09z M318.29,175.97c8.13,16.36,11.61,21.78,17.07,26.64c1.22,1.1,2.15,2.09,2.03,2.19
	s-3.38,1.41-7.2,2.88l-7.01,2.67l-1.77-1.47c-4.73-3.91-7.97-8.64-13.83-20.4c-2.09-4.15-4.12-8.16-4.53-8.95l-0.77-1.37l5.34-6.28
	l5.37-6.24l0.64,1.13C313.98,167.39,316.07,171.54,318.29,175.97z M180.35,179.53c5.59,5.45,5.18,4.29,3.73,10.49
	c-2.41,10.39-6.72,18.59-13.89,26.47c-2.67,2.95-3.02,3.43-2.83,4.22c0.19,0.75,0.13,0.89-0.35,0.72c-0.32-0.1-4.02-1.03-8.23-2.09
	c-4.21-1.03-7.81-1.95-7.97-2.06c-0.55-0.38-0.29-0.79,2.31-3.67c9.49-10.36,15.69-22.43,18.46-35.9c0.45-2.19,0.9-4.36,1-4.77
	c0.16-0.79,0.19-0.79,1.51,0.51C174.82,174.18,177.65,176.93,180.35,179.53z M269,185.19c2.89,2.02,9.52,5.52,13.73,7.27
	c1.58,0.65,2.8,1.27,2.73,1.41c-0.03,0.1-1.83,2.3-4.02,4.87l-3.99,4.63l-1.48-0.62c-9.1-3.87-13.12-6.62-17.11-11.69l-1.32-1.68
	l1.19-6.45l1.19-6.45l3.25,3.46C264.98,181.83,267.58,184.2,269,185.19z M257.58,176.83c0,0.07-0.58,3.12-1.29,6.72
	c-0.71,3.63-1.29,6.62-1.29,6.65c0,0.07-1.7,0.45-3.76,0.86c-4.79,0.99-11.51,1.06-15.37,0.17c-1.41-0.31-2.64-0.62-2.67-0.69
	c-0.23-0.21-3.86-12.69-3.76-12.79c0.06-0.07,1.54,0.14,3.28,0.45c5.82,1.1,15.53,0.65,21.96-1.03
	C256.59,176.69,257.58,176.55,257.58,176.83z M228,181.35c0.16,0.72,1.03,3.67,1.9,6.58l1.61,5.28l-0.64,0.96
	c-1.9,2.88-7.27,7.1-13.15,10.42c-3.18,1.78-3.73,2.19-3.86,3.02c-0.16,0.96-0.26,0.89-4.82-3.57c-3.44-3.33-4.69-4.77-4.76-5.42
	c-0.06-0.82,0.23-1.06,3.89-3.05c7.27-3.94,12.35-7.82,16.62-12.69c1.32-1.51,2.51-2.74,2.64-2.78
	C227.55,180.12,227.81,180.67,228,181.35z M304.33,187.22c6.49,13.1,8.78,16.8,13.28,21.33c1.51,1.51,2.7,2.81,2.64,2.88
	c-0.06,0.07-3.76,1.54-8.23,3.26l-8.1,3.15l-0.9-0.79c-2.54-2.23-4.73-4.7-6.14-6.89c-1.32-2.06-8.01-14.88-8.2-15.77
	c-0.06-0.24,11.7-14.27,11.99-14.27C300.76,180.08,302.4,183.31,304.33,187.22z M195.37,194.14c6.94,6.72,6.53,5.86,5.11,10.7
	c-1.86,6.38-4.95,11.86-9.29,16.7c-2.6,2.88-2.73,3.09-2.41,3.98c0.19,0.51,0.29,1.03,0.23,1.1c-0.06,0.07-4.34-0.93-9.52-2.16
	c-11.48-2.81-11.06-2.4-6.88-7.13c6.78-7.65,11.54-16.97,13.79-27.06l0.9-4.01l1,0.99C188.81,187.8,192.02,190.88,195.37,194.14z
	 M378.48,195.75c0,11.52,2.28,26.27,8.2,52.91c0.84,3.67,2.06,9.4,2.77,12.69c0.68,3.29,1.32,6.34,1.41,6.76
	c0.13,0.65,0.03,0.79-0.55,0.75c-0.42,0-4.73-1.06-9.58-2.33l-8.84-2.3l-3.25-8.88c-7.4-20.34-9.65-29.32-10-40.16
	c-0.19-5.9,0.26-10.32,1.54-14.71l0.58-2.06l8.46-3.33c4.66-1.82,8.65-3.33,8.87-3.33C378.38,191.74,378.48,192.77,378.48,195.75z
	 M253.21,199.63l-1.22,6.17l-1.29,0.41c-1.35,0.41-7.49,0.55-10.96,0.27l-1.93-0.17l-1.86-6.31c-1.03-3.43-1.8-6.34-1.7-6.45
	c0.06-0.1,0.93,0,1.86,0.24c4.15,0.96,12.89,0.65,17.14-0.62c0.55-0.17,1-0.17,1.06-0.03C254.37,193.32,253.88,196.23,253.21,199.63
	z M261.28,197.13c2.67,2.4,5.66,4.22,10.22,6.28c2.15,0.96,3.99,1.82,4.05,1.92c0.06,0.07-1.16,1.61-2.73,3.43
	c-1.58,1.82-3.31,3.87-3.86,4.53l-1,1.23l-2.86-1.3c-4.15-1.89-6.21-3.33-8.52-5.97l-2.06-2.33l1-5.11
	c0.55-2.85,1.09-5.59,1.22-6.17l0.26-1.03l1.16,1.41C258.8,194.79,260.22,196.2,261.28,197.13z M234.27,202.65l1.86,6.28l-0.93,1.06
	c-1.41,1.58-4.5,3.81-7.43,5.38c-2.41,1.27-2.64,1.47-2.73,2.5c-0.06,0.62-0.23,1.13-0.39,1.1c-0.16,0-2.22-1.85-4.57-4.12
	c-5.53-5.28-5.59-5.8-1.13-8.2c3.89-2.06,8.23-5.25,11.03-8.02c1.29-1.3,2.38-2.33,2.38-2.3
	C232.41,196.34,233.27,199.18,234.27,202.65z M289.9,202.1c3.76,7.65,5.53,10.49,8.58,13.82c1.38,1.47,2.38,2.85,2.25,2.98
	c-0.13,0.14-2.57,1.17-5.47,2.26l-5.21,2.06l-2.19-2.3c-2.64-2.74-4.08-5.01-6.94-10.77c-2.15-4.32-2.15-4.39-1.58-5.18
	c0.87-1.23,7.3-8.74,7.49-8.74C286.94,196.23,288.32,198.87,289.9,202.1z M357.9,199.77c0,0.1-0.32,1.51-0.71,3.19
	c-0.61,2.64-0.71,3.94-0.71,10.39c0,7.78,0.23,9.84,1.93,17.49c1.09,4.84,4.66,16.01,7.94,25.03c1.51,4.05,2.67,7.44,2.64,7.48
	c-0.19,0.24-19.61-4.84-19.97-5.21c-0.48-0.48-5.14-13.41-6.98-19.41c-2.73-8.78-4.02-16.87-3.67-22.98
	c0.19-3.26,0.96-7.85,1.48-8.85c0.16-0.27,4.15-2.02,8.91-3.87C357.42,199.66,357.9,199.49,357.9,199.77z M207.91,206.28
	c2.12,2.06,4.18,4.05,4.6,4.46l0.71,0.75l-0.74,2.37c-1.51,4.73-3.34,7.96-6.59,11.56l-2.09,2.3l0.35,1.41
	c0.16,0.75,0.26,1.37,0.16,1.37c-0.19,0-11.38-2.74-12.06-2.95c-0.29-0.1-0.68-0.65-0.87-1.23c-0.32-0.99-0.26-1.13,2.12-3.84
	c4.66-5.28,8.01-11.8,9.74-19.03c0.23-0.86,0.48-1.37,0.58-1.2C203.95,202.41,205.78,204.22,207.91,206.28z M337.19,208.07
	c-0.51,1.44-1.16,6.72-1.16,9.53c0,8.68,2.25,18.28,7.88,33.74c1.19,3.29,2.09,6,2.03,6.07c-0.16,0.21-16.11-3.94-16.37-4.22
	c-0.39-0.45-4.4-11.83-5.56-15.84c-1.99-6.76-2.57-10.18-2.54-15.6c0-2.88,0.19-5.56,0.45-6.65l0.45-1.82l7.23-2.85
	c3.99-1.58,7.36-2.85,7.52-2.88C337.26,207.52,337.29,207.76,337.19,208.07z M279,211.53c2.54,5.14,5.02,9.09,6.72,10.66
	c0.84,0.79,1.38,1.54,1.29,1.82c-0.1,0.27-2.38,1.3-5.08,2.33c-2.67,1.03-5.08,1.95-5.34,2.02c-0.29,0.14-0.39,0.03-0.23-0.21
	c0.13-0.24-0.55-1.2-1.64-2.37c-1.74-1.85-5.24-7.89-5.24-9.02c0-0.41,7.07-8.85,7.46-8.88C277.07,207.86,278,209.51,279,211.53z
	 M255.07,209.37c1.22,1.61,5.11,4.32,8.17,5.66c1.38,0.62,2.64,1.23,2.77,1.37c0.1,0.1-1.06,1.65-2.6,3.39l-2.8,3.15l-2.67-1.37
	c-1.74-0.89-3.18-1.95-4.18-3.02l-1.48-1.68l0.8-4.32c0.45-2.4,0.87-4.36,0.96-4.36C254.14,208.2,254.59,208.72,255.07,209.37z
	 M251.38,209.2c-0.06,0.38-0.48,2.43-0.9,4.63l-0.77,3.98l-1.09,0.21c-0.61,0.14-2.35,0.14-3.92,0.03
	c-2.09-0.17-2.86-0.14-2.96,0.21c-0.06,0.21-0.19,0.34-0.29,0.24c-0.26-0.31-2.51-8.37-2.51-8.98c0-0.51,0.45-0.55,4.28-0.38
	c2.31,0.07,5.05,0,6.01-0.17s1.9-0.34,2.06-0.38C251.41,208.58,251.47,208.85,251.38,209.2z M117.01,211.67l9.07,2.16l0.77,2.78
	c4.28,15.02,5.72,28.84,4.34,40.98c-0.64,5.56-3.22,15.4-5.05,19.48l-0.55,1.2l-8.91,2.64c-4.92,1.44-8.94,2.57-8.94,2.47
	c0-0.07,0.71-2.33,1.58-5.01c3.15-9.77,4.34-17.45,4.34-28.5c0-7.89-0.29-11.25-1.58-19.2c-1.06-6.45-3.63-17.42-4.92-21.06
	c-0.13-0.31,0-0.45,0.29-0.31C107.72,209.37,111.99,210.43,117.01,211.67z M238.32,216.3l1.29,4.42l-0.9,0.79
	c-0.48,0.41-1.8,1.27-2.89,1.85c-1.86,1.06-1.99,1.2-2.19,2.57c-0.1,0.82-0.29,1.47-0.39,1.47c-0.1,0-1.58-1.37-3.31-3.09
	l-3.12-3.09l0.32-1.47c0.29-1.41,0.45-1.58,2.44-2.64c2.28-1.2,5.59-3.6,6.59-4.77c0.35-0.41,0.68-0.65,0.74-0.58
	C236.97,211.84,237.62,213.86,238.32,216.3z M224.14,222.09c0,0.07-0.23,0.69-0.51,1.41c-0.71,1.82-2.22,4.15-3.86,5.97
	c-1.35,1.47-1.38,1.61-1.09,2.74c0.39,1.44,0.42,2.16,0.06,1.92c-0.13-0.07-2.57-0.72-5.37-1.37c-2.83-0.69-5.47-1.37-5.82-1.54
	c-0.45-0.21-0.77-0.75-0.9-1.58c-0.23-1.2-0.13-1.37,1.48-3.19c2.73-3.09,5.27-7.54,6.37-11.21c0.23-0.75,0.48-1.47,0.55-1.65
	C215.14,213.41,224.14,221.82,224.14,222.09z M138.78,216.95c5.31,1.3,9.81,2.5,10.03,2.71c0.51,0.48,2.48,8.61,3.31,13.68
	c1.48,8.74,1.38,18-0.19,25.58c-0.68,3.26-1.96,7.44-3.5,11.42c-0.16,0.41-0.1,0.62,0.19,0.62c1.25,0-1.09,0.82-9.94,3.46
	c-5.43,1.61-9.9,2.88-9.97,2.85c-0.06-0.03,0.39-1.51,1-3.29c5.02-14.33,5.63-29.49,1.96-47.25c-0.77-3.6-2.51-10.7-2.96-11.93
	c-0.1-0.31-0.03-0.45,0.13-0.34S133.47,215.68,138.78,216.95z M319.41,216.33c-0.42,3.33-0.23,10.01,0.35,13.24
	c0.84,4.66,2.54,10.63,4.86,17.04c1.16,3.22,2.09,5.9,2.09,6c0,0.07-0.39,0-0.87-0.17c-0.51-0.17-4.66-1.23-9.26-2.43
	c-4.6-1.17-8.52-2.3-8.71-2.5c-0.61-0.62-3.5-9.29-4.5-13.41c-0.8-3.22-0.93-4.42-0.93-8.3c0-2.47,0.1-4.6,0.19-4.7
	c0.19-0.21,16.27-6.62,16.78-6.69C319.54,214.37,319.54,215.27,319.41,216.33z M269.32,221.99c0.9,1.75,2.28,3.94,3.12,4.9
	c1.9,2.23,1.8,2.43-2.44,4.08c-3.5,1.37-3.73,1.41-3.73,0.86c0-0.24-0.58-1.06-1.25-1.85c-0.71-0.82-1.64-2.23-2.09-3.19l-0.8-1.68
	l2.6-3.12c1.45-1.75,2.7-3.15,2.8-3.15S268.45,220.27,269.32,221.99z M160,222.16c4.44,1.1,8.13,2.13,8.26,2.3
	c0.29,0.45,1.7,6.72,2.41,10.66c0.39,2.23,0.55,4.84,0.55,9.26c0,7.06-0.61,10.94-2.6,16.6c-0.93,2.67-1.06,3.36-0.74,3.91
	c0.19,0.34,0.32,0.69,0.26,0.75c-0.39,0.38-16.56,4.87-16.75,4.66c-0.13-0.14,0.35-2.13,1.06-4.39c4.02-12.83,4.08-25.51,0.23-41.36
	c-0.58-2.4-1-4.36-0.9-4.36C151.86,220.2,155.59,221.1,160,222.16z M253.18,221.44c0.74,0.65,2.31,1.71,3.5,2.3
	c1.19,0.62,2.19,1.17,2.19,1.27c0,0.1-0.64,0.86-1.41,1.68l-1.38,1.47l-1.58-0.89c-0.87-0.48-2.03-1.34-2.6-1.89l-1.03-1.03
	l0.35-2.06c0.19-1.17,0.42-2.09,0.51-2.09C251.79,220.2,252.47,220.75,253.18,221.44z M249.13,220.99
	c-0.06,0.24-0.32,1.34-0.55,2.43l-0.39,1.99l-1.77-0.24c-1.35-0.17-1.86-0.1-2.31,0.31c-0.48,0.48-0.58,0.34-1.13-1.68
	c-0.87-3.22-0.8-3.26,3.05-3.26C248.55,220.55,249.25,220.65,249.13,220.99z M300.09,225.35c-0.16,5.14,1.38,12.21,4.28,19.82
	c0.32,0.82,0.48,1.54,0.42,1.65c-0.1,0.07-2.93-0.58-6.3-1.44l-6.14-1.58l-0.96-2.64c-1.77-4.97-2.38-7.85-2.41-11.49l-0.03-3.39
	l5.47-2.16c3.02-1.2,5.53-2.16,5.63-2.16C300.12,221.92,300.15,223.46,300.09,225.35z M241.51,227.61c0,0.21-0.51,0.65-1.13,1.03
	c-0.71,0.41-1.22,0.99-1.32,1.51c-0.35,1.61-0.48,2.06-0.71,2.06c-0.13,0-0.9-0.62-1.7-1.37l-1.48-1.34l0.39-1.65
	c0.35-1.51,0.55-1.75,2.6-3.05l2.22-1.37l0.55,1.89C241.25,226.38,241.51,227.41,241.51,227.61z M229.16,226.93
	c1.67,1.65,3.02,3.09,3.02,3.22c0,0.14-0.58,0.96-1.32,1.82c-1.22,1.51-1.29,1.65-0.96,2.88c0.19,0.72,0.35,1.47,0.35,1.68
	c0,0.24-1.58-0.03-4.24-0.69l-4.24-1.1l-0.42-1.47c-0.42-1.51-0.39-1.51,0.8-2.91c1.29-1.47,3.6-5.35,3.6-6
	c0-0.21,0.1-0.38,0.19-0.38C226.04,223.98,227.49,225.31,229.16,226.93z M177.71,226.51c3.34,0.82,7.46,1.82,9.16,2.23
	c3.05,0.75,3.12,0.79,3.31,1.85c0.1,0.62,0.42,2.16,0.68,3.5c0.26,1.3,0.58,4.49,0.68,7.03c0.23,5.35-0.26,8.88-1.83,13.51
	l-0.96,2.78l0.87,0.79c0.45,0.45,0.8,0.82,0.74,0.89c-0.23,0.17-19.1,5.69-19.48,5.69c-0.68,0-0.77-1.23-0.23-2.61
	c0.71-1.82,1.9-6.28,2.41-9.22c0.29-1.51,0.45-4.73,0.42-8.74c0-6.52-0.55-10.94-2.03-16.87c-0.45-1.75-0.48-2.33-0.19-2.33
	C171.48,225.01,174.37,225.69,177.71,226.51z M263.4,231.9c0.84,0.51,0.06,1.51-1.77,2.23c-1.77,0.75-1.86,0.75-1.7,0.14
	c0.1-0.38-0.1-0.89-0.51-1.27c-0.35-0.34-0.9-1.06-1.22-1.61l-0.58-0.99l1.35-1.65l1.32-1.61l1.38,2.26
	C262.44,230.66,263.24,231.76,263.4,231.9z M253.37,229.6c1.06,0.62,1.06,0.62,0.45,1.27c-0.71,0.79-1.41,0.62-2.89-0.75
	c-0.77-0.69-0.96-1.1-0.84-1.82l0.16-0.93l1.03,0.82C251.83,228.64,252.76,229.29,253.37,229.6z M286.52,229.6
	c0,2.74,0.68,6.28,1.93,10.12c0.55,1.61,0.96,3.02,0.96,3.12c0,0.14-2.67-0.48-5.95-1.34c-5.43-1.41-5.95-1.61-6.24-2.43
	c-0.61-1.65-1.29-4.63-1.38-6.17l-0.1-1.51l4.98-1.99c2.73-1.06,5.18-1.95,5.4-1.95C286.39,227.41,286.52,228.06,286.52,229.6z
	 M247.55,228.67c-0.06,0.65-0.32,0.99-0.74,1.06c-0.35,0.07-0.87,0.38-1.16,0.65c-0.48,0.41-0.58,0.38-0.84-0.48
	c-0.48-1.41,0.1-2.16,1.61-2.16C247.58,227.75,247.65,227.82,247.55,228.67z M198.77,231.66c3.41,0.86,6.3,1.71,6.43,1.95
	c0.13,0.24,0.42,1.75,0.64,3.36c0.55,4.18,0.23,8.47-0.93,12.28l-0.93,3.12l0.96,1.06c0.74,0.79,0.87,1.06,0.51,1.2
	c-0.26,0.1-3.09,0.96-6.33,1.92l-5.85,1.71l-0.93-0.72l-0.9-0.72l0.87-2.78c0.48-1.54,1.06-4.15,1.29-5.76
	c0.51-3.77,0.26-11.04-0.58-15.16c-0.32-1.65-0.55-2.98-0.51-2.98C192.57,230.15,195.37,230.83,198.77,231.66z M242.76,231.25
	c0.29,0.82-0.29,3.05-1.03,3.98c-0.64,0.82-0.55,4.9,0.13,5.73c0.32,0.38,0.68,1.23,0.84,1.89c0.23,0.96,0.48,1.23,1.25,1.37
	c0.8,0.17,0.93,0.31,0.84,1.2c-0.06,0.58-0.16,1.06-0.19,1.1c-0.03,0.07-0.77-0.14-1.61-0.45c-1.13-0.41-1.61-0.82-1.83-1.47
	c-0.16-0.48-0.58-1.44-0.9-2.09c-0.42-0.82-0.51-1.47-0.35-2.13c0.13-0.51,0.16-1.03,0.03-1.13c-0.39-0.41-0.9-3.6-0.61-3.81
	c0.39-0.27,1.86-3.43,1.86-4.05c0-0.45,0.42-0.79,1.06-0.86C242.37,230.49,242.6,230.83,242.76,231.25z M235.49,233.17
	c0.68,0.75,1.19,1.47,1.16,1.65c-0.06,0.17,0.03,0.96,0.16,1.78c0.13,0.82,0.19,1.58,0.1,1.65c-0.1,0.1-1.03,0-2.12-0.24l-1.93-0.45
	l-0.35-1.65c-0.29-1.58-0.26-1.75,0.55-2.88c0.51-0.62,0.96-1.17,1.06-1.17C234.21,231.86,234.85,232.45,235.49,233.17z
	 M274.14,236.84c0.26,1.13,0.39,2.09,0.32,2.16c-0.26,0.27-7.68-1.82-8.1-2.26c-1-1.1-0.48-1.58,3.22-2.98l3.6-1.37l0.26,1.2
	C273.56,234.23,273.88,235.7,274.14,236.84z M256.71,233.54c0.68,1.23,0.71,2.3,0.03,2.57c-0.8,0.34-1.09,0.24-1.09-0.38
	c0-0.31-0.23-0.86-0.55-1.2c-0.48-0.58-0.48-0.65,0.06-1.3C255.94,232.34,256.04,232.38,256.71,233.54z M214.02,235.4l5.79,1.44
	l-0.03,3.6c-0.03,2.78-0.19,4.01-0.68,5.38l-0.68,1.82l1.25,1.2c0.8,0.75,1.13,1.27,0.87,1.37c-0.23,0.07-2.99,0.89-6.14,1.85
	l-5.72,1.68l-1.03-0.99l-1-0.96l0.55-1.82c0.96-3.33,1.29-6.41,1.09-10.36c-0.13-2.09-0.29-4.22-0.42-4.77
	c-0.1-0.51-0.06-0.93,0.06-0.93C208.1,233.96,210.83,234.61,214.02,235.4z M256.84,237.21c0.39,0.14,0.84,0.65,1.03,1.23
	c0.29,0.89,0.26,1.13-0.19,1.51c-0.74,0.55-0.9,0.41-1.48-1.41C255.69,236.94,255.69,236.9,256.84,237.21z M228.26,238.93
	c2.6,0.62,2.67,0.72,1.8,3.39l-0.48,1.61l1.13,1.17c0.64,0.65,1.16,1.34,1.16,1.47c0,0.14-1.9,0.86-4.24,1.54l-4.24,1.27l-1.06-1.23
	l-1.06-1.23l0.48-2.02c0.26-1.1,0.48-3.22,0.48-4.73v-2.74l1.86,0.45C225.08,238.14,226.97,238.62,228.26,238.93z M262.82,238.76
	c1.06,0.27,1.67,0.65,1.9,1.17c0.26,0.65,0.06,0.99-1.48,2.71l-1.8,1.95l-1.35-1.34l-1.35-1.34l1.19-0.48
	c1.35-0.51,1.35-0.58,0.71-2.23c-0.42-1.13-0.42-1.2,0.1-1.03C261.02,238.28,261.99,238.52,262.82,238.76z M235.49,240.64
	c0.68,0.14,1.16,0.41,1.09,0.62s0.35,0.96,0.93,1.68c0.61,0.69,1.09,1.41,1.09,1.58c0,0.34-3.09,1.41-3.92,1.41
	c-0.23-0.03-0.84-0.65-1.32-1.41c-0.77-1.2-0.87-1.61-0.68-2.95c0.19-1.34,0.29-1.51,0.9-1.34
	C233.95,240.33,234.82,240.54,235.49,240.64z M271.7,241.02c4.69,1.13,5.53,1.95,3.31,3.15c-2.35,1.27-4.08,3.91-5.24,7.85
	c-0.16,0.48-5.85-4.77-6.01-5.52c-0.19-0.96,1.29-2.74,2.83-3.43l1.58-0.69l-0.45-1.17c-0.29-0.72-0.32-1.13-0.1-1.13
	C267.81,240.09,269.64,240.51,271.7,241.02z M255.97,243.39c0,0.55-0.42,0.99-1.51,1.65c-0.8,0.51-1.51,0.86-1.58,0.82
	c-0.03-0.07-0.16-0.48-0.29-0.96c-0.16-0.75-0.03-0.96,0.93-1.47c0.8-0.38,1.16-0.79,1.16-1.3c0-0.72,0.03-0.75,0.64-0.14
	C255.69,242.32,255.97,242.94,255.97,243.39z M284.14,244.21c6.72,1.71,6.56,1.68,6.56,2.16c0,0.24-0.93,0.93-2.06,1.54
	c-2.25,1.23-4.4,3.46-5.76,5.9c-0.9,1.65-2.15,6.07-2.15,7.61c0,0.51-0.13,0.99-0.29,1.1s-2.19-1.65-4.5-3.94
	c-4.66-4.56-4.4-3.98-3.34-7.61c0.68-2.3,2.15-3.94,4.53-5.11c2.06-0.99,2.22-1.23,1.67-2.37c-0.19-0.34-0.29-0.65-0.23-0.65
	C278.67,242.84,281.18,243.45,284.14,244.21z M260.96,248.12c0,0.48-0.61,1.06-1.96,1.89c-1.06,0.69-2.35,1.58-2.86,2.02
	c-0.51,0.41-1.03,0.65-1.16,0.51c-0.13-0.14-0.45-1.1-0.74-2.06l-0.48-1.82l1.06-0.86c0.58-0.48,1.51-1.03,2.03-1.23
	c0.58-0.21,1.06-0.65,1.16-1.06c0.19-0.69,0.29-0.65,1.58,0.62C260.35,246.85,260.96,247.74,260.96,248.12z M250.51,246.13
	c0.19,0.48,0.32,0.93,0.32,0.96c0,0.07-0.61,0.21-1.35,0.34c-0.77,0.1-1.67,0.27-2.06,0.41c-0.58,0.17-0.64,0.07-0.51-0.86
	c0.1-0.82,0.35-1.13,1.16-1.37C249.74,245.1,250.19,245.17,250.51,246.13z M300.44,248.39c3.12,0.79,5.69,1.54,5.66,1.65
	c0,0.1-1.29,0.82-2.86,1.65c-6.3,3.22-9.74,8.98-11.06,18.52c-0.23,1.75-0.48,3.26-0.58,3.33c-0.13,0.14-2.28-1.89-7.46-6.96
	l-1.58-1.54l0.39-2.81c0.93-7.13,3.28-10.7,8.62-13.07c1.22-0.51,2.22-0.99,2.28-1.03s-0.06-0.41-0.26-0.86
	c-0.35-0.69-0.32-0.72,0.35-0.55C294.36,246.85,297.29,247.6,300.44,248.39z M239.58,247.64c0,0.17,0.26,0.34,0.55,0.34
	c0.39,0,0.06,0.51-1.03,1.71c-1.96,2.13-2.67,2.13-3.22,0.1l-0.42-1.47l1.35-0.34c0.71-0.21,1.48-0.45,1.64-0.51
	C239.09,247.23,239.58,247.29,239.58,247.64z M244.08,249.32c0,0.38-0.74,4.32-0.84,4.42c-0.06,0.1-2.7-1.23-2.99-1.51
	c-0.32-0.31,2.96-3.5,3.38-3.33C243.89,249.01,244.08,249.18,244.08,249.32z M233.92,251.58c0.26,1.13,0.64,2.09,0.87,2.19
	c0.42,0.14-5.79,6.89-6.37,6.89c-0.23,0-0.55-0.65-0.74-1.47c-0.55-2.19-1.58-5.08-2.28-6.38c-0.35-0.62-0.58-1.2-0.55-1.27
	c0.29-0.31,8.17-2.4,8.36-2.23C233.31,249.42,233.63,250.45,233.92,251.58z M266.78,253.09c1.77,1.68,2.57,2.71,2.48,3.09
	c-0.06,0.31-1.06,0.99-2.19,1.54c-2.51,1.2-5.34,3.15-7.2,5.01c-0.77,0.75-1.45,1.34-1.48,1.3c-0.19-0.24-2.41-7.85-2.41-8.26
	c0-0.69,2.7-2.85,5.08-4.05c1.19-0.62,1.99-1.23,1.99-1.58C263.05,249.49,263.14,249.56,266.78,253.09z M252.21,251.86
	c0.29,1.03,0.55,1.92,0.55,2.02s-1,0.27-2.19,0.38c-1.19,0.14-2.86,0.45-3.7,0.72c-0.84,0.27-1.51,0.38-1.51,0.27
	c0.03-0.14,0.19-1.17,0.42-2.3c0.39-1.89,0.48-2.09,1.51-2.47c0.61-0.24,1.86-0.41,2.77-0.41l1.61-0.03L252.21,251.86z
	 M317.71,252.82c4.5,1.13,8.39,2.16,8.65,2.23c0.26,0.07-0.77,0.79-2.25,1.54c-5.82,3.02-9.58,6.82-12.19,12.48
	c-1.93,4.15-2.99,8.44-3.73,14.95c-0.32,2.71-0.61,5.01-0.64,5.08c-0.06,0.07-3.15-2.85-6.91-6.48l-6.78-6.62l0.23-2.54
	c0.9-10.18,4.02-16.25,10.03-19.58c1.38-0.75,3.05-1.54,3.73-1.78c0.64-0.21,1.19-0.62,1.19-0.89c0-0.27,0.1-0.48,0.26-0.48
	C309.41,250.72,313.21,251.65,317.71,252.82z M223.98,255.35c0.45,1.06,1.09,3.22,1.48,4.8c0.39,1.61,0.84,2.91,1,2.91
	c0.19,0-1.67,2.16-4.12,4.8s-4.6,4.8-4.82,4.8c-0.23,0-0.58-0.65-0.77-1.47c-1.29-5.35-3.25-10.36-5.31-13.58
	c-0.8-1.23-1.03-1.82-0.74-1.92c0.23-0.07,2.6-0.79,5.24-1.58c2.67-0.75,5.18-1.51,5.63-1.65
	C222.5,252.16,222.83,252.51,223.98,255.35z M239.96,254.98c3.02,1.44,2.89,1.1,1.96,6.21c-0.45,2.43-0.87,4.53-0.93,4.6
	c-0.06,0.07-0.87-0.41-1.8-1.1c-1.7-1.2-5.34-2.98-6.11-2.98c-0.23,0-0.64-0.17-0.9-0.34c-0.39-0.27,0.13-0.99,2.73-3.77
	c1.77-1.89,3.25-3.43,3.28-3.43S239.03,254.53,239.96,254.98z M338.09,258.06l7.04,1.82l-2.22,0.99
	c-4.98,2.23-10.74,7.2-13.54,11.62c-2.6,4.12-4.4,8.85-5.56,14.54c-0.68,3.26-1.93,12.83-1.93,14.64c0,0.65-0.1,1.17-0.19,1.17
	c-0.16,0-8.2-7.68-11.32-10.8l-0.77-0.75l0.68-5.73c0.74-6.14,1.25-8.85,2.25-11.97c2.12-6.58,6.11-11.38,12.09-14.57
	c1.51-0.82,5.92-2.78,6.27-2.78C330.99,256.25,334.2,257.07,338.09,258.06z M209.48,258.89c2.31,3.74,4.5,9.57,5.21,13.96
	c0.13,0.75,0.32,1.61,0.48,1.92c0.19,0.41-0.9,1.75-4.47,5.56c-2.6,2.78-4.82,5.04-4.92,5.04c-0.13,0-0.39-0.96-0.61-2.16
	c-1.32-7.13-5.21-16.32-9.03-21.23l-1.29-1.61l1.7-0.51c0.93-0.27,3.73-1.13,6.21-1.89s4.66-1.37,4.89-1.37
	C207.84,256.55,208.68,257.62,209.48,258.89z M253.76,257.21c0.16,0.17,2.54,7.96,2.54,8.3c0,0.07-1.35,0.1-3.02,0.03
	c-2.41-0.1-3.76,0.07-6.49,0.75c-1.9,0.51-3.5,0.86-3.57,0.79c-0.13-0.14,1.48-8.47,1.7-8.85c0.13-0.27,3.95-1.27,5.43-1.44
	C251.51,256.66,253.5,256.9,253.76,257.21z M280.09,266.19c0,0.14-1.54,1.03-3.44,1.99c-4.4,2.26-7.97,4.8-11.25,8.06l-2.6,2.61
	l-1.8-5.9l-1.8-5.93l2.41-2.47c1.93-1.99,3.15-2.85,6.11-4.39c2.03-1.06,3.7-2.09,3.7-2.26c0-0.21,1.96,1.54,4.34,3.84
	C278.13,264.06,280.09,266.05,280.09,266.19z M193.66,262.55c3.83,4.63,7.43,12.65,9.1,20.4c0.32,1.41,0.68,3.02,0.8,3.6
	c0.19,0.99-0.13,1.41-6.85,8.81c-3.89,4.32-7.17,7.82-7.33,7.82c-0.51,0-5.53-8.44-7.59-12.83c-1.16-2.47-3.41-7.89-4.98-12.04
	c-1.58-4.15-3.28-8.37-3.79-9.36c-0.71-1.37-0.8-1.85-0.51-1.99c0.87-0.34,19.65-5.9,19.84-5.83
	C192.44,261.15,193.02,261.8,193.66,262.55z M356.84,262.9c4.02,1.06,7.81,2.02,8.39,2.13c0.96,0.17,1.48,0.79,0.68,0.79
	c-0.71,0-6.17,3.12-8.62,4.9c-3.15,2.3-7.52,6.96-9.42,10.01c-3.25,5.32-5.5,11.45-6.85,18.48c-0.77,4.08-2.41,16.91-2.41,18.83
	c0,0.55-0.13,0.93-0.29,0.86c-0.19-0.03-3.5-3.19-7.43-6.96l-7.11-6.86l0.19-1.89c0.1-1.03,0.42-3.81,0.68-6.17
	c1.96-17.39,6.08-25.75,15.66-31.96c2.28-1.47,7.68-3.98,8.65-4.01C349.25,261.01,352.79,261.87,356.84,262.9z M233.08,264.3
	c2.7,0.96,4.02,1.71,6.04,3.43l1.32,1.1l-0.93,4.77c-0.48,2.61-1.06,5.52-1.25,6.52l-0.32,1.75l-2.32-1.85
	c-1.29-1.03-3.6-2.57-5.21-3.39c-2.8-1.47-7.88-3.26-9.26-3.26c-0.51,0,0.45-1.23,3.95-4.97c2.57-2.74,4.86-4.97,5.08-4.97
	S231.73,263.82,233.08,264.3z M378.25,268.38c4.12,1.06,7.68,1.99,7.94,2.09c0.26,0.1-0.87,0.86-2.73,1.82
	c-4.66,2.4-9.74,6.14-13.05,9.67c-6.88,7.37-10.84,16.01-13.28,29.11c-0.74,3.94-2.12,14.88-2.64,20.82
	c-0.13,1.37-0.26,2.5-0.32,2.5c-0.16,0-13.63-13.1-13.63-13.24c0-0.51,1.41-12.83,1.8-15.74c1.29-9.74,3.47-16.67,7.14-22.8
	c3.63-6.1,9.45-11.04,17.27-14.61c1.77-0.79,3.41-1.47,3.63-1.47C370.6,266.5,374.14,267.36,378.25,268.38z M171,270.13
	c0.58,1.13,2.35,5.49,3.92,9.67c4.18,10.97,7.88,18.41,11.99,24.11l0.87,1.2l-6.24,6.65c-4.02,4.29-6.3,6.48-6.4,6.14
	c-0.06-0.24-0.58-2.57-1.16-5.11c-3.5-15.53-10-29.01-18.55-38.41l-1.7-1.92l7.62-2.26c4.21-1.27,7.88-2.26,8.13-2.23
	C169.74,268.01,170.42,268.97,171,270.13z M256.97,268.45c0.35,0.38,3.92,11.76,3.76,11.97c-0.06,0.03-0.9-0.07-1.86-0.27
	c-3.15-0.62-8.33-0.1-13.76,1.37c-2.67,0.72-4.89,1.23-4.89,1.13s0.51-3.02,1.16-6.41l1.19-6.24l2.6-0.72
	c1.45-0.41,3.18-0.89,3.89-1.06C250.83,267.8,256.52,267.97,256.97,268.45z M287,272.67c4.18,4.01,4.37,4.29,3.67,4.6
	c-2.54,1.06-8.23,4.12-10.51,5.62c-3.92,2.61-6.3,4.63-9.65,8.23c-1.67,1.75-3.05,3.15-3.09,3.09c-0.06-0.07-0.9-2.85-1.93-6.21
	l-1.8-6.1l1.19-1.58c2.22-2.88,7.01-6.86,10.71-8.85c2.38-1.3,6.53-3.22,6.82-3.15C282.5,268.35,284.59,270.3,287,272.67z
	 M153.89,276.17c9.07,10.29,14.98,23.08,18.62,40.36l0.8,3.91l-4.79,5.35c-2.64,2.95-6.01,6.65-7.52,8.23
	c-2.54,2.71-2.73,2.85-2.89,2.06c-2.77-13.07-5.27-21.12-9.49-30.31c-4.28-9.4-8.49-15.98-14.57-22.67l-3.44-3.81l9.07-2.64
	c4.98-1.44,9.42-2.78,9.87-2.95C151.06,273.15,151.41,273.36,153.89,276.17z M223.18,276.34c4.53,1.2,9.36,3.84,12.51,6.86
	l1.74,1.65l-1.19,6.17c-0.64,3.39-1.25,6.45-1.35,6.76c-0.13,0.51-0.51,0.31-2.15-1.17c-5.47-4.84-12.8-8.57-19.68-10.01
	c-1.41-0.31-2.93-0.65-3.34-0.75c-0.71-0.17-0.39-0.62,4.02-5.32l4.79-5.14l1.29,0.21C220.51,275.69,222.02,276.03,223.18,276.34z
	 M300.15,285.36l6.56,6.34l-1.83,0.82c-4.12,1.92-12.31,6.55-15.3,8.68c-5.37,3.81-10.16,8.33-14.21,13.44l-1.32,1.68l-2.48-8.2
	c-1.35-4.49-2.64-8.68-2.83-9.29c-0.48-1.54-0.03-2.37,3.63-6.28c3.22-3.39,7.4-6.76,11.32-9.05c3.09-1.82,9-4.66,9.49-4.56
	C293.4,278.98,296.52,281.86,300.15,285.36z M131.9,284.23c2.03,2.23,4.57,5.32,5.66,6.82c8.65,12.14,14.6,26.85,18.1,44.85
	l0.61,3.12l-6.98,7.48c-5.53,5.9-7.01,7.34-7.17,6.86c-0.13-0.34-0.9-3.6-1.74-7.27c-5.47-24.14-15.56-44.17-29.1-57.78l-2.54-2.54
	l4.89-1.44c2.7-0.79,6.85-2.02,9.23-2.74c2.38-0.75,4.57-1.34,4.86-1.34C128.01,280.22,129.9,282.03,131.9,284.23z M260.54,282.96
	l1.16,0.34l1.9,6.28c1.06,3.43,1.9,6.28,1.86,6.31c0,0.03-1.32-0.17-2.89-0.48c-5.31-0.99-12.06-0.21-21.19,2.47
	c-2.28,0.69-4.18,1.17-4.21,1.13c-0.19-0.21,2.35-13.03,2.6-13.31c0.39-0.38,6.98-2.23,10.26-2.91
	C252.82,282.24,258.48,282.31,260.54,282.96z M210.96,288.62c7.88,1.47,15.88,5.56,21.35,10.87l1.93,1.85l-1.9,10.12
	c-1.03,5.56-1.93,10.15-1.99,10.22c-0.03,0.07-1.06-0.79-2.25-1.92c-9.55-8.92-20.74-14.23-33.76-16.05l-1.7-0.24l6.98-7.68
	C207.39,287.21,206.49,287.79,210.96,288.62z M315.07,299.93l5.27,5.11l-0.9,0.45c-0.51,0.24-2.6,1.2-4.63,2.16
	c-14.28,6.76-25.01,15.23-33.95,26.85l-1,1.3l-0.51-1.65c-3.63-12.04-4.4-14.92-4.21-15.26c0.13-0.24,1.22-1.71,2.44-3.26
	c6.56-8.3,15.88-15.19,27.72-20.54c3.09-1.37,3.28-1.44,3.89-0.89C309.54,294.51,312.18,297.09,315.07,299.93z M262.57,297.88
	c1.54,0.31,3.05,0.65,3.34,0.82c0.32,0.21,1.48,3.5,3.22,9.36c1.48,4.94,2.73,9.19,2.83,9.4c0.06,0.21-0.96,0.1-2.7-0.31
	c-3.89-0.93-13.09-0.99-17.46-0.14c-4.15,0.82-10.29,2.37-14.95,3.77c-2.12,0.65-3.89,1.03-3.95,0.89
	c-0.1-0.27,3.44-19.58,3.63-19.79c0.06-0.07,2.83-0.89,6.17-1.82C252.21,297.43,257.13,296.88,262.57,297.88z M201.64,307.68
	c9.58,2.47,18.65,7.65,25.92,14.81l2.25,2.26l-1.54,8.16c-0.84,4.49-1.64,8.5-1.7,8.95c-0.16,0.75-0.32,0.69-2.35-1.27
	c-9.36-9.09-20.35-15.43-32.38-18.72c-3.57-0.99-11.99-2.57-13.66-2.57c-0.26,0,2.38-3.05,5.88-6.79l6.37-6.79l3.6,0.45
	C196.01,306.41,199.42,307.1,201.64,307.68z M329.64,313.96l7.04,6.82l-3.73,1.65c-18.01,7.96-33.89,20.1-44.02,33.71
	c-1.06,1.41-1.99,2.57-2.09,2.57c-0.1,0.03-0.68-1.78-1.35-4.01c-0.64-2.19-1.96-6.69-2.96-9.98l-1.8-5.97l1.32-1.89
	c6.72-9.5,17.33-18.45,29.36-24.76c5.79-3.05,10.42-5.18,10.9-5.04C322.43,307.1,325.75,310.22,329.64,313.96z M269.22,319.65
	c1.83,0.41,3.41,0.82,3.54,0.96c0.26,0.34,5.08,16.29,4.95,16.46c-0.06,0.07-1.64-0.24-3.47-0.69c-2.96-0.72-4.12-0.79-11.03-0.79
	c-6.56,0-8.3,0.14-11.57,0.75c-4.28,0.86-12.38,2.95-18.39,4.73c-2.19,0.65-4.08,1.2-4.21,1.2c-0.16,0,0.26-2.74,0.9-6.1
	c0.68-3.33,1.38-7.17,1.61-8.47c0.23-1.34,0.58-2.57,0.77-2.81c0.45-0.48,12.64-3.98,17.23-4.9
	C256.94,318.48,263.24,318.38,269.22,319.65z M183.89,322.6c15.18,2.57,28.36,9.46,39.74,20.75l2.19,2.19l-2.03,10.8
	c-1.09,5.93-2.03,10.87-2.09,10.94s-1.38-1.13-2.93-2.64c-11.8-11.56-25.37-19.41-40.38-23.42c-4.28-1.17-11.67-2.54-15.4-2.88
	l-2.51-0.24l7.49-8.23l7.46-8.2l2.67,0.21C179.58,321.98,182.18,322.29,183.89,322.6z M345.62,329.42c3.73,3.57,6.75,6.62,6.72,6.76
	c-0.03,0.1-1.35,1.41-2.96,2.88c-1.58,1.47-6.72,6.62-11.38,11.45c-9.29,9.57-13.25,13.37-17.39,16.84
	c-6.21,5.14-13.34,9.53-19.9,12.28c-3.31,1.37-6.78,2.57-6.94,2.37c-0.03-0.07-0.51-1.58-1.06-3.36s-1.86-6.24-2.96-9.91
	c-1.58-5.25-1.93-6.79-1.67-7.37c1.29-2.88,11.16-13.92,16.46-18.45c6.59-5.59,14.79-11.04,22.67-15.05
	c4.79-2.43,10.8-5.11,11.29-5.01C338.7,322.87,341.89,325.82,345.62,329.42z M271.38,338.34c4.47,0.79,7.11,1.54,7.4,2.19
	c0.16,0.31,1.54,4.8,3.09,9.98s2.86,9.57,2.93,9.77c0.1,0.21-2.09,0.38-6.04,0.41c-7.27,0.07-12.99,0.72-27.2,3.19
	c-17.62,3.02-27.39,4.12-27.39,3.05c0.03-0.75,4.08-21.57,4.24-21.74c0.42-0.45,16.04-4.84,20.77-5.83
	C256.55,337.79,265.72,337.38,271.38,338.34z M165.21,341.08c21.16,2.88,37.65,11.08,52.99,26.3l2.93,2.88l-1.86,9.74
	c-1,5.38-1.83,9.88-1.86,10.01c-0.03,0.72-0.93,0.03-3.44-2.47c-12.76-12.89-27.72-21.95-44.98-27.23c-6.62-2.02-19-4.32-23.31-4.32
	c-0.87,0-1.58-0.1-1.58-0.24c0-0.14,3.15-3.63,6.98-7.72l7.01-7.48h1.67C160.67,340.57,163.12,340.81,165.21,341.08z M285.72,363.3
	c0.35,0.82,5.53,18.62,5.47,18.69c-0.03,0.07-0.87-0.14-1.8-0.41c-5.82-1.75-11.25-2.43-19.74-2.4
	c-12.28,0.03-20.87,1.65-42.54,8.02c-3.83,1.13-6.98,1.99-7.07,1.92c-0.1-0.14,1.64-9.67,3.18-17.42c0.39-1.85-0.26-1.65,7.62-2.33
	c4.92-0.41,10.48-1.23,22.89-3.39c13.99-2.47,20.87-3.15,27.81-2.91C283.82,363.17,285.72,363.27,285.72,363.3z"/>
<g transform="translate(0.000000,1280.000000) scale(0.100000,-0.100000)">
	<path class="st6" d="M2084.55,8792.06c0.28,15.42-49.12,151.07-134.13,368.84c-63.66,162.9-64.46,165.09-67.63,165.15
		c-1.9,0.04-2.49,2.21-1.77,7.26c0.5,4.09,0,11.81-0.94,17.61c-1.94,9.2,1.59,29.62,36.97,211.93
		c23.52,121.54,40.17,201.99,41.65,202.44c4.88,1.84,15.42,12.98,18.71,19.91c1.76,3.82,4.69,14.38,6.32,23.03
		c2.81,15.38,6.73,22.05,87.16,154.37c46.51,76.04,83.66,135.63,82.96,132.27c-18.24-86.93-19.26-200.44-2.05-285.6
		c32.48-161.37,112.75-269.38,209.09-281.98c49.65-6.45,99.78,13.85,144.67,58.59c82.27,82.38,133.71,255.24,123.78,415.96
		c-4.34,74.08-20.65,151.03-42.47,203.01l-6.26,15.3l6.93-1.81c3.78-1.03,7.13-2.06,7.13-2.3c0.21,0,28.93-78.39,63.88-173.75
		c35.16-95.37,65.13-174.74,66.79-176.22s2.85-5.84,2.78-9.69s1.68-11.84,4.11-17.67c2.2-6.31,3.17-11.39,1.89-12.09
		c-1.92-1.41,7.41-67.63,48.39-341c20.49-136.57,20.5-136.08,5.68-266.46c-5.56-50.28-13.6-121.24-17.64-157.56
		c-4.04-36.32-12.08-107.29-17.64-157.56c-5.77-50.27-11.07-98.39-11.86-107.05l-1.55-15.64l24.59,53.3
		c24.6,53.79,31.92,73.9,39.97,110.63c14.04,64.34,29.24,181.22,40.98,315.99c4.26,48.37,4.51,50.78,10.37,59.59
		c8.24,12.62,11.71,29.43,9.05,45.15c-1.9,11.36-6.39,19.88-17.74,33.35c-2.48,2.94-4.51,7.07-4.47,9
		c0.06,3.13-7.68,75.83-35.86,334.26c-7.43,66.42-10.56,103.12-9.59,110.09c2.91,20.92-10.69,49.61-25.38,53.73
		c-5.46,1.3-12.36,16.13-78.96,168c-71.46,162.81-72.87,166.45-70.61,175.08c4.76,17.99-4.02,45.39-16.34,52.12
		c-7.73,4-8.1,6.9-0.93,6.77c4.43-0.08,307.54-110.47,356.74-129.69c12.98-5.3,13.19-5.3,11.78-12.99
		c-1.16-5.76-0.58-8.67,2.31-11.85c3.52-3.68,6.46-3.97,25.05-2.14c23.02,1.99,165.31-0.37,232.3-4c23.6-1.15,43.41-1.76,43.84-1.04
		c0.64,0.47,8.03,0.82,16.67,0.9c15.39-0.28,15.81-0.53,18.01-7.08c1.41-3.64,3.47-6.33,4.96-5.63
		c2.55,0.92,309.29,262.88,315.95,269.51c2.58,2.85,2.6,3.81,0.12,6.75c-2.69,2.94-24.85-9.91-165.19-97.02
		c-132.23-81.95-163.57-100.42-169.89-100.31c-4.22,0.08-10.14-0.78-13.11-2.17c-4.04-1.61-7.82-1.06-14.3,2.19
		c-8.16,3.76-20.58,4.47-128.09,6.44c-91.06,1.66-120.14,2.92-123.68,5.39c-6.25,4.21-16.38,3.91-24.26-0.52
		c-7.46-4.2-4.31-4.98-52.11,10.35c-20.13,6.15-46.13,14.1-57.67,17.2c-11.54,3.1-30.82,9.72-42.96,14.76
		c-25.96,10.36-120.05,54.26-177.3,82.78c-36.36,18.02-40.95,21-48.35,31.01c-4.73,6.35-10.96,11.77-14.32,12.8
		c-5.88,1.55-95.96,45.14-97.83,47.1c-0.41,0.73,6.47,8.08,15.28,16.83c18.68,18.46,85.05,96.55,89.21,104.92l2.85,5.97l6.23-5.18
		c3.32-2.95,6.87-4.95,7.93-4.48c0.85,0.47,17.02,19.94,36.01,43.45c47.26,59.16,88.01,108.55,118.17,143.44
		c27.58,32.04,36.89,45.85,40.54,60.97c2.28,9.6,2.49,9.6,10.49,8.73c17.46-2.25,36.11,14.29,36.43,32.12
		c0.13,6.99,5.53,14.36,46.04,61.83c54.94,64.08,107.21,120.5,133.78,143.87c22.93,20.07,25.52,23.4,24.15,29.45
		c-0.78,3.63,0.3,5.06,4.96,6.18c3.18,0.67,8.95,4.9,13.04,9.65c5.38,6.17,7.15,10.23,7.27,17.22c0.09,4.82-0.44,10.61-1.25,12.56
		c-1.01,2.43,10.17,25.61,32.66,68.1c38.88,73.77,78.8,146.81,90.33,165.88c4.35,7.15,8.7,14.79,9.58,16.7
		c1.97,4.06,3.7,6.44-64.55-81.98c-27.42-35.17-66.07-84.85-85.94-110.28c-19.86-25.43-36.07-47.07-36.09-48.03
		c-0.02-1.21,0.8-2.18,1.86-2.2c1.05-0.02-0.07-4.1-2.49-9.12c-3.95-8.61-4.26-13.66-1.05-23.12c1.61-4.13,0.97-4.6-6.8-3.01
		l-8.61,1.84l-94.13-108.68c-54.28-62.41-96.46-109.36-99.86-110.51c-14.86-5.51-17.63-7.15-23.89-14.75
		c-5.61-7.13-6.51-10-6.27-20.13l0.42-11.82l-106.22-112.56c-92.46-97.86-107.07-112.54-112.76-112.44
		c-18.55,0.34-34.4-12.87-36.82-30.42c-0.97-6.73-2.28-9.6-3.96-8.85c-1.47,0.51-10.2-4.15-19.17-10.5
		c-14.31-10.1-16.23-11.03-12.96-5.55c18.27,30.52,45.48,88.84,44.11,94.41c-1.37,5.81,1.04,10.83,5.47,10.75
		c2.11-0.04,13.99,27.22,36.76,84.9c35.81,90.22,49.22,120.35,68.37,153.02c12.41,21.47,31.87,47.63,40.65,55.18
		c6.21,5.43,6.7,9.04,1.01,9.14c-3.79,0.07-3.79,0.55,1.43,8.89c3.04,5.01,6.13,12.18,6.82,15.78c0.94,5.04,2.44,6.46,5.38,5.93
		c4.62-0.81,0.57-15.2,55.62,193.51c16.52,61.89,33.02,122.33,36.61,134.32c9.4,29.72,28.02,68.19,46.9,97.25
		c10.86,17.16,14.79,24.8,12.69,25.32c-1.68,0.51-2.49,2.46-1.81,4.61c0.67,1.92,1.38,6.24,1.44,9.37c0.07,4.1,1.37,5.76,4.11,5.71
		c3.37-0.06,4.92,4.01,9.96,25.61c10.32,45.61,79.53,359.88,79.55,361.32c0.01,0.72-1.65,1.96-3.75,2.48
		c-3.56,1.27-12.2-21.71-68.88-180.73c-51.56-144.41-66.19-183.43-71.35-188.88c-7.32-8.3-9.35-15.5-8.11-28.54
		c0.9-8.69,0.46-9.41-3.97-9.33c-2.74,0.05-5.52-1.83-6.4-4.22c-0.67-2.16-30.28-87.67-65.67-189.71
		c-35.18-102.04-66.33-191.63-68.79-198.81c-3.33-9.34-6.81-14.82-12.15-18.82c-10.47-7.76-17.09-23.55-16.1-38.76
		c0.85-11.34,0.62-12.06-3.57-10.78c-4.19,1.28-6.64-5.42-36.48-92.62c-68.63-201.95-64.19-189.74-72.07-193.69
		c-6.6-3.5-14.21-16.13-14.35-23.84c-0.04-1.93-5.93-12.91-13.1-24.35c-7.17-11.44-17.83-29.56-23.72-40.54l-10.28-20.06l1.08,12.76
		c1.35,16.12-1.89,34.99-9.18,51.51c-5.47,12.15-5.65,13.84-4.2,35.51c1.96,26.48,0.16,31.82-13.6,40.26
		c-15.02,8.95-21.46,2.8-23.82-22.71c-0.53-5.78-1.6-6.96-4.97-6.42c-19.34,3.25-26.51,3.38-36.47,0.42
		c-12.72-3.62-12.09-4.12-13.88,13.51c-1.96,19.8-10.11,23.81-25.7,12.76c-12.39-8.93-14.89-18.77-11.15-44.87
		c2.42-17.88,2.38-19.81-1.33-26.49c-8.73-16.23-13.16-51.1-8.39-67.1c0.61-1.46-0.73-5.29-2.89-8.38l-3.9-5.47l-7.91,17.02
		c-6.08,13.37-8.34,16.54-10.49,14.65c-2.14-1.89-4.23-0.89-8.14,4.73c-2.88,4.15-7.23,8.33-9.53,9.09
		c-2.72,1.01-3.74,2.96-3.07,5.36c0.88,1.91-3.97,13.57-11.11,26.96c-20.17,38.45-26.77,58.1-46.58,139.93
		c-21.75,90.55-37.58,159.05-39.25,171.62c-0.76,4.83-2.98,9.94-4.86,11.18c-5.42,3.47,0.72-29.66-69.62,367.66
		c-10.52,59.25-19.51,109.55-20.1,111.73c-0.59,2.42-2.87,4.39-5.19,4.43c-3.16,0.06-3.97,1.76-3.87,7.54
		c0.15,8.19-2.46,15.47-8.64,23.54c-2.68,3.42-17.51,57.45-41.9,153.83c-33.64,132.47-38.2,148.22-41.8,147.56
		c-2.12-0.44-4.24-1.13-4.24-1.13c-0.22-0.24,0.29-7.48,1.18-16.17c1.58-17.14,10.32-116.13,19.88-227.67
		c8.35-96.81,6.63-87.14,16.37-85.39c6.77,1.08,8.02,0.58,9-3.54c0.58-2.66,0.05-8.68-1.09-13.48
		c-4.3-16.31,3.45-53.82,23.06-111.54c19.81-58.21,38.06-144.36,63.68-300.3c4.54-28.29,8.29-54.39,8.22-58s1.71-10.16,3.95-14.54
		c2.24-4.38,4.04-9.47,4.01-11.16c-0.03-1.69,2.15-9.2,4.76-16.24c6.82-18.93,46.61-161.39,72.43-260.21
		c13.6-51.83,23.93-86.97,26.61-90.4c6.59-8.8,14.94-13.05,26.53-13.5l10.33-0.19l-4.34-6.91c-6.29-9.53-7.99-10.22-14.02-5.53
		c-5.2,3.95-5.62,3.96-8.66-1.05c-3.25-5-3.25-5-12.14,4.8c-4.96,5.39-13.06,12.05-18.07,15.03c-4.79,3.22-54.53,39.32-110.49,80.84
		c-55.76,41.27-102.59,74.91-104.08,74.21c-1.27-0.46-3.54,2.23-4.95,5.88c-1.2,3.64-5.74,9.26-9.89,12.47
		c-6.66,4.94-14.57,22.2-72.62,157.52c-59.67,139.21-65.55,151.85-70.81,152.67s-5.46,1.3-3.43,8.5c1.13,4.32,2.11,11.53,1.98,16.11
		c0.03,13.26-46.87,227.92-50.01,229.42c-1.47,0.51-3.58,0.31-4.66-0.88c-2.15-2.37,2.56-241.09,4.76-247.4
		c1.01-2.67,0.35-4.1-1.77-4.79c-4.23-0.89,155-322.94,161.47-326.67c2.5-1.49,4.13-4.9,4.07-8.03
		c-0.16-8.67,12.45-22.4,20.46-22.55c5.06-0.09,6.52-1.08,6.04-4.21c-0.47-2.88,27.33-27.74,96.89-87.1
		c74.33-63.55,98.6-85.44,102.06-92.5c6.3-12.89,12.54-17.83,23.29-18.02c7.59-0.14,8.63-0.64,6.68-3.5
		c-2.16-2.61-0.3-5.06,9.48-11.98c15.41-10.89,43.15-27.54,53.4-31.83c10.67-4.53,9.9-12.23-1.53-14.68
		c-10.8-2.46-23.58-9.69-38.15-21.96c-14.14-12.28-33.97-35.78-34.07-41.08c-0.04-2.17-3.9-5.71-8.37-8.04s-10.69-8.24-13.73-13.01
		c-5.22-8.58-6.71-9.52-30.45-16.32c-13.99-4.08-38.58-11.35-54.91-16.11c-16.32-4.76-63.18-18.61-103.89-30.89
		c-40.92-12.03-91.38-27.02-112.37-33.38c-20.99-6.12-52.58-15.43-69.96-20.42c-17.59-4.98-34.36-10.94-37.78-13.53
		c-5.78-4.47-5.78-4.47-5.69,0.1c0.05,2.65-1.16,5.57-2.62,6.8c-1.25,0.99-69.09,38.62-150.72,83.74
		c-134.86,74.29-148.44,81.29-150.83,77.72c-3.04-4.77-3.67-4.51-7.3,4.23c-1.41,3.4-32.98,53.39-70.09,111.2
		c-58.23,90.97-67.88,105.13-71.29,103.02c-3.41-1.87-2.21-5.74,12.76-40.49c9.11-20.9,33.79-78.23,55.03-127.31
		c21.03-49.08,39.29-88.94,40.55-88.72c1.06,0.22,4.61-1.77,7.94-4.24c3.12-2.47,7.52-3.99,10.06-3.32c3.39,0.9,4.01,0.17,3.52-3.68
		c-0.74-5.77-18.49,3.71,199.66-105.85c64.35-32.51,119.72-60.76,123.05-62.99c14.37-9.66,16.67-10.91,23.42-11.03
		c3.58-0.07,9.94,1.75,13.99,4.08c4.05,2.34,8.73,4.42,10.42,4.63c2.96,0.19,121.97,39.47,168.66,55.74
		c10.4,3.67,53.47,18.07,95.47,32c42.01,13.94,88.26,29.48,102.69,34.52c14.43,4.8,27.79,8.89,29.68,8.86
		c1.9-0.04,5.94,1.82,8.93,4.18c3.2,2.11,18.81,13.88,34.63,25.64l29.08,21.89l1.45-12.8c0.72-6.76,1.44-13.28,1.43-14.01
		s-10.74-10.89-23.61-22.71c-22.73-20.56-54.78-55.4-54.86-59.74c-0.02-0.96-4.48-2.57-9.76-3.2
		c-12.46-1.22-22.56-11.64-29.23-30.32c-12.3-23.61-115.05-199.64-101.7-176.76c-76.37-129.01-97.87-163.57-103.2-166.61
		c-4.47-2.33-8.8-8.28-13.18-17.36c-5.27-11.71-6.64-17.23-7.36-33.61c-0.72-16.62-9.24-55.51-54.23-244.64
		c-29.46-123.6-52.81-224.9-51.97-224.91c0.84-0.02,1.98-6.79,2.46-15.23c0.48-8.21,2.4-18.85,4-23.7c1.6-4.85,2.14-9.68,1.28-10.87
		c-1.08-1.19,14.35-34.25,34.5-73.91c26.87-52.8,44.91-92.42,68.33-149.49c55.92-136.25,86.03-196.58,124.48-250.55
		C2067.91,8804.9,2084.46,8787.48,2084.55,8792.06z M2501.89,10354.14c-0.82,1.46,0.45,1.68,3.6,0.66c7.33-2.54,9.38-5.72,3.08-4.4
		C2505.42,10351.18,2502.5,10352.92,2501.89,10354.14z M2255.71,10545.2c0.03,1.45,0.86,0.95,16.04-10.66
		c6.03-4.69,11.01-9.36,10.98-10.57s-6.06,2.76-13.54,8.92C2261.71,10539.07,2255.7,10544.72,2255.71,10545.2z"/>
</g>
<path d="M190.99,37.83"/>
<path class="st4" d="M279.86,60.64"/>
<rect x="217.23" y="392.22" class="st4" width="2.98" height="29.94"/>
<g>
	<path class="st7" d="M246.99,427.76c-99.9,0.25-179.66-83.75-175.57-183.33c9.25-232.89,341.93-232.82,351.14,0
		C426.64,344.01,346.89,428.01,246.99,427.76L246.99,427.76z"/>
</g>
</svg>
