<?xml version="1.0" encoding="utf-8"?>
<!-- Generator: Adobe Illustrator 26.0.1, SVG Export Plug-In . SVG Version: 6.00 Build 0)  -->
<svg version="1.1" id="Шар_1" xmlns="http://www.w3.org/2000/svg" xmlns:xlink="http://www.w3.org/1999/xlink" x="0px" y="0px"
	 viewBox="0 0 500 500" style="enable-background:new 0 0 500 500;" xml:space="preserve">
<style type="text/css">
	.st0{fill:#B3B3B3;}
	.st1{fill:#666666;}
	.st2{fill:url(#SVGID_1_);}
	.st3{fill:#CCCCCC;}
	.st4{fill:#4D4D4D;}
	.st5{fill:#4D4D4D;stroke:#4ABFFF;stroke-width:0.2;stroke-miterlimit:10;}
	
		.st6{fill:none;stroke:#CCCCCC;stroke-width:6;stroke-linecap:round;stroke-linejoin:round;stroke-dasharray:11.7296,11.7296,11.7296,11.7296,11.7296,11.7296;}
</style>
<g>
	<path class="st0" d="M250,497c-65.98,0-128-25.69-174.66-72.34C28.69,378,3,315.98,3,250c0-65.98,25.69-128,72.34-174.66
		C122,28.69,184.02,3,250,3s128,25.69,174.66,72.34C471.31,122,497,184.02,497,250s-25.69,128-72.34,174.66
		C378,471.31,315.98,497,250,497z"/>
	<path class="st1" d="M250,6c32.94,0,64.9,6.45,94.97,19.17c29.05,12.29,55.15,29.88,77.56,52.29s40,48.51,52.29,77.56
		C487.55,185.1,494,217.06,494,250c0,32.94-6.45,64.9-19.17,94.97c-12.29,29.05-29.88,55.15-52.29,77.56s-48.51,40-77.56,52.29
		C314.9,487.55,282.94,494,250,494c-32.94,0-64.9-6.45-94.97-19.17c-29.05-12.29-55.15-29.88-77.56-52.29s-40-48.51-52.29-77.56
		C12.45,314.9,6,282.94,6,250c0-32.94,6.45-64.9,19.17-94.97c12.29-29.05,29.88-55.15,52.29-77.56s48.51-40,77.56-52.29
		C185.1,12.45,217.06,6,250,6 M250,0L250,0C111.93,0,0,111.93,0,250v0c0,138.07,111.93,250,250,250h0c138.07,0,250-111.93,250-250v0
		C500,111.93,388.07,0,250,0L250,0z"/>
</g>
<g>
	<linearGradient id="SVGID_1_" gradientUnits="userSpaceOnUse" x1="33.3032" y1="250.2649" x2="467.2334" y2="250.2649">
		<stop  offset="0" style="stop-color:#FFFFFF"/>
		<stop  offset="1" style="stop-color:#FFFFFF"/>
	</linearGradient>
	<path class="st2" d="M247.63,464.6c-57.25,0-111.07-22.29-151.55-62.78C55.6,361.34,33.3,307.51,33.3,250.27
		c0-57.25,22.29-111.07,62.78-151.56c40.48-40.48,94.31-62.78,151.55-62.78h5.27c57.25,0,111.07,22.29,151.56,62.78
		c40.48,40.48,62.78,94.3,62.78,151.55s-22.29,111.07-62.78,151.56c-40.48,40.48-94.31,62.78-151.56,62.78H247.63z"/>
	<path class="st3" d="M252.9,38.93c28.53,0,56.21,5.59,82.26,16.6c25.16,10.64,47.77,25.88,67.18,45.29
		c19.41,19.41,34.65,42.01,45.29,67.18c11.02,26.05,16.6,53.73,16.6,82.26c0,28.53-5.59,56.21-16.6,82.26
		c-10.64,25.16-25.88,47.77-45.29,67.18c-19.41,19.41-42.01,34.65-67.18,45.29c-26.05,11.02-53.73,16.6-82.26,16.6h-5.27
		c-28.53,0-56.21-5.59-82.26-16.6c-25.16-10.64-47.77-25.88-67.18-45.29c-19.41-19.41-34.65-42.01-45.29-67.18
		c-11.02-26.05-16.6-53.73-16.6-82.26c0-28.53,5.59-56.21,16.6-82.26c10.64-25.16,25.88-47.77,45.29-67.18
		c19.41-19.41,42.01-34.65,67.18-45.29c26.05-11.02,53.73-16.6,82.26-16.6H252.9 M252.9,32.93h-5.27
		c-120.03,0-217.33,97.3-217.33,217.33v0c0,120.03,97.3,217.33,217.33,217.33h5.27c120.03,0,217.33-97.3,217.33-217.33v0
		C470.23,130.24,372.93,32.93,252.9,32.93L252.9,32.93z"/>
</g>
<path class="st4" d="M107,248.51"/>
<polygon class="st3" points="140.78,345.16 138,341.23 138.95,340.85 "/>
<polygon class="st3" points="123.44,141.22 123.64,140.44 123.75,140.27 124.37,140.72 "/>
<path class="st5" d="M203.3,86.16c-0.2,0.55-6.68,6.24-10.9,9.57c-4.81,3.77-11.1,8.23-20.46,14.4
	c-18.7,12.38-24.33,16.97-30.78,25.14c-0.13,0.14-1.8,2.13-1.9,3.12c-0.23,2.57-1.51,9.81-2.39,13.68
	c-3.8,16.43-10.9,30.86-21.45,43.65c-3.11,3.74-9.23,10.08-9.76,10.08c-0.23,0-5.53-1.23-11.82-2.74
	c-19.12-4.6-20.46-4.9-20.59-4.77c-0.07,0.07-0.23,0.58-0.33,1.17l-0.2,1.03l14.14,3.39c7.79,1.85,15.39,3.7,16.86,4.05l2.72,0.69
	l0.98,3.36c6.78,23.04,7.86,42.69,3.27,60.32c-0.98,3.77-2.91,9.6-3.77,11.35c-0.39,0.79-1.38,3.6-0.26,3.33
	c1.38-0.34,1.38-0.34,3.54,1.65c6.58,6.07,14.01,16.15,19.06,25.89c5.4,10.46,10.15,24.62,12.87,38.37l0.69,3.57l1.8,1.58l3.9,0.38
	c27.34,2.57,49.57,12.83,68.17,31.34c1.83,1.85,3.5,3.26,3.7,3.12c0.46-0.31,3.01-0.69,3.08-0.75c0.26-0.31,20.04-5.86,25.08-7.1
	c18.53-4.46,32.35-4.73,46.36-0.86l2.62,0.72l2.16,7.1c5.11,16.63,6.45,21.06,6.61,21.19c0.1,0.1,1.96-0.69,1.9-1.06
	c-0.07-0.31-1.87-6.34-3.99-13.34c-2.16-7.03-3.96-13.13-3.99-13.58c-0.1-0.69,0.23-0.86,2.68-1.71
	c11.1-3.84,20.82-9.94,31.14-19.61c2.1-1.95,7.86-7.65,12.8-12.65c4.94-5.01,10.12-10.05,11.46-11.21l2.46-2.13
	c0,0,2.68-0.65,2.46-0.86c-0.29-0.31-0.2-2.23,0.59-9.4c1.57-14.57,2.91-21.4,5.53-28.53c4.55-12.28,13.2-21.06,26.03-26.37
	l2.55-1.1c0,0,3.73-1.58,3.37-1.68c-0.52-0.21-0.79-0.99-1.41-4.12c-0.39-2.09-2.13-10.01-3.83-17.59
	c-6.35-28.46-8.58-42.86-8.28-53.87l0.1-3.74l17.19-6.52c9.46-3.57,17.22-6.55,17.29-6.58c0.13-0.1-0.65-2.23-0.82-2.23
	c-0.07,0-7.86,2.91-17.29,6.52c-9.4,3.57-17.26,6.52-17.45,6.52c-0.62,0-5.47-4.36-8.45-7.61c-6.55-7.1-10.15-13.07-20.92-34.57
	c-2.13-4.25-4.81-9.46-5.96-11.59l-2.1-3.91l1.8-2.09c0.98-1.17-0.88-2.78-1.67-1.89c-1.28,1.47-1.44,1.54-1.8,0.99
	c-0.23-0.34-2.95-1.68-5.99-2.95c-31.07-12.89-46.23-23.39-57.53-39.78l-1.21-1.75l2.26-11.45c1.21-6.31-1.11-6.48-2.13-1.2
	c-1.02,5.28-2.03,10.22-2.23,10.97l-0.39,1.37l-6.71,1.75c-10.54,2.78-19.84,4.42-30.06,5.32c-5.93,0.51-20.04,0.21-25.28-0.55
	c-4.45-0.62-10.54-1.82-11.59-2.23C206.22,86.91,203.37,85.99,203.3,86.16z M278.09,96.07l-1.9,9.74l-3.6,0.96
	c-15.49,4.12-30.25,5.93-41.98,5.11c-7.89-0.55-17.09-2.06-17.68-2.91c-0.13-0.21-0.62-1.54-1.05-2.95
	c-4.06-13.51-4.81-16.12-4.58-16.12c0.16,0,1.31,0.24,2.55,0.51c12.8,2.81,30.45,3.02,46.07,0.51c5.44-0.89,14.21-2.78,19.65-4.22
	c2.72-0.72,4.29-1.03,4.35-0.79C279.95,86.12,279.13,90.68,278.09,96.07z M287.55,93.19c4.39,5.25,10.54,10.73,17.32,15.4
	c8.64,5.97,17.65,10.63,33.82,17.49c3.93,1.65,7.27,3.26,7.43,3.57c0.2,0.41-0.88,1.89-4.78,6.38c-6.78,7.78-7.3,8.33-7.6,7.82
	c-0.13-0.24-3.5-1.82-7.43-3.5c-24.62-10.46-36.64-18.79-45.94-31.93l-1.83-2.54l1.57-8.09c0.85-4.42,1.7-8.81,1.9-9.7l0.33-1.65
	l1.28,1.78C284.31,89.18,286.07,91.44,287.55,93.19z M207.4,99.12l2.91,9.7l-1.08,1.61c-4.42,6.58-12.15,15.12-18.47,20.4
	c-4.16,3.46-10.12,7.72-15.55,11.04c-5.47,3.33-16.93,9.46-17.48,9.33c-0.43-0.1-14.67-13.48-14.86-13.96
	c-0.16-0.48,4.29-5.52,7.24-8.16c5.44-4.9,11.17-9.12,22.92-16.8c12.05-7.89,22.4-15.5,27.9-20.61c1.44-1.34,2.82-2.4,3.08-2.37
	C204.32,89.35,205.46,92.67,207.4,99.12z M275.6,109c-0.1,0.34-1.05,5.14-2.13,10.7c-1.11,5.56-2.13,10.25-2.26,10.39
	c-0.39,0.41-9.46,2.57-14.8,3.5c-12.08,2.13-23.35,2.02-33.86-0.27c-1.21-0.27-2.36-0.62-2.49-0.75
	c-0.26-0.31-6.22-19.68-6.22-20.27c0-0.21,0.92-0.14,2.1,0.1c4.09,0.89,8.64,1.51,14.37,1.92c11.89,0.82,28.55-1.2,42.63-5.18
	C275.86,108.31,275.79,108.31,275.6,109z M279.1,110.71c1.31,2.09,5.76,7.1,8.41,9.57c9.2,8.5,19.45,14.54,38.14,22.43
	c3.24,1.37,6.12,2.71,6.38,2.98c0.39,0.38,0.33,0.58-0.52,1.54c-1.15,1.3-11.98,13.75-12.11,13.96c-0.07,0.07-0.29-0.03-0.52-0.21
	c-0.23-0.21-3.21-1.54-6.65-3.02c-7.47-3.15-16.27-7.61-20.3-10.29c-6.65-4.36-12.51-9.88-16.31-15.23l-1.77-2.5l2-10.25
	c1.08-5.66,2.06-10.25,2.19-10.25C278.15,109.44,278.64,110.02,279.1,110.71z M214.3,122.13c1.57,5.18,2.98,9.84,3.11,10.32
	c0.26,0.79,0,1.3-2.19,4.29c-3.18,4.36-9.79,11.21-13.98,14.57c-6.16,4.9-13.03,9.26-22.3,14.13l-4.26,2.23l-7.33-7
	c-4.06-3.84-7.4-7.1-7.43-7.24c-0.03-0.14,2.65-1.75,6.02-3.53c10.77-5.76,18.96-11.14,26.72-17.56
	c4.35-3.63,12.47-12.24,15.78-16.8c1.44-1.99,2.72-3.43,2.82-3.22C211.39,112.53,212.76,116.95,214.3,122.13z M349.82,136.43
	c1.18,2.23,4.22,8.2,6.78,13.31c8.64,17.15,11.17,21.54,16.04,27.91c2.55,3.33,7.96,9.02,10.25,10.84l1.24,0.96l-8.41,3.22
	l-8.41,3.19l-1.83-1.41c-2.85-2.19-8.48-8.4-10.84-11.9c-3.18-4.73-5.37-8.64-10.84-19.51c-2.75-5.42-5.76-11.32-6.74-13.07
	l-1.74-3.22l1.21-1.47c1.21-1.44,11.03-12.79,11.1-12.83C347.66,132.42,348.64,134.23,349.82,136.43z M269.18,141.74
	c-0.95,4.77-1.8,8.78-1.93,8.95c-0.13,0.14-1.93,0.65-3.99,1.13c-10.02,2.37-19.06,3.26-26.29,2.57
	c-4.22-0.38-10.54-1.47-10.94-1.92c-0.2-0.21-5.24-16.77-5.14-16.91c0.03-0.03,1.08,0.14,2.32,0.41c5.27,1.13,8.58,1.41,16.99,1.37
	c7.07,0,9.3-0.14,13.26-0.79c5.11-0.82,11.23-2.09,14.9-3.09c1.28-0.34,2.32-0.58,2.39-0.51C270.82,133,270.1,136.94,269.18,141.74z
	 M279.46,140.48c7.53,7.78,16.27,13.17,32.71,20.1c2.82,1.2,5.14,2.33,5.14,2.57c0,0.21-2.36,3.09-5.24,6.41l-5.24,6l-5.99-2.54
	c-12.57-5.38-19.65-9.81-25.28-15.71c-1.8-1.92-3.83-4.32-4.49-5.35l-1.18-1.89l1.28-6.52c0.69-3.6,1.44-7.34,1.64-8.37l0.36-1.89
	l1.18,1.54C274.97,135.67,277.27,138.21,279.46,140.48z M221.25,145.17l2.65,8.68l-1.01,1.51c-1.64,2.43-7.89,9.09-10.97,11.66
	c-3.24,2.71-7.6,5.76-11.33,7.99c-4.29,2.57-11.33,6.17-11.75,6c-0.2-0.1-3.04-2.74-6.35-5.86l-5.96-5.69l3.67-1.92
	c9.4-4.94,17.26-9.98,23.25-14.92c3.86-3.22,10.41-10.01,13.03-13.61c0.98-1.34,1.9-2.43,2-2.47
	C218.56,136.53,219.8,140.44,221.25,145.17z M149.11,146.58c4.98,4.8,6.78,6.72,6.78,7.27c0,1.51-1.28,8.61-2.29,12.65
	c-3.93,15.98-12.74,31.34-24.33,42.42l-2.23,2.13l-9.07-2.16c-4.98-1.2-9.1-2.19-9.17-2.23c-0.03-0.03,1.51-1.75,3.44-3.81
	c16.17-17.21,25.24-36.52,29.07-61.97c0.13-0.89,0.33-1.2,0.59-1.03C142.14,140,145.35,143.01,149.11,146.58z M335.25,151.52
	c0.88,1.68,3.63,7.03,6.12,11.93c6.91,13.68,8.71,16.84,12.41,21.95c2.39,3.33,6.42,7.75,8.87,9.81c0.98,0.82,1.67,1.58,1.54,1.71
	c-0.13,0.14-3.9,1.65-8.41,3.33c-4.49,1.71-8.41,3.19-8.71,3.33c-0.36,0.14-1.41-0.55-3.27-2.16c-5.86-5.04-9.43-10.32-16.34-24.07
	c-1.83-3.67-4.16-8.2-5.14-10.05c-0.98-1.85-1.74-3.5-1.67-3.67c0.07-0.24,12.7-14.95,12.93-15.05
	C333.62,148.53,334.37,149.87,335.25,151.52z M266.76,154.19c-0.13,0.48-1.01,5.08-2.03,10.18c-0.98,5.14-1.87,9.4-1.93,9.46
	c-0.43,0.45-10.31,2.16-13.72,2.4c-7.04,0.45-15.88-0.62-16.53-1.95c-0.46-0.89-5.66-18.59-5.53-18.72c0.07-0.07,1.74,0.17,3.7,0.51
	c5.04,0.93,12.44,1.23,17.84,0.72c5.66-0.55,14.5-2.19,18.3-3.43C266.92,153.34,266.85,153.71,266.76,154.19z M274.39,159.51
	c5.5,5.66,13.13,10.42,24.75,15.4c3.08,1.3,5.57,2.54,5.57,2.74c0,0.31-11.89,14.09-12.15,14.09c-0.36,0-9.99-4.32-11.98-5.35
	c-5.76-3.02-11.23-7.65-13.88-11.62l-1.21-1.89l1.54-7.99c0.85-4.36,1.7-8.71,1.9-9.64l0.33-1.65l0.98,1.3
	C270.78,155.67,272.65,157.72,274.39,159.51z M167.29,163.93c4.65,4.42,6.29,6.17,6.29,6.76c0,1.47-1.34,8.02-2.29,11.32
	c-3.54,12.04-8.71,21.02-17.26,30.04c-2.39,2.54-3.41,3.81-3.27,4.18c0.16,0.45,0.03,0.51-0.52,0.38c-0.39-0.1-4.91-1.17-10.05-2.4
	c-5.14-1.23-9.5-2.3-9.72-2.4c-0.23-0.07,1.08-1.71,2.98-3.74c12.67-13.44,20.86-29.9,23.93-48.04c0.26-1.71,0.59-3.43,0.69-3.87
	C158.25,155.22,157.1,154.23,167.29,163.93z M227.86,167.09l3.01,10.01l-1.31,1.61c-4.29,5.38-11.17,10.77-19.09,14.95
	c-2.85,1.51-4.52,2.57-4.62,2.98c-0.13,0.51-1.64-0.75-7.37-6.28c-3.99-3.81-7.24-7.06-7.24-7.2c0-0.17,2.39-1.58,5.34-3.15
	c6.61-3.6,10.48-6.1,15.29-9.91c3.54-2.78,10.64-9.94,11.92-12.07c0.33-0.51,0.69-0.93,0.82-0.93S226.19,161.6,227.86,167.09z
	 M324.12,175.97c8.28,16.36,11.82,21.78,17.39,26.64c1.24,1.1,2.19,2.09,2.06,2.19c-0.13,0.1-3.44,1.41-7.33,2.88l-7.14,2.67
	l-1.8-1.47c-4.81-3.91-8.12-8.64-14.08-20.4c-2.13-4.15-4.19-8.16-4.62-8.95l-0.79-1.37l5.44-6.28l5.47-6.24l0.65,1.13
	C319.73,167.39,321.86,171.54,324.12,175.97z M183.66,179.53c5.7,5.45,5.27,4.29,3.8,10.49c-2.46,10.39-6.84,18.59-14.14,26.47
	c-2.72,2.95-3.08,3.43-2.88,4.22c0.2,0.75,0.13,0.89-0.36,0.72c-0.33-0.1-4.09-1.03-8.38-2.09c-4.29-1.03-7.96-1.95-8.12-2.06
	c-0.56-0.38-0.29-0.79,2.36-3.67c9.66-10.36,15.98-22.43,18.79-35.9c0.46-2.19,0.92-4.36,1.02-4.77c0.16-0.79,0.2-0.79,1.54,0.51
	C178.03,174.18,180.91,176.93,183.66,179.53z M273.93,185.19c2.95,2.02,9.69,5.52,13.98,7.27c1.6,0.65,2.85,1.27,2.78,1.41
	c-0.03,0.1-1.87,2.3-4.09,4.87l-4.06,4.63l-1.51-0.62c-9.27-3.87-13.36-6.62-17.42-11.69l-1.34-1.68l1.21-6.45l1.21-6.45l3.31,3.46
	C269.83,181.83,272.49,184.2,273.93,185.19z M262.3,176.83c0,0.07-0.59,3.12-1.31,6.72c-0.72,3.63-1.31,6.62-1.31,6.65
	c0,0.07-1.74,0.45-3.83,0.86c-4.88,0.99-11.72,1.06-15.65,0.17c-1.44-0.31-2.68-0.62-2.72-0.69c-0.23-0.21-3.93-12.69-3.83-12.79
	c0.07-0.07,1.57,0.14,3.34,0.45c5.93,1.1,15.81,0.65,22.36-1.03C261.29,176.69,262.3,176.55,262.3,176.83z M232.18,181.35
	c0.16,0.72,1.05,3.67,1.93,6.58l1.64,5.28l-0.65,0.96c-1.93,2.88-7.4,7.1-13.39,10.42c-3.24,1.78-3.8,2.19-3.93,3.02
	c-0.16,0.96-0.26,0.89-4.91-3.57c-3.5-3.33-4.78-4.77-4.85-5.42c-0.07-0.82,0.23-1.06,3.96-3.05c7.4-3.94,12.57-7.82,16.93-12.69
	c1.34-1.51,2.55-2.74,2.68-2.78C231.72,180.12,231.98,180.67,232.18,181.35z M309.91,187.22c6.61,13.1,8.94,16.8,13.52,21.33
	c1.54,1.51,2.75,2.81,2.68,2.88c-0.07,0.07-3.83,1.54-8.38,3.26l-8.25,3.15l-0.92-0.79c-2.59-2.23-4.81-4.7-6.25-6.89
	c-1.34-2.06-8.15-14.88-8.35-15.77c-0.07-0.24,11.92-14.27,12.21-14.27C306.28,180.08,307.95,183.31,309.91,187.22z M198.95,194.14
	c7.07,6.72,6.65,5.86,5.21,10.7c-1.9,6.38-5.04,11.86-9.46,16.7c-2.65,2.88-2.78,3.09-2.46,3.98c0.2,0.51,0.29,1.03,0.23,1.1
	c-0.07,0.07-4.42-0.93-9.69-2.16c-11.69-2.81-11.26-2.4-7.01-7.13c6.91-7.65,11.75-16.97,14.05-27.06l0.92-4.01l1.01,0.99
	C192.27,187.8,195.54,190.88,198.95,194.14z M385.41,195.75c0,11.52,2.32,26.27,8.35,52.91c0.85,3.67,2.1,9.4,2.82,12.69
	c0.69,3.29,1.34,6.34,1.44,6.76c0.13,0.65,0.03,0.79-0.56,0.75c-0.43,0-4.81-1.06-9.76-2.33l-9-2.3l-3.31-8.88
	c-7.53-20.34-9.82-29.32-10.18-40.16c-0.2-5.9,0.26-10.32,1.57-14.71l0.59-2.06l8.61-3.33c4.75-1.82,8.81-3.33,9.04-3.33
	C385.32,191.74,385.41,192.77,385.41,195.75z M257.85,199.63l-1.24,6.17l-1.31,0.41c-1.38,0.41-7.63,0.55-11.17,0.27l-1.96-0.17
	l-1.9-6.31c-1.05-3.43-1.83-6.34-1.74-6.45c0.07-0.1,0.95,0,1.9,0.24c4.22,0.96,13.13,0.65,17.45-0.62
	c0.56-0.17,1.01-0.17,1.08-0.03C259.03,193.32,258.54,196.23,257.85,199.63z M266.07,197.13c2.72,2.4,5.76,4.22,10.41,6.28
	c2.19,0.96,4.06,1.82,4.13,1.92c0.07,0.07-1.18,1.61-2.78,3.43c-1.6,1.82-3.37,3.87-3.93,4.53l-1.01,1.23l-2.91-1.3
	c-4.22-1.89-6.32-3.33-8.68-5.97l-2.1-2.33l1.02-5.11c0.56-2.85,1.11-5.59,1.24-6.17l0.26-1.03l1.18,1.41
	C263.55,194.79,264.99,196.2,266.07,197.13z M238.57,202.65l1.9,6.28l-0.95,1.06c-1.44,1.58-4.58,3.81-7.56,5.38
	c-2.46,1.27-2.68,1.47-2.78,2.5c-0.07,0.62-0.23,1.13-0.39,1.1c-0.16,0-2.26-1.85-4.65-4.12c-5.63-5.28-5.7-5.8-1.15-8.2
	c3.96-2.06,8.38-5.25,11.23-8.02c1.31-1.3,2.42-2.33,2.42-2.3C236.67,196.34,237.55,199.18,238.57,202.65z M295.21,202.1
	c3.83,7.65,5.63,10.49,8.74,13.82c1.41,1.47,2.42,2.85,2.29,2.98c-0.13,0.14-2.62,1.17-5.57,2.26l-5.3,2.06l-2.23-2.3
	c-2.68-2.74-4.16-5.01-7.07-10.77c-2.19-4.32-2.19-4.39-1.6-5.18c0.88-1.23,7.43-8.74,7.63-8.74
	C292.2,196.23,293.61,198.87,295.21,202.1z M364.46,199.77c0,0.1-0.33,1.51-0.72,3.19c-0.62,2.64-0.72,3.94-0.72,10.39
	c0,7.78,0.23,9.84,1.96,17.49c1.11,4.84,4.75,16.01,8.09,25.03c1.54,4.05,2.72,7.44,2.68,7.48c-0.2,0.24-19.97-4.84-20.33-5.21
	c-0.49-0.48-5.24-13.41-7.11-19.41c-2.78-8.78-4.09-16.87-3.73-22.98c0.2-3.26,0.98-7.85,1.51-8.85c0.16-0.27,4.22-2.02,9.07-3.87
	C363.97,199.66,364.46,199.49,364.46,199.77z M211.72,206.28c2.16,2.06,4.26,4.05,4.68,4.46l0.72,0.75l-0.75,2.37
	c-1.54,4.73-3.41,7.96-6.71,11.56l-2.13,2.3l0.36,1.41c0.16,0.75,0.26,1.37,0.16,1.37c-0.2,0-11.59-2.74-12.28-2.95
	c-0.29-0.1-0.69-0.65-0.88-1.23c-0.33-0.99-0.26-1.13,2.16-3.84c4.75-5.28,8.15-11.8,9.92-19.03c0.23-0.86,0.49-1.37,0.59-1.2
	C207.69,202.41,209.56,204.22,211.72,206.28z M343.37,208.07c-0.52,1.44-1.18,6.72-1.18,9.53c0,8.68,2.29,18.28,8.02,33.74
	c1.21,3.29,2.13,6,2.06,6.07c-0.16,0.21-16.4-3.94-16.67-4.22c-0.39-0.45-4.49-11.83-5.66-15.84c-2.03-6.76-2.62-10.18-2.59-15.6
	c0-2.88,0.2-5.56,0.46-6.65l0.46-1.82l7.37-2.85c4.06-1.58,7.5-2.85,7.66-2.88C343.44,207.52,343.47,207.76,343.37,208.07z
	 M284.11,211.53c2.59,5.14,5.11,9.09,6.84,10.66c0.85,0.79,1.41,1.54,1.31,1.82c-0.1,0.27-2.42,1.3-5.17,2.33
	c-2.72,1.03-5.17,1.95-5.44,2.02c-0.29,0.14-0.39,0.03-0.23-0.21c0.13-0.24-0.56-1.2-1.67-2.37c-1.77-1.85-5.34-7.89-5.34-9.02
	c0-0.41,7.2-8.85,7.6-8.88C282.15,207.86,283.09,209.51,284.11,211.53z M259.75,209.37c1.24,1.61,5.21,4.32,8.32,5.66
	c1.41,0.62,2.68,1.23,2.82,1.37c0.1,0.1-1.08,1.65-2.65,3.39l-2.85,3.15l-2.72-1.37c-1.77-0.89-3.24-1.95-4.26-3.02l-1.51-1.68
	l0.82-4.32c0.46-2.4,0.88-4.36,0.98-4.36S259.26,208.72,259.75,209.37z M255.98,209.2c-0.07,0.38-0.49,2.43-0.92,4.63l-0.79,3.98
	l-1.11,0.21c-0.62,0.14-2.39,0.14-3.99,0.03c-2.13-0.17-2.91-0.14-3.01,0.21c-0.07,0.21-0.2,0.34-0.29,0.24
	c-0.26-0.31-2.55-8.37-2.55-8.98c0-0.51,0.46-0.55,4.35-0.38c2.36,0.07,5.14,0,6.12-0.17c0.98-0.17,1.93-0.34,2.1-0.38
	C256.02,208.58,256.08,208.85,255.98,209.2z M119.16,211.67l9.23,2.16l0.79,2.78c4.35,15.02,5.83,28.84,4.42,40.98
	c-0.65,5.56-3.27,15.4-5.14,19.48l-0.56,1.2l-9.07,2.64c-5.01,1.44-9.1,2.57-9.1,2.47c0-0.07,0.72-2.33,1.6-5.01
	c3.21-9.77,4.42-17.45,4.42-28.5c0-7.89-0.29-11.25-1.6-19.2c-1.08-6.45-3.7-17.42-5.01-21.06c-0.13-0.31,0-0.45,0.29-0.31
	C109.69,209.37,114.05,210.43,119.16,211.67z M242.69,216.3l1.31,4.42l-0.92,0.79c-0.49,0.41-1.83,1.27-2.95,1.85
	c-1.9,1.06-2.03,1.2-2.23,2.57c-0.1,0.82-0.29,1.47-0.39,1.47c-0.1,0-1.6-1.37-3.37-3.09l-3.18-3.09l0.33-1.47
	c0.29-1.41,0.46-1.58,2.49-2.64c2.32-1.2,5.7-3.6,6.71-4.77c0.36-0.41,0.69-0.65,0.75-0.58
	C241.32,211.84,241.97,213.86,242.69,216.3z M228.25,222.09c0,0.07-0.23,0.69-0.52,1.41c-0.72,1.82-2.26,4.15-3.93,5.97
	c-1.38,1.47-1.41,1.61-1.11,2.74c0.39,1.44,0.43,2.16,0.07,1.92c-0.13-0.07-2.62-0.72-5.47-1.37c-2.88-0.69-5.57-1.37-5.93-1.54
	c-0.46-0.21-0.79-0.75-0.92-1.58c-0.23-1.2-0.13-1.37,1.51-3.19c2.78-3.09,5.37-7.54,6.48-11.21c0.23-0.75,0.49-1.47,0.56-1.65
	C219.08,213.41,228.25,221.82,228.25,222.09z M141.32,216.95c5.4,1.3,9.99,2.5,10.22,2.71c0.52,0.48,2.52,8.61,3.37,13.68
	c1.51,8.74,1.41,18-0.2,25.58c-0.69,3.26-2,7.44-3.57,11.42c-0.16,0.41-0.1,0.62,0.2,0.62c1.28,0-1.11,0.82-10.12,3.46
	c-5.53,1.61-10.08,2.88-10.15,2.85s0.39-1.51,1.01-3.29c5.11-14.33,5.73-29.49,2-47.25c-0.79-3.6-2.55-10.7-3.01-11.93
	c-0.1-0.31-0.03-0.45,0.13-0.34S135.92,215.68,141.32,216.95z M325.27,216.33c-0.43,3.33-0.23,10.01,0.36,13.24
	c0.85,4.66,2.59,10.63,4.94,17.04c1.18,3.22,2.13,5.9,2.13,6c0,0.07-0.39,0-0.88-0.17c-0.52-0.17-4.75-1.23-9.43-2.43
	c-4.68-1.17-8.68-2.3-8.87-2.5c-0.62-0.62-3.57-9.29-4.58-13.41c-0.82-3.22-0.95-4.42-0.95-8.3c0-2.47,0.1-4.6,0.2-4.7
	c0.2-0.21,16.57-6.62,17.09-6.69C325.4,214.37,325.4,215.27,325.27,216.33z M274.25,221.99c0.92,1.75,2.32,3.94,3.18,4.9
	c1.93,2.23,1.83,2.43-2.49,4.08c-3.57,1.37-3.8,1.41-3.8,0.86c0-0.24-0.59-1.06-1.28-1.85c-0.72-0.82-1.67-2.23-2.13-3.19
	l-0.82-1.68l2.65-3.12c1.47-1.75,2.75-3.15,2.85-3.15C272.52,218.83,273.37,220.27,274.25,221.99z M162.93,222.16
	c4.52,1.1,8.28,2.13,8.41,2.3c0.29,0.45,1.74,6.72,2.46,10.66c0.39,2.23,0.56,4.84,0.56,9.26c0,7.06-0.62,10.94-2.65,16.6
	c-0.95,2.67-1.08,3.36-0.75,3.91c0.2,0.34,0.33,0.69,0.26,0.75c-0.39,0.38-16.86,4.87-17.06,4.66c-0.13-0.14,0.36-2.13,1.08-4.39
	c4.09-12.83,4.16-25.51,0.23-41.36c-0.59-2.4-1.02-4.36-0.92-4.36C154.65,220.2,158.45,221.1,162.93,222.16z M257.82,221.44
	c0.75,0.65,2.36,1.71,3.57,2.3c1.21,0.62,2.23,1.17,2.23,1.27c0,0.1-0.65,0.86-1.44,1.68l-1.41,1.47l-1.6-0.89
	c-0.88-0.48-2.06-1.34-2.65-1.89l-1.05-1.03l0.36-2.06c0.2-1.17,0.43-2.09,0.52-2.09C256.41,220.2,257.1,220.75,257.82,221.44z
	 M253.69,220.99c-0.07,0.24-0.33,1.34-0.56,2.43l-0.39,1.99l-1.8-0.24c-1.38-0.17-1.9-0.1-2.36,0.31c-0.49,0.48-0.59,0.34-1.15-1.68
	c-0.88-3.22-0.82-3.26,3.11-3.26C253.1,220.55,253.82,220.65,253.69,220.99z M305.59,225.35c-0.16,5.14,1.41,12.21,4.35,19.82
	c0.33,0.82,0.49,1.54,0.43,1.65c-0.1,0.07-2.98-0.58-6.42-1.44l-6.25-1.58l-0.98-2.64c-1.8-4.97-2.42-7.85-2.46-11.49l-0.03-3.39
	l5.57-2.16c3.08-1.2,5.63-2.16,5.73-2.16C305.62,221.92,305.65,223.46,305.59,225.35z M245.93,227.61c0,0.21-0.52,0.65-1.15,1.03
	c-0.72,0.41-1.24,0.99-1.34,1.51c-0.36,1.61-0.49,2.06-0.72,2.06c-0.13,0-0.92-0.62-1.74-1.37l-1.51-1.34l0.39-1.65
	c0.36-1.51,0.56-1.75,2.65-3.05l2.26-1.37l0.56,1.89C245.67,226.38,245.93,227.41,245.93,227.61z M233.36,226.93
	c1.7,1.65,3.08,3.09,3.08,3.22c0,0.14-0.59,0.96-1.34,1.82c-1.24,1.51-1.31,1.65-0.98,2.88c0.2,0.72,0.36,1.47,0.36,1.68
	c0,0.24-1.6-0.03-4.32-0.69l-4.32-1.1l-0.43-1.47c-0.43-1.51-0.39-1.51,0.82-2.91c1.31-1.47,3.67-5.35,3.67-6
	c0-0.21,0.1-0.38,0.2-0.38C230.18,223.98,231.66,225.31,233.36,226.93z M180.97,226.51c3.41,0.82,7.6,1.82,9.33,2.23
	c3.11,0.75,3.18,0.79,3.37,1.85c0.1,0.62,0.43,2.16,0.69,3.5c0.26,1.3,0.59,4.49,0.69,7.03c0.23,5.35-0.26,8.88-1.87,13.51
	l-0.98,2.78l0.88,0.79c0.46,0.45,0.82,0.82,0.75,0.89c-0.23,0.17-19.45,5.69-19.84,5.69c-0.69,0-0.79-1.23-0.23-2.61
	c0.72-1.82,1.93-6.28,2.46-9.22c0.29-1.51,0.46-4.73,0.43-8.74c0-6.52-0.56-10.94-2.06-16.87c-0.46-1.75-0.49-2.33-0.2-2.33
	C174.62,225.01,177.57,225.69,180.97,226.51z M268.23,231.9c0.85,0.51,0.07,1.51-1.8,2.23c-1.8,0.75-1.9,0.75-1.74,0.14
	c0.1-0.38-0.1-0.89-0.52-1.27c-0.36-0.34-0.92-1.06-1.24-1.61l-0.59-0.99l1.38-1.65l1.34-1.61l1.41,2.26
	C267.25,230.66,268.07,231.76,268.23,231.9z M258.01,229.6c1.08,0.62,1.08,0.62,0.46,1.27c-0.72,0.79-1.44,0.62-2.95-0.75
	c-0.79-0.69-0.98-1.1-0.85-1.82l0.16-0.93l1.05,0.82C256.44,228.64,257.39,229.29,258.01,229.6z M291.77,229.6
	c0,2.74,0.69,6.28,1.96,10.12c0.56,1.61,0.98,3.02,0.98,3.12c0,0.14-2.72-0.48-6.06-1.34c-5.53-1.41-6.06-1.61-6.35-2.43
	c-0.62-1.65-1.31-4.63-1.41-6.17l-0.1-1.51l5.08-1.99c2.78-1.06,5.27-1.95,5.5-1.95C291.64,227.41,291.77,228.06,291.77,229.6z
	 M252.09,228.67c-0.07,0.65-0.33,0.99-0.75,1.06c-0.36,0.07-0.88,0.38-1.18,0.65c-0.49,0.41-0.59,0.38-0.85-0.48
	c-0.49-1.41,0.1-2.16,1.64-2.16C252.12,227.75,252.19,227.82,252.09,228.67z M202.42,231.66c3.47,0.86,6.42,1.71,6.55,1.95
	c0.13,0.24,0.43,1.75,0.65,3.36c0.56,4.18,0.23,8.47-0.95,12.28l-0.95,3.12l0.98,1.06c0.75,0.79,0.88,1.06,0.52,1.2
	c-0.26,0.1-3.14,0.96-6.45,1.92l-5.96,1.71l-0.95-0.72l-0.92-0.72l0.88-2.78c0.49-1.54,1.08-4.15,1.31-5.76
	c0.52-3.77,0.26-11.04-0.59-15.16c-0.33-1.65-0.56-2.98-0.52-2.98C196.1,230.15,198.95,230.83,202.42,231.66z M247.21,231.25
	c0.29,0.82-0.29,3.05-1.05,3.98c-0.65,0.82-0.56,4.9,0.13,5.73c0.33,0.38,0.69,1.23,0.85,1.89c0.23,0.96,0.49,1.23,1.28,1.37
	c0.82,0.17,0.95,0.31,0.85,1.2c-0.07,0.58-0.16,1.06-0.2,1.1c-0.03,0.07-0.79-0.14-1.64-0.45c-1.15-0.41-1.64-0.82-1.87-1.47
	c-0.16-0.48-0.59-1.44-0.92-2.09c-0.43-0.82-0.52-1.47-0.36-2.13c0.13-0.51,0.16-1.03,0.03-1.13c-0.39-0.41-0.92-3.6-0.62-3.81
	c0.39-0.27,1.9-3.43,1.9-4.05c0-0.45,0.43-0.79,1.08-0.86C246.82,230.49,247.05,230.83,247.21,231.25z M239.81,233.17
	c0.69,0.75,1.21,1.47,1.18,1.65c-0.07,0.17,0.03,0.96,0.16,1.78c0.13,0.82,0.2,1.58,0.1,1.65c-0.1,0.1-1.05,0-2.16-0.24l-1.96-0.45
	l-0.36-1.65c-0.29-1.58-0.26-1.75,0.56-2.88c0.52-0.62,0.98-1.17,1.08-1.17C238.5,231.86,239.16,232.45,239.81,233.17z
	 M279.17,236.84c0.26,1.13,0.39,2.09,0.33,2.16c-0.26,0.27-7.83-1.82-8.25-2.26c-1.01-1.1-0.49-1.58,3.27-2.98l3.67-1.37l0.26,1.2
	C278.58,234.23,278.9,235.7,279.17,236.84z M261.42,233.54c0.69,1.23,0.72,2.3,0.03,2.57c-0.82,0.34-1.11,0.24-1.11-0.38
	c0-0.31-0.23-0.86-0.56-1.2c-0.49-0.58-0.49-0.65,0.07-1.3C260.63,232.34,260.73,232.38,261.42,233.54z M217.94,235.4l5.89,1.44
	l-0.03,3.6c-0.03,2.78-0.2,4.01-0.69,5.38l-0.69,1.82l1.28,1.2c0.82,0.75,1.15,1.27,0.88,1.37c-0.23,0.07-3.04,0.89-6.25,1.85
	l-5.83,1.68l-1.05-0.99l-1.02-0.96l0.56-1.82c0.98-3.33,1.31-6.41,1.11-10.36c-0.13-2.09-0.29-4.22-0.43-4.77
	c-0.1-0.51-0.07-0.93,0.07-0.93C211.91,233.96,214.7,234.61,217.94,235.4z M261.55,237.21c0.39,0.14,0.85,0.65,1.05,1.23
	c0.29,0.89,0.26,1.13-0.2,1.51c-0.75,0.55-0.92,0.41-1.51-1.41C260.37,236.94,260.37,236.9,261.55,237.21z M232.44,238.93
	c2.65,0.62,2.72,0.72,1.83,3.39l-0.49,1.61l1.15,1.17c0.65,0.65,1.18,1.34,1.18,1.47c0,0.14-1.93,0.86-4.32,1.54l-4.32,1.27
	l-1.08-1.23l-1.08-1.23l0.49-2.02c0.26-1.1,0.49-3.22,0.49-4.73v-2.74l1.9,0.45C229.2,238.14,231.13,238.62,232.44,238.93z
	 M267.64,238.76c1.08,0.27,1.7,0.65,1.93,1.17c0.26,0.65,0.07,0.99-1.51,2.71l-1.83,1.95l-1.38-1.34l-1.38-1.34l1.21-0.48
	c1.38-0.51,1.38-0.58,0.72-2.23c-0.43-1.13-0.43-1.2,0.1-1.03C265.81,238.28,266.79,238.52,267.64,238.76z M239.81,240.64
	c0.69,0.14,1.18,0.41,1.11,0.62c-0.07,0.21,0.36,0.96,0.95,1.68c0.62,0.69,1.11,1.41,1.11,1.58c0,0.34-3.14,1.41-3.99,1.41
	c-0.23-0.03-0.85-0.65-1.34-1.41c-0.79-1.2-0.88-1.61-0.69-2.95c0.2-1.34,0.29-1.51,0.92-1.34
	C238.24,240.33,239.12,240.54,239.81,240.64z M276.68,241.02c4.78,1.13,5.63,1.95,3.37,3.15c-2.39,1.27-4.16,3.91-5.34,7.85
	c-0.16,0.48-5.96-4.77-6.12-5.52c-0.2-0.96,1.31-2.74,2.88-3.43l1.6-0.69l-0.46-1.17c-0.29-0.72-0.33-1.13-0.1-1.13
	C272.72,240.09,274.58,240.51,276.68,241.02z M260.67,243.39c0,0.55-0.43,0.99-1.54,1.65c-0.82,0.51-1.54,0.86-1.6,0.82
	c-0.03-0.07-0.16-0.48-0.29-0.96c-0.16-0.75-0.03-0.96,0.95-1.47c0.82-0.38,1.18-0.79,1.18-1.3c0-0.72,0.03-0.75,0.65-0.14
	C260.37,242.32,260.67,242.94,260.67,243.39z M289.35,244.21c6.84,1.71,6.68,1.68,6.68,2.16c0,0.24-0.95,0.93-2.1,1.54
	c-2.29,1.23-4.49,3.46-5.86,5.9c-0.92,1.65-2.19,6.07-2.19,7.61c0,0.51-0.13,0.99-0.29,1.1c-0.16,0.1-2.23-1.65-4.58-3.94
	c-4.75-4.56-4.49-3.98-3.41-7.61c0.69-2.3,2.19-3.94,4.62-5.11c2.1-0.99,2.26-1.23,1.7-2.37c-0.2-0.34-0.29-0.65-0.23-0.65
	C283.78,242.84,286.34,243.45,289.35,244.21z M265.74,248.12c0,0.48-0.62,1.06-2,1.89c-1.08,0.69-2.39,1.58-2.91,2.02
	c-0.52,0.41-1.05,0.65-1.18,0.51c-0.13-0.14-0.46-1.1-0.75-2.06l-0.49-1.82l1.08-0.86c0.59-0.48,1.54-1.03,2.06-1.23
	c0.59-0.21,1.08-0.65,1.18-1.06c0.2-0.69,0.29-0.65,1.6,0.62C265.12,246.85,265.74,247.74,265.74,248.12z M255.1,246.13
	c0.2,0.48,0.33,0.93,0.33,0.96c0,0.07-0.62,0.21-1.38,0.34c-0.79,0.1-1.7,0.27-2.1,0.41c-0.59,0.17-0.65,0.07-0.52-0.86
	c0.1-0.82,0.36-1.13,1.18-1.37C254.31,245.1,254.77,245.17,255.1,246.13z M305.95,248.39c3.18,0.79,5.8,1.54,5.76,1.65
	c0,0.1-1.31,0.82-2.91,1.65c-6.42,3.22-9.92,8.98-11.26,18.52c-0.23,1.75-0.49,3.26-0.59,3.33c-0.13,0.14-2.32-1.89-7.6-6.96
	l-1.6-1.54l0.39-2.81c0.95-7.13,3.34-10.7,8.77-13.07c1.24-0.51,2.26-0.99,2.32-1.03s-0.07-0.41-0.26-0.86
	c-0.36-0.69-0.33-0.72,0.36-0.55C299.76,246.85,302.74,247.6,305.95,248.39z M243.97,247.64c0,0.17,0.26,0.34,0.56,0.34
	c0.39,0,0.07,0.51-1.05,1.71c-2,2.13-2.72,2.13-3.27,0.1l-0.43-1.47l1.38-0.34c0.72-0.21,1.51-0.45,1.67-0.51
	C243.48,247.23,243.97,247.29,243.97,247.64z M248.55,249.32c0,0.38-0.75,4.32-0.85,4.42c-0.07,0.1-2.75-1.23-3.04-1.51
	c-0.33-0.31,3.01-3.5,3.44-3.33C248.36,249.01,248.55,249.18,248.55,249.32z M238.21,251.58c0.26,1.13,0.65,2.09,0.88,2.19
	c0.43,0.14-5.89,6.89-6.48,6.89c-0.23,0-0.56-0.65-0.75-1.47c-0.56-2.19-1.6-5.08-2.32-6.38c-0.36-0.62-0.59-1.2-0.56-1.27
	c0.29-0.31,8.32-2.4,8.51-2.23C237.58,249.42,237.91,250.45,238.21,251.58z M271.67,253.09c1.8,1.68,2.62,2.71,2.52,3.09
	c-0.07,0.31-1.08,0.99-2.23,1.54c-2.55,1.2-5.44,3.15-7.33,5.01c-0.79,0.75-1.47,1.34-1.51,1.3c-0.2-0.24-2.46-7.85-2.46-8.26
	c0-0.69,2.75-2.85,5.17-4.05c1.21-0.62,2.03-1.23,2.03-1.58C267.87,249.49,267.97,249.56,271.67,253.09z M256.84,251.86
	c0.29,1.03,0.56,1.92,0.56,2.02s-1.01,0.27-2.23,0.38c-1.21,0.14-2.91,0.45-3.77,0.72c-0.85,0.27-1.54,0.38-1.54,0.27
	c0.03-0.14,0.2-1.17,0.43-2.3c0.39-1.89,0.49-2.09,1.54-2.47c0.62-0.24,1.9-0.41,2.82-0.41l1.64-0.03L256.84,251.86z M323.53,252.82
	c4.58,1.13,8.55,2.16,8.81,2.23c0.26,0.07-0.79,0.79-2.29,1.54c-5.93,3.02-9.76,6.82-12.41,12.48c-1.96,4.15-3.05,8.44-3.8,14.95
	c-0.33,2.71-0.62,5.01-0.65,5.08c-0.07,0.07-3.21-2.85-7.04-6.48l-6.91-6.62l0.23-2.54c0.92-10.18,4.09-16.25,10.22-19.58
	c1.41-0.75,3.11-1.54,3.8-1.78c0.65-0.21,1.21-0.62,1.21-0.89c0-0.27,0.1-0.48,0.26-0.48C315.08,250.72,318.95,251.65,323.53,252.82
	z M228.09,255.35c0.46,1.06,1.11,3.22,1.51,4.8c0.39,1.61,0.85,2.91,1.01,2.91c0.2,0-1.7,2.16-4.19,4.8
	c-2.49,2.64-4.68,4.8-4.91,4.8c-0.23,0-0.59-0.65-0.79-1.47c-1.31-5.35-3.31-10.36-5.4-13.58c-0.82-1.23-1.05-1.82-0.75-1.92
	c0.23-0.07,2.65-0.79,5.34-1.58c2.72-0.75,5.27-1.51,5.73-1.65C226.58,252.16,226.91,252.51,228.09,255.35z M244.36,254.98
	c3.08,1.44,2.95,1.1,2,6.21c-0.46,2.43-0.88,4.53-0.95,4.6c-0.07,0.07-0.88-0.41-1.83-1.1c-1.74-1.2-5.44-2.98-6.22-2.98
	c-0.23,0-0.65-0.17-0.92-0.34c-0.39-0.27,0.13-0.99,2.78-3.77c1.8-1.89,3.31-3.43,3.34-3.43
	C242.59,254.15,243.41,254.53,244.36,254.98z M344.29,258.06l7.17,1.82l-2.26,0.99c-5.08,2.23-10.94,7.2-13.78,11.62
	c-2.65,4.12-4.49,8.85-5.66,14.54c-0.69,3.26-1.96,12.83-1.96,14.64c0,0.65-0.1,1.17-0.2,1.17c-0.16,0-8.35-7.68-11.53-10.8
	l-0.79-0.75l0.69-5.73c0.75-6.14,1.28-8.85,2.29-11.97c2.16-6.58,6.22-11.38,12.31-14.57c1.54-0.82,6.02-2.78,6.38-2.78
	C337.05,256.25,340.33,257.07,344.29,258.06z M213.32,258.89c2.36,3.74,4.58,9.57,5.3,13.96c0.13,0.75,0.33,1.61,0.49,1.92
	c0.2,0.41-0.92,1.75-4.55,5.56c-2.65,2.78-4.91,5.04-5.01,5.04c-0.13,0-0.39-0.96-0.62-2.16c-1.34-7.13-5.3-16.32-9.2-21.23
	l-1.31-1.61l1.74-0.51c0.95-0.27,3.8-1.13,6.32-1.89s4.75-1.37,4.98-1.37C211.65,256.55,212.5,257.62,213.32,258.89z M258.41,257.21
	c0.16,0.17,2.59,7.96,2.59,8.3c0,0.07-1.38,0.1-3.08,0.03c-2.46-0.1-3.83,0.07-6.61,0.75c-1.93,0.51-3.57,0.86-3.63,0.79
	c-0.13-0.14,1.51-8.47,1.74-8.85c0.13-0.27,4.03-1.27,5.53-1.44C256.12,256.66,258.15,256.9,258.41,257.21z M285.22,266.19
	c0,0.14-1.57,1.03-3.5,1.99c-4.49,2.26-8.12,4.8-11.46,8.06l-2.65,2.61l-1.83-5.9l-1.83-5.93l2.46-2.47
	c1.96-1.99,3.21-2.85,6.22-4.39c2.06-1.06,3.77-2.09,3.77-2.26c0-0.21,2,1.54,4.42,3.84C283.23,264.06,285.22,266.05,285.22,266.19z
	 M197.21,262.55c3.9,4.63,7.56,12.65,9.27,20.4c0.33,1.41,0.69,3.02,0.82,3.6c0.2,0.99-0.13,1.41-6.97,8.81
	c-3.96,4.32-7.3,7.82-7.47,7.82c-0.52,0-5.63-8.44-7.73-12.83c-1.18-2.47-3.47-7.89-5.08-12.04s-3.34-8.37-3.86-9.36
	c-0.72-1.37-0.82-1.85-0.52-1.99c0.88-0.34,20.01-5.9,20.2-5.83C195.97,261.15,196.56,261.8,197.21,262.55z M363.38,262.9
	c4.09,1.06,7.96,2.02,8.55,2.13c0.98,0.17,1.51,0.79,0.69,0.79c-0.72,0-6.29,3.12-8.77,4.9c-3.21,2.3-7.66,6.96-9.59,10.01
	c-3.31,5.32-5.6,11.45-6.97,18.48c-0.79,4.08-2.46,16.91-2.46,18.83c0,0.55-0.13,0.93-0.29,0.86c-0.2-0.03-3.57-3.19-7.56-6.96
	l-7.24-6.86l0.2-1.89c0.1-1.03,0.43-3.81,0.69-6.17c2-17.39,6.19-25.75,15.95-31.96c2.32-1.47,7.83-3.98,8.81-4.01
	C355.65,261.01,359.25,261.87,363.38,262.9z M237.35,264.3c2.75,0.96,4.09,1.71,6.16,3.43l1.34,1.1l-0.95,4.77
	c-0.49,2.61-1.08,5.52-1.28,6.52l-0.33,1.75l-2.36-1.85c-1.31-1.03-3.67-2.57-5.3-3.39c-2.85-1.47-8.02-3.26-9.43-3.26
	c-0.52,0,0.46-1.23,4.03-4.97c2.62-2.74,4.94-4.97,5.17-4.97C234.64,263.41,235.98,263.82,237.35,264.3z M385.18,268.38
	c4.19,1.06,7.83,1.99,8.09,2.09s-0.88,0.86-2.78,1.82c-4.75,2.4-9.92,6.14-13.29,9.67c-7.01,7.37-11.03,16.01-13.52,29.11
	c-0.75,3.94-2.16,14.88-2.68,20.82c-0.13,1.37-0.26,2.5-0.33,2.5c-0.16,0-13.88-13.1-13.88-13.24c0-0.51,1.44-12.83,1.83-15.74
	c1.31-9.74,3.54-16.67,7.27-22.8c3.7-6.1,9.63-11.04,17.58-14.61c1.8-0.79,3.47-1.47,3.7-1.47
	C377.39,266.5,380.99,267.36,385.18,268.38z M174.13,270.13c0.59,1.13,2.39,5.49,3.99,9.67c4.26,10.97,8.02,18.41,12.21,24.11
	l0.88,1.2l-6.35,6.65c-4.09,4.29-6.42,6.48-6.52,6.14c-0.07-0.24-0.59-2.57-1.18-5.11c-3.57-15.53-10.18-29.01-18.89-38.41
	l-1.74-1.92l7.76-2.26c4.29-1.27,8.02-2.26,8.28-2.23C172.85,268.01,173.54,268.97,174.13,270.13z M261.68,268.45
	c0.36,0.38,3.99,11.76,3.83,11.97c-0.07,0.03-0.92-0.07-1.9-0.27c-3.21-0.62-8.48-0.1-14.01,1.37c-2.72,0.72-4.98,1.23-4.98,1.13
	s0.52-3.02,1.18-6.41l1.21-6.24l2.65-0.72c1.47-0.41,3.24-0.89,3.96-1.06C255.43,267.8,261.22,267.97,261.68,268.45z M292.26,272.67
	c4.26,4.01,4.45,4.29,3.73,4.6c-2.59,1.06-8.38,4.12-10.71,5.62c-3.99,2.61-6.42,4.63-9.82,8.23c-1.7,1.75-3.11,3.15-3.14,3.09
	c-0.07-0.07-0.92-2.85-1.96-6.21l-1.83-6.1l1.21-1.58c2.26-2.88,7.14-6.86,10.9-8.85c2.42-1.3,6.65-3.22,6.94-3.15
	C287.68,268.35,289.81,270.3,292.26,272.67z M156.71,276.17c9.23,10.29,15.26,23.08,18.96,40.36l0.82,3.91l-4.88,5.35
	c-2.68,2.95-6.12,6.65-7.66,8.23c-2.59,2.71-2.78,2.85-2.95,2.06c-2.82-13.07-5.37-21.12-9.66-30.31
	c-4.35-9.4-8.64-15.98-14.83-22.67l-3.5-3.81l9.23-2.64c5.08-1.44,9.59-2.78,10.05-2.95C153.83,273.15,154.19,273.36,156.71,276.17z
	 M227.27,276.34c4.62,1.2,9.53,3.84,12.74,6.86l1.77,1.65l-1.21,6.17c-0.65,3.39-1.28,6.45-1.38,6.76
	c-0.13,0.51-0.52,0.31-2.19-1.17c-5.57-4.84-13.03-8.57-20.04-10.01c-1.44-0.31-2.98-0.65-3.41-0.75c-0.72-0.17-0.39-0.62,4.09-5.32
	l4.88-5.14l1.31,0.21C224.55,275.69,226.09,276.03,227.27,276.34z M305.65,285.36l6.68,6.34l-1.87,0.82
	c-4.19,1.92-12.54,6.55-15.59,8.68c-5.47,3.81-10.35,8.33-14.47,13.44l-1.34,1.68l-2.52-8.2c-1.38-4.49-2.68-8.68-2.88-9.29
	c-0.49-1.54-0.03-2.37,3.7-6.28c3.27-3.39,7.53-6.76,11.53-9.05c3.14-1.82,9.17-4.66,9.66-4.56
	C298.78,278.98,301.95,281.86,305.65,285.36z M134.32,284.23c2.06,2.23,4.65,5.32,5.76,6.82c8.81,12.14,14.86,26.85,18.43,44.85
	l0.62,3.12l-7.11,7.48c-5.63,5.9-7.14,7.34-7.3,6.86c-0.13-0.34-0.92-3.6-1.77-7.27c-5.57-24.14-15.85-44.17-29.63-57.78l-2.59-2.54
	l4.98-1.44c2.75-0.79,6.97-2.02,9.4-2.74c2.42-0.75,4.65-1.34,4.94-1.34C130.35,280.22,132.29,282.03,134.32,284.23z M265.32,282.96
	l1.18,0.34l1.93,6.28c1.08,3.43,1.93,6.28,1.9,6.31c0,0.03-1.34-0.17-2.95-0.48c-5.4-0.99-12.28-0.21-21.58,2.47
	c-2.32,0.69-4.26,1.17-4.29,1.13c-0.2-0.21,2.39-13.03,2.65-13.31c0.39-0.38,7.11-2.23,10.44-2.91
	C257.46,282.24,263.22,282.31,265.32,282.96z M214.83,288.62c8.02,1.47,16.17,5.56,21.74,10.87l1.96,1.85l-1.93,10.12
	c-1.05,5.56-1.96,10.15-2.03,10.22c-0.03,0.07-1.08-0.79-2.29-1.92c-9.72-8.92-21.12-14.23-34.38-16.05l-1.74-0.24l7.11-7.68
	C211.19,287.21,210.28,287.79,214.83,288.62z M320.85,299.93l5.37,5.11l-0.92,0.45c-0.52,0.24-2.65,1.2-4.71,2.16
	c-14.54,6.76-25.47,15.23-34.58,26.85l-1.01,1.3l-0.52-1.65c-3.7-12.04-4.49-14.92-4.29-15.26c0.13-0.24,1.24-1.71,2.49-3.26
	c6.68-8.3,16.17-15.19,28.22-20.54c3.14-1.37,3.34-1.44,3.96-0.89C315.21,294.51,317.9,297.09,320.85,299.93z M267.38,297.88
	c1.57,0.31,3.11,0.65,3.41,0.82c0.33,0.21,1.51,3.5,3.27,9.36c1.51,4.94,2.78,9.19,2.88,9.4c0.07,0.21-0.98,0.1-2.75-0.31
	c-3.96-0.93-13.33-0.99-17.78-0.14c-4.22,0.82-10.48,2.37-15.23,3.77c-2.16,0.65-3.96,1.03-4.03,0.89c-0.1-0.27,3.5-19.58,3.7-19.79
	c0.07-0.07,2.88-0.89,6.29-1.82C256.84,297.43,261.85,296.88,267.38,297.88z M205.33,307.68c9.76,2.47,18.99,7.65,26.39,14.81
	l2.29,2.26l-1.57,8.16c-0.85,4.49-1.67,8.5-1.74,8.95c-0.16,0.75-0.33,0.69-2.39-1.27c-9.53-9.09-20.73-15.43-32.97-18.72
	c-3.63-0.99-12.21-2.57-13.92-2.57c-0.26,0,2.42-3.05,5.99-6.79l6.48-6.79l3.67,0.45C199.6,306.41,203.07,307.1,205.33,307.68z
	 M335.68,313.96l7.17,6.82l-3.8,1.65c-18.34,7.96-34.51,20.1-44.82,33.71c-1.08,1.41-2.03,2.57-2.13,2.57
	c-0.1,0.03-0.69-1.78-1.38-4.01c-0.65-2.19-2-6.69-3.01-9.98l-1.83-5.97l1.34-1.89c6.84-9.5,17.65-18.45,29.89-24.76
	c5.89-3.05,10.61-5.18,11.1-5.04C328.34,307.1,331.72,310.22,335.68,313.96z M274.16,319.65c1.87,0.41,3.47,0.82,3.6,0.96
	c0.26,0.34,5.17,16.29,5.04,16.46c-0.07,0.07-1.67-0.24-3.54-0.69c-3.01-0.72-4.19-0.79-11.23-0.79c-6.68,0-8.45,0.14-11.79,0.75
	c-4.35,0.86-12.61,2.95-18.73,4.73c-2.23,0.65-4.16,1.2-4.29,1.2c-0.16,0,0.26-2.74,0.92-6.1c0.69-3.33,1.41-7.17,1.64-8.47
	c0.23-1.34,0.59-2.57,0.79-2.81c0.46-0.48,12.87-3.98,17.55-4.9C261.65,318.48,268.07,318.38,274.16,319.65z M187.26,322.6
	c15.45,2.57,28.88,9.46,40.47,20.75l2.23,2.19l-2.06,10.8c-1.11,5.93-2.06,10.87-2.13,10.94c-0.07,0.07-1.41-1.13-2.98-2.64
	c-12.02-11.56-25.83-19.41-41.12-23.42c-4.35-1.17-11.89-2.54-15.68-2.88l-2.55-0.24l7.63-8.23l7.6-8.2l2.72,0.21
	C182.87,321.98,185.52,322.29,187.26,322.6z M351.95,329.42c3.8,3.57,6.88,6.62,6.84,6.76c-0.03,0.1-1.38,1.41-3.01,2.88
	c-1.6,1.47-6.84,6.62-11.59,11.45c-9.46,9.57-13.49,13.37-17.71,16.84c-6.32,5.14-13.59,9.53-20.27,12.28
	c-3.37,1.37-6.91,2.57-7.07,2.37c-0.03-0.07-0.52-1.58-1.08-3.36s-1.9-6.24-3.01-9.91c-1.6-5.25-1.96-6.79-1.7-7.37
	c1.31-2.88,11.36-13.92,16.76-18.45c6.71-5.59,15.06-11.04,23.08-15.05c4.88-2.43,11-5.11,11.49-5.01
	C344.91,322.87,348.15,325.82,351.95,329.42z M276.35,338.34c4.55,0.79,7.24,1.54,7.53,2.19c0.16,0.31,1.57,4.8,3.14,9.98
	s2.91,9.57,2.98,9.77c0.1,0.21-2.13,0.38-6.16,0.41c-7.4,0.07-13.23,0.72-27.7,3.19c-17.94,3.02-27.9,4.12-27.9,3.05
	c0.03-0.75,4.16-21.57,4.32-21.74c0.43-0.45,16.34-4.84,21.15-5.83C261.26,337.79,270.59,337.38,276.35,338.34z M168.24,341.08
	c21.54,2.88,38.34,11.08,53.96,26.3l2.98,2.88l-1.9,9.74c-1.01,5.38-1.87,9.88-1.9,10.01c-0.03,0.72-0.95,0.03-3.5-2.47
	c-13-12.89-28.22-21.95-45.81-27.23c-6.74-2.02-19.35-4.32-23.74-4.32c-0.88,0-1.6-0.1-1.6-0.24c0-0.14,3.21-3.63,7.11-7.72
	l7.14-7.48h1.7C163.62,340.57,166.11,340.81,168.24,341.08z M290.95,363.3c0.36,0.82,5.63,18.62,5.57,18.69
	c-0.03,0.07-0.88-0.14-1.83-0.41c-5.93-1.75-11.46-2.43-20.1-2.4c-12.51,0.03-21.25,1.65-43.32,8.02c-3.9,1.13-7.11,1.99-7.2,1.92
	c-0.1-0.14,1.67-9.67,3.24-17.42c0.39-1.85-0.26-1.65,7.76-2.33c5.01-0.41,10.67-1.23,23.31-3.39c14.24-2.47,21.25-3.15,28.32-2.91
	C289.02,363.17,290.95,363.27,290.95,363.3z"/>
<path d="M194.49,37.83"/>
<path class="st4" d="M284.99,60.64"/>
<rect x="221.21" y="392.22" class="st4" width="3.03" height="29.94"/>
<g>
	<path class="st6" d="M251.52,427.76c-99.21,0.04-179.54-80.91-178.79-180.11c9.42-237.16,348.19-237.09,357.58,0
		C431.06,346.84,350.72,427.8,251.52,427.76L251.52,427.76z"/>
</g>
</svg>
